<svg xmlns="http://www.w3.org/2000/svg" width="600" height="500" version="1.1" viewBox="0 0 1333.333 694.427" xml:space="preserve"><g id="g10" transform="matrix(1.3333333,0,0,-1.3333333,0,694.42667)"><g id="g12" transform="scale(0.1)"><path id="path14" fill="#39bda9" fill-opacity="1" fill-rule="nonzero" stroke="none" d="m 5116.34,958.512 v 461.998 c -73.37,111.4 -211.97,184.8 -361.44,184.8 -230.99,0 -394.06,-179.38 -394.06,-415.8 0,-236.44 163.07,-415.799 394.06,-415.799 149.47,0 288.07,73.359 361.44,184.801 z m 0,-350.563 C 5021.22,531.84 4896.21,488.34 4752.18,488.34 c -402.2,0 -698.42,304.41 -698.42,701.17 0,396.76 296.22,701.12 698.42,701.12 144.03,0 269.04,-46.2 364.16,-122.27 v 100.54 h 298.94 V 510.09 h -298.94 v 97.859"/><path id="path16" fill="#39bda9" fill-opacity="1" fill-rule="nonzero" stroke="none" d="m 2886.73,3431.14 v 462 c -73.38,111.4 -211.97,184.8 -361.44,184.8 -230.99,0 -394.06,-179.38 -394.06,-415.8 0,-236.43 163.07,-415.8 394.06,-415.8 149.47,0 288.06,73.36 361.44,184.8 z m 0,-350.56 c -95.12,-76.11 -220.13,-119.6 -364.17,-119.6 -402.2,0 -698.41,304.4 -698.41,701.16 0,396.76 296.21,701.13 698.41,701.13 144.04,0 269.05,-46.21 364.17,-122.28 v 100.55 h 298.94 V 2982.72 h -298.94 v 97.86"/><path id="path18" fill="#39bda9" fill-opacity="1" fill-rule="nonzero" stroke="none" d="M 5851.71,2300.78 V 508.742 h 298.94 V 2446.94 l -298.94,-146.16"/><path id="path20" fill="#39bda9" fill-opacity="1" fill-rule="nonzero" stroke="none" d="M 5851.6,4654.99 V 2759.61 l 298.94,150.66 V 4801.1 h -0.1 L 5851.6,4654.99"/><path id="path22" fill="#39bda9" fill-opacity="1" fill-rule="nonzero" stroke="none" d="m 2717.09,1349.85 h 698.43 c -35.33,184.8 -163.06,277.2 -342.42,277.2 -160.33,0 -307.09,-106.02 -356.01,-277.2 z m -317.95,-149.47 c 0,396.76 298.94,701.12 695.71,701.12 377.74,0 630.47,-266.32 649.51,-701.12 v -81.53 H 2708.94 c 29.9,-192.959 187.52,-323.389 391.34,-323.389 163.05,0 282.63,76.07 353.29,154.879 l 201.1,-214.668 C 3537.81,599.781 3339.43,499.219 3100.28,499.219 c -402.2,0 -701.14,304.402 -701.14,701.161"/><path id="path24" fill="#39bda9" fill-opacity="1" fill-rule="nonzero" stroke="none" d="m 6427.86,1879.78 h 201.04 v 260.89 l 298.93,146.74 v -407.63 h 347.98 l -0.12,-266.35 H 6927.83 V 996.551 c 0,-138.61 38.05,-201.09 192.95,-201.09 h 187.51 v -274.5 H 7044.7 c -260.89,0 -415.8,154.93 -415.8,413.098 v 679.371 h -201.04 v 266.35"/><path id="path26" fill="#39bda9" fill-opacity="1" fill-rule="nonzero" stroke="none" d="m 8377.63,1901.5 c -141.32,0 -285.34,-46.19 -380.46,-149.47 v 339.79 357.83 0.84 l -1.92,-1.73 -297.02,-145.22 V 2183.01 2091.82 520.961 h 298.94 v 856.049 c 54.35,160.35 171.21,239.17 323.39,239.17 201.11,0 309.8,-157.64 309.8,-304.4 V 520.961 h 298.94 v 796.269 c 0,350.57 -214.69,584.27 -551.67,584.27"/><path id="path28" fill="#39bda9" fill-opacity="1" fill-rule="nonzero" stroke="none" d="m 2095.32,2450.49 -329.55,-154.08 v -644.9 H 765.434 v 421.62 0 377.36 h -0.11 L 435.773,2296.41 v -164.39 0 V 490.898 H 765.434 V 1347.11 H 1765.77 V 490.898 h 329.67 v 1582.232 377.36 h -0.12"/><path id="path30" fill="#39bda9" fill-opacity="1" fill-rule="nonzero" stroke="none" d="m 998.324,3977.38 c 230.996,0 366.876,127.72 366.876,320.68 0,192.93 -135.88,320.66 -366.876,320.66 H 751.02 v -641.34 z m -562.551,934.86 h 576.137 c 399.49,0 673.96,-250.03 673.96,-614.18 0,-358.72 -274.47,-614.18 -673.96,-614.18 H 751.02 V 2902.35 L 435.773,2759.61 v 2152.63"/><path id="path32" fill="#39bda9" fill-opacity="1" fill-rule="nonzero" stroke="none" d="m 3563.56,4363.27 h 298.93 v -154.9 c 86.97,103.28 203.82,152.18 350.57,152.18 35.33,0 67.94,-2.71 97.83,-8.16 v -312.51 c -40.76,13.58 -92.39,19.02 -149.46,19.02 -127.73,0 -239.16,-48.91 -298.94,-163.05 v -913.13 h -298.93 v 1380.55"/><path id="path34" fill="#39bda9" fill-opacity="1" fill-rule="nonzero" stroke="none" d="m 4514.62,3238.18 228.28,163.05 c 65.22,-111.4 141.3,-173.93 277.19,-173.93 103.27,0 173.93,51.66 173.93,125.02 0,78.82 -57.06,125.02 -182.08,171.22 l -95.11,38.03 c -231.01,89.7 -331.55,233.71 -331.55,418.51 0,220.13 184.79,383.19 437.53,383.19 173.92,0 323.39,-67.93 423.94,-236.42 l -220.13,-152.18 c -46.2,84.23 -111.41,122.27 -198.38,122.27 -78.8,0 -149.47,-40.75 -149.47,-108.69 0,-70.66 46.2,-114.15 173.93,-165.77 l 97.83,-35.32 c 228.28,-89.69 356.02,-209.28 356.02,-421.26 0,-239.12 -198.39,-404.92 -486.46,-404.92 -214.7,0 -394.05,86.98 -505.47,277.2"/><path id="path36" fill="#39bda9" fill-opacity="1" fill-rule="nonzero" stroke="none" d="m 6835.35,3811.61 h 698.43 c -35.33,184.8 -163.05,277.2 -342.42,277.2 -160.33,0 -307.09,-106 -356.01,-277.2 z M 6517.4,3662.14 c 0,396.76 298.94,701.13 695.7,701.13 377.75,0 630.49,-266.33 649.52,-701.13 v -81.53 H 6827.2 c 29.9,-192.96 187.52,-323.4 391.34,-323.4 163.05,0 282.63,76.09 353.29,154.89 l 201.1,-214.67 c -116.86,-135.89 -315.24,-236.45 -554.39,-236.45 -402.2,0 -701.14,304.4 -701.14,701.16"/><path id="path38" fill="#39bda9" fill-opacity="1" fill-rule="nonzero" stroke="none" d="M 8541.98,3072.39 8006.6,4360.55 h 320.68 l 369.59,-937.57 372.32,937.57 h 320.67 L 8612.63,2501.71 h -315.24 l 244.59,570.68"/></g></g></svg>