<svg xmlns="http://www.w3.org/2000/svg" xmlns:svg="http://www.w3.org/2000/svg" id="svg2" width="369" height="365.227" version="1.1" viewBox="0 0 369 365.227" xml:space="preserve"><metadata id="metadata8"/><g id="g10" transform="matrix(1.3333333,0,0,-1.3333333,0,365.22667)"><g id="g12" transform="scale(0.1)"><path id="path14" fill="#459adb" fill-opacity="1" fill-rule="nonzero" stroke="none" d="M 1892.29,535.859 C 1880.52,458.59 1821.51,458.59 1764.43,458.59 h -32.48 l 22.78,144.269 c 1.38,8.723 8.9,15.141 17.73,15.141 h 14.88 c 38.86,0 75.56,0 94.48,-22.129 11.32,-13.25 14.75,-32.883 10.47,-60.012 z m -24.84,201.602 h -215.27 c -14.72,0 -27.25,-10.711 -29.54,-25.25 L 1535.59,160.23 c -1.72,-10.89 6.7,-20.742 17.72,-20.742 h 110.45 c 10.3,0 19.08,7.5 20.68,17.672 l 24.69,156.488 c 2.29,14.543 14.82,25.25 29.54,25.25 h 68.12 c 141.79,0 223.62,68.622 245.01,204.633 9.63,59.481 0.39,106.219 -27.46,138.938 -30.62,35.972 -84.88,54.992 -156.89,54.992"/><path id="path16" fill="#253b7d" fill-opacity="1" fill-rule="nonzero" stroke="none" d="M 356.926,535.859 C 345.16,458.59 286.145,458.59 229.066,458.59 H 196.59 l 22.781,144.269 c 1.375,8.723 8.895,15.141 17.723,15.141 h 14.886 c 38.856,0 75.559,0 94.477,-22.129 11.32,-13.25 14.746,-32.883 10.469,-60.012 z m -24.84,201.602 H 116.813 c -14.719,0 -27.2505,-10.711 -29.5435,-25.25 L 0.222656,160.23 C -1.49609,149.34 6.92188,139.488 17.9492,139.488 H 120.73 c 14.719,0 27.25,10.711 29.543,25.254 l 23.493,148.906 c 2.289,14.543 14.82,25.25 29.539,25.25 h 68.121 c 141.789,0 223.625,68.622 245.012,204.633 9.628,59.481 0.386,106.219 -27.461,138.938 -30.618,35.972 -84.875,54.992 -156.891,54.992"/><path id="path18" fill="#253b7d" fill-opacity="1" fill-rule="nonzero" stroke="none" d="m 831.84,337.699 c -9.957,-58.898 -56.711,-98.437 -116.348,-98.437 -29.894,0 -53.828,9.617 -69.215,27.828 -15.25,18.051 -20.988,43.762 -16.152,72.398 9.281,58.371 56.785,99.184 115.516,99.184 29.269,0 53.039,-9.703 68.722,-28.082 15.793,-18.508 21.996,-44.399 17.477,-72.891 z M 975.492,538.332 H 872.418 c -8.836,0 -16.355,-6.422 -17.727,-15.152 l -4.535,-28.821 -7.207,10.442 c -22.324,32.41 -72.074,43.23 -121.754,43.23 -113.875,0 -211.16,-86.301 -230.093,-207.332 -9.856,-60.39 4.136,-118.09 38.371,-158.367 31.457,-37 76.347,-52.41 129.828,-52.41 91.789,0 142.703,58.969 142.703,58.969 l -4.602,-28.653 c -1.726,-10.886 6.692,-20.75 17.723,-20.75 h 92.828 c 14.715,0 27.246,10.703 29.539,25.242 l 55.727,352.872 c 1.722,10.886 -6.699,20.73 -17.727,20.73"/><path id="path20" fill="#459adb" fill-opacity="1" fill-rule="nonzero" stroke="none" d="m 2367.2,337.699 c -9.95,-58.898 -56.71,-98.437 -116.34,-98.437 -29.9,0 -53.83,9.617 -69.22,27.828 -15.25,18.051 -20.99,43.762 -16.15,72.398 9.28,58.371 56.79,99.184 115.52,99.184 29.27,0 53.03,-9.703 68.72,-28.082 15.79,-18.508 21.99,-44.399 17.47,-72.891 z m 143.66,200.633 h -103.08 c -8.83,0 -16.35,-6.422 -17.72,-15.152 l -4.54,-28.821 -7.2,10.442 c -22.33,32.41 -72.08,43.23 -121.76,43.23 -113.88,0 -211.16,-86.301 -230.1,-207.332 -9.85,-60.39 4.14,-118.09 38.38,-158.367 31.45,-37 76.34,-52.41 129.82,-52.41 91.79,0 142.71,58.969 142.71,58.969 l -4.61,-28.653 c -1.72,-10.886 6.7,-20.75 17.73,-20.75 h 92.83 c 14.71,0 27.24,10.703 29.54,25.242 l 55.72,352.872 c 1.72,10.886 -6.7,20.73 -17.72,20.73"/><path id="path22" fill="#253b7d" fill-opacity="1" fill-rule="nonzero" stroke="none" d="m 1524.5,538.332 h -103.61 c -9.91,0 -19.18,-4.922 -24.74,-13.113 L 1253.23,314.73 1192.66,517 c -3.79,12.648 -15.44,21.332 -28.65,21.332 h -101.85 c -12.3,0 -20.95,-12.102 -16.99,-23.742 L 1159.26,179.73 1051.95,28.3203 C 1043.53,16.4414 1052.03,0 1066.59,0 h 103.51 c 9.81,0 19,4.80859 24.58,12.8711 L 1539.25,510.16 c 8.24,11.899 -0.27,28.172 -14.75,28.172"/><path id="path24" fill="#459adb" fill-opacity="1" fill-rule="nonzero" stroke="none" d="M 2632.35,722.301 2544,160.219 c -1.71,-10.887 6.71,-20.731 17.73,-20.731 h 88.85 c 14.72,0 27.25,10.711 29.54,25.254 l 87.12,551.969 c 1.72,10.898 -6.7,20.75 -17.73,20.75 h -99.43 c -8.84,0 -16.36,-6.43 -17.73,-15.16"/><path id="path26" fill="#459adb" fill-opacity="1" fill-rule="nonzero" stroke="none" d="m 2054.92,2285.47 c 21.79,138.94 -0.15,233.48 -75.3,319.11 -82.74,94.28 -232.21,134.67 -423.45,134.67 h -555.12 c -39.089,0 -72.366,-28.44 -78.456,-67.05 L 691.438,1206.4 c -4.563,-28.92 17.792,-55.07 47.07,-55.07 h 342.702 l -23.65,-150 c -3.99,-25.299 15.56,-48.182 41.18,-48.182 h 288.86 c 34.19,0 63.3,24.883 68.63,58.652 l 2.83,14.68 54.42,345.07 3.51,19.07 c 5.32,33.77 34.43,58.65 68.62,58.65 h 43.22 c 279.84,0 498.96,113.7 562.99,442.5 26.75,137.39 12.92,252.08 -57.83,332.7 -21.4,24.39 -48.02,44.55 -79.07,61 v 0"/><path id="path28" fill="#232d62" fill-opacity="1" fill-rule="nonzero" stroke="none" d="m 2054.92,2285.47 c 21.79,138.94 -0.15,233.48 -75.3,319.11 -82.74,94.28 -232.21,134.67 -423.45,134.67 h -555.12 c -39.089,0 -72.366,-28.44 -78.456,-67.05 L 691.438,1206.4 c -4.563,-28.92 17.792,-55.07 47.07,-55.07 h 342.702 l 86.09,545.88 -2.67,-17.11 c 6.09,38.6 39.09,67.04 78.17,67.04 h 162.88 c 319.89,0 570.37,129.96 643.56,505.82 2.17,11.13 4.02,21.91 5.68,32.51"/><path id="path30" fill="#253b7d" fill-opacity="1" fill-rule="nonzero" stroke="none" d="m 1259.78,2283.63 c 3.66,23.22 18.56,42.23 38.63,51.85 9.12,4.37 19.31,6.8 30,6.8 h 435.14 c 51.55,0 99.61,-3.37 143.56,-10.45 12.56,-2.03 24.78,-4.35 36.65,-6.98 11.87,-2.64 23.39,-5.58 34.55,-8.85 5.58,-1.62 11.06,-3.33 16.46,-5.12 21.57,-7.17 41.66,-15.62 60.15,-25.41 21.79,138.94 -0.15,233.48 -75.3,319.11 -82.74,94.28 -232.21,134.67 -423.45,134.67 h -555.12 c -39.089,0 -72.366,-28.44 -78.456,-67.05 L 691.438,1206.4 c -4.563,-28.92 17.792,-55.07 47.07,-55.07 h 342.702 l 86.09,545.88 92.48,586.42"/></g></g></svg>