<svg xmlns="http://www.w3.org/2000/svg" width="250" height="105" fill="none"><path fill="#303035" d="M194.476 81.532V66.311h-11.573v15.221h-5.625V48.79h5.625v12.238h11.573V48.79h5.947v32.742h-5.947zM217.319 48.79a9.754 9.754 0 0 1 9.672 5.788 9.778 9.778 0 0 1 .832 3.89 8.89 8.89 0 0 1-4.476 7.802l7.076 15.242h-6.209l-6.27-13.891h-4.234v13.891h-5.625V48.79h9.234zm-3.609 13.226h3.669c3.085 0 4.234-2.016 4.234-3.569a4.03 4.03 0 0 0-4.234-4.032h-3.669v7.601z"/><path fill="#432DF3" d="M31.129 48.79h-6.613v32.742h6.613V48.79zM27.722 35.383a4.032 4.032 0 1 0 0 8.064 4.032 4.032 0 0 0 0-8.064zM54.435 48.085a10.342 10.342 0 0 0-8.669 6.048l-.201-5.343h-6.17v32.742h6.492V65.081c0-4.476 3.528-10.908 8.609-10.908 2.016 0 3.79 1.533 4.133 5.545v21.814h6.613V58.77a10.361 10.361 0 0 0-10.807-10.685zM83.407 76.008c-2.016 0-3.024-3.004-3.024-4.94v-16.33h8.327V48.79h-8.266v-7.943h-6.331v7.943h-4.294v5.948h4.294v16.391c0 5.08 2.742 11.028 9.415 11.028a13.73 13.73 0 0 0 8.065-2.943l-3.065-5.807a9.053 9.053 0 0 1-5.12 2.601zM107.419 48.085c-7.338 0-14.899 5.746-14.899 17.036 0 10.766 7.621 17.036 15.504 17.036a15.484 15.484 0 0 0 12.762-6.955l-4.879-4.396a9.61 9.61 0 0 1-8.064 5.101 9.255 9.255 0 0 1-8.488-9.254h21.976c.115-.943.182-1.892.201-2.843-.02-10.423-7.036-15.725-14.113-15.725zm-7.822 12.943a8.283 8.283 0 0 1 7.701-6.895 7.443 7.443 0 0 1 7.077 6.895H99.597zM149.194 21.673h-6.633v59.86h6.633V37.176c.988.323 1.754.646 2.641.968l2.016-5.423c-1.573-.585-3.044-1.15-4.698-1.674l.041-9.375zM164.052 48.79h-6.613v32.742h6.613V48.79zM160.686 43.407a4.033 4.033 0 1 0 0-8.066 4.033 4.033 0 0 0 0 8.066z"/><path fill="#432DF3" d="M134.294 26.915v-5.242h-6.613v4.033a190.785 190.785 0 0 0-54.818-1.09 194.078 194.078 0 0 0-37.923 8.066l1.875 5.463c.524-.161 44.233-15.12 90.866-6.613v50h6.613v-48.67c1.311.323 2.964.666 4.295 1.009v-6.048c-1.331-.283-2.984-.605-4.295-.908z"/></svg>