<svg xmlns="http://www.w3.org/2000/svg" xmlns:xlink="http://www.w3.org/1999/xlink" width="180" height="41" x="0" y="0" enable-background="new 0 0 180 41" version="1.1" viewBox="0 0 180 41" xml:space="preserve"><g id="Layer_2"><g><g><path fill="#5FCF80" d="M39.969,15.419c-0.384-0.577-0.928-0.912-1.604-1c-0.317-0.039-0.648-0.093-0.961-0.143 c-0.401-0.061-0.813-0.126-1.219-0.17c-1.083-0.11-1.747-0.561-2.148-1.445c-0.275-0.604-0.308-1.143-0.1-1.675l0.155-0.401 c0.268-0.697,0.548-1.423,0.845-2.126c0.286-0.681,0.264-1.351-0.065-1.999c-0.604-1.187-1.554-2.011-2.817-2.445 c-0.715-0.247-1.424-0.154-2.066,0.269c-0.307,0.198-0.626,0.39-0.938,0.577c-0.435,0.264-0.885,0.538-1.308,0.835 c-0.296,0.208-0.67,0.318-1.077,0.318l0,0c-1.016,0-2-0.67-2.241-1.521c-0.126-0.456-0.28-0.906-0.429-1.34 c-0.131-0.368-0.258-0.752-0.374-1.126c-0.236-0.796-0.758-1.346-1.554-1.637c-0.23-0.082-0.467-0.148-0.698-0.203 c-0.093-0.027-0.197-0.055-0.291-0.083l-0.049-0.011h-1.313l-0.05,0.017c-0.027,0.006-0.049,0.017-0.076,0.027 c-0.033,0.011-0.067,0.022-0.104,0.028c-1.34,0.242-2.142,0.923-2.44,2.098c-0.131,0.517-0.317,1.038-0.493,1.538 c-0.094,0.27-0.188,0.539-0.275,0.808c-0.264,0.802-1.214,1.434-2.165,1.434c-0.378,0-0.736-0.104-1.026-0.308 c-0.533-0.363-1.087-0.703-1.626-1.027c-0.258-0.159-0.516-0.313-0.769-0.472c-0.5-0.313-1.049-0.407-1.592-0.269 C7.625,4.328,6.544,5.229,5.879,6.641C5.616,7.207,5.604,7.827,5.857,8.442c0.115,0.28,0.225,0.561,0.335,0.846 c0.165,0.434,0.335,0.879,0.527,1.313c0.395,0.89,0.352,1.676-0.149,2.461c-0.34,0.539-0.785,0.857-1.362,0.967 c-0.83,0.16-1.719,0.297-2.647,0.407c-0.786,0.088-1.396,0.478-1.818,1.159c-0.571,0.923-0.813,1.972-0.726,3.109 c0.083,1.066,0.594,1.829,1.517,2.269c0.335,0.16,0.664,0.352,0.989,0.533c0.356,0.203,0.72,0.412,1.104,0.593 c0.55,0.252,0.961,0.835,1.093,1.543c0.137,0.737-0.049,1.484-0.495,1.939c-0.621,0.648-1.23,1.346-1.807,2.071 c-0.264,0.324-0.451,0.731-0.523,1.121c-0.268,1.532,1.017,3.801,2.457,4.339c0.356,0.132,0.807,0.17,1.219,0.109 c0.774-0.121,1.577-0.28,2.45-0.494c0.896-0.22,1.588-0.034,2.252,0.621c0.499,0.494,0.725,1.027,0.708,1.691 c-0.021,0.852-0.043,1.764-0.082,2.687c-0.033,0.697,0.209,1.302,0.709,1.791c0.797,0.78,1.797,1.242,2.982,1.368 c0.133,0.017,0.258,0.022,0.385,0.022c0.901,0,1.631-0.385,2.154-1.143c0.208-0.292,0.434-0.566,0.675-0.857 c0.248-0.302,0.5-0.609,0.731-0.939c0.378-0.56,1.076-0.895,1.856-0.895c0.764,0,1.456,0.33,1.846,0.874 c0.319,0.45,0.67,0.884,1.006,1.302c0.208,0.253,0.417,0.511,0.615,0.774c0.384,0.5,0.906,0.791,1.494,0.846 c1.428,0.132,2.708-0.308,3.795-1.302c0.521-0.478,0.769-1.093,0.73-1.834c-0.021-0.324-0.027-0.665-0.033-0.989 c-0.01-0.429-0.022-0.868-0.055-1.302c-0.076-1.022,0.243-1.758,0.995-2.313c0.499-0.363,0.988-0.495,1.521-0.407 c0.961,0.159,1.819,0.335,2.626,0.539c0.834,0.203,1.604,0.011,2.273-0.583c0.841-0.736,1.39-1.675,1.626-2.785 c0.198-0.928-0.022-1.73-0.654-2.384c-0.248-0.258-0.489-0.538-0.72-0.807c-0.231-0.274-0.472-0.555-0.726-0.819 c-0.691-0.713-0.883-1.45-0.625-2.383c0.176-0.654,0.499-1.093,1.005-1.379c0.829-0.473,1.603-0.896,2.373-1.296 c0.615-0.324,1.01-0.824,1.169-1.488C40.997,17.94,40.766,16.622,39.969,15.419z"/><path fill="#FFF" d="M27.182,15.271l-0.627-1.318c-0.104-0.214-0.291-0.384-0.516-0.461c-0.225-0.083-0.472-0.072-0.692,0.033 l-4.636,2.219l0.006-0.082l0.06-1.45c-0.011-0.066,0.016-0.324,0.016-0.363c0.006-0.774,0.049-0.719,0.116-2.192 c0.004-0.115-0.044-0.23-0.137-0.308c-0.088-0.077-0.21-0.098-0.325-0.071c-0.642,0.159-1.439,0.329-2.367,0.505 c-0.176,0.033-0.292,0.181-0.308,0.352c-0.11,1.357-0.094,1.039-0.147,1.675l-0.149,1.808c0,0,0,0.005,0,0.011l-0.094,1.708 l-1.96,0.939l-0.752-1.587c-0.1-0.214-0.286-0.379-0.511-0.462c-0.225-0.082-0.472-0.071-0.692,0.034l-1.318,0.625 c-0.45,0.214-0.642,0.753-0.428,1.203l1.763,3.725c0.104,0.214,0.286,0.384,0.511,0.461c0.1,0.039,0.204,0.055,0.302,0.055 c0.137,0,0.27-0.027,0.39-0.088l2.494-1.192l-0.072,1.318c-0.094,1.698-0.143,2.659-0.153,2.944 c-0.012,0.281-0.017,0.483-0.017,0.605c0,0.912,0.164,1.659,0.489,2.213c0.335,0.565,0.818,0.983,1.439,1.236 c0.588,0.248,1.362,0.368,2.302,0.368c0.368,0,0.769-0.022,1.181-0.061c0.417-0.044,0.978-0.148,1.675-0.308 c0.148-0.039,0.264-0.159,0.286-0.308c0.055-0.363,0.116-0.813,0.166-1.247c0.065-0.527,0.131-1.071,0.192-1.33 c0.033-0.143-0.022-0.292-0.137-0.379c-0.116-0.088-0.27-0.104-0.4-0.038c-0.676,0.341-1.055,0.478-1.67,0.593 c-0.215,0.044-0.402,0.044-0.605,0.044h-0.098c-0.286,0-0.666-0.093-0.973-0.242c-0.28-0.138-0.346-0.187-0.396-0.417 c-0.088-0.434-0.088-0.527-0.088-1.043v-0.225l0.017-0.638l0.22-4.691l6.218-2.972C27.204,16.26,27.396,15.721,27.182,15.271z"/></g><g><path fill="#4C4C4C" d="M49.594,32.602c-0.934,0-1.649-0.28-2.148-0.835c-0.5-0.555-0.752-1.274-0.752-2.165 c0-0.396,0.054-0.884,0.164-1.467l1.758-10.107h-2.702l0.456-2.477h2.675l1.039-5.806l2.939-1.077l-1.209,6.883h3.912 l-0.423,2.477h-3.912l-1.697,9.487c-0.088,0.648-0.127,1.065-0.127,1.236c0,0.874,0.434,1.307,1.302,1.307 c0.736,0,1.588-0.274,2.543-0.818l-0.72,2.675C51.802,32.371,50.769,32.602,49.594,32.602z"/><path fill="#4C4C4C" d="M62.898,32.602c-1.874,0-3.356-0.654-4.466-1.956c-1.11-1.307-1.666-2.988-1.666-5.053 c0-2.934,0.797-5.411,2.396-7.421c1.599-2.005,3.636-3.016,6.114-3.016c1.802,0,3.225,0.522,4.257,1.565 c1.028,1.043,1.543,2.62,1.543,4.729c0,1.066-0.203,2.235-0.615,3.521h-10.86v0.423c0,1.478,0.319,2.631,0.95,3.455 c0.626,0.829,1.517,1.242,2.67,1.242c1.308,0,2.577-0.478,3.818-1.434l1.302,1.956C66.688,31.937,64.875,32.602,62.898,32.602z M59.998,22.56h8.246c0.109-0.632,0.153-1.11,0.131-1.434c-0.022-1.242-0.341-2.132-0.961-2.675 c-0.621-0.544-1.385-0.813-2.301-0.813c-1.369,0-2.483,0.467-3.34,1.4C60.914,19.973,60.321,21.148,59.998,22.56z"/><path fill="#4C4C4C" d="M78.185,32.602c-1.258,0-2.385-0.269-3.373-0.802c-0.989-0.533-1.758-1.242-2.297-2.137l2.05-1.626 c0.961,1.434,2.219,2.148,3.784,2.148c0.934,0,1.708-0.215,2.33-0.648c0.621-0.434,0.928-1.055,0.928-1.862 c0-0.583-0.247-1.099-0.747-1.544c-0.5-0.445-1.109-0.835-1.824-1.159c-0.72-0.324-1.439-0.687-2.153-1.076 c-0.72-0.39-1.329-0.923-1.83-1.599c-0.5-0.67-0.748-1.467-0.748-2.379c0-1.456,0.545-2.614,1.632-3.472 c1.088-0.856,2.466-1.291,4.136-1.291c2.5,0,4.296,0.862,5.384,2.576l-1.989,1.5c-0.934-1.125-2.12-1.692-3.554-1.692 c-0.873,0-1.582,0.204-2.137,0.615c-0.555,0.417-0.83,0.962-0.83,1.631c0,0.522,0.253,0.983,0.764,1.385 c0.511,0.406,1.126,0.769,1.846,1.093c0.714,0.33,1.439,0.692,2.165,1.093c0.73,0.401,1.345,0.961,1.856,1.681 c0.511,0.713,0.769,1.576,0.769,2.576c0,1.521-0.56,2.73-1.681,3.63C81.547,32.151,80.053,32.602,78.185,32.602z"/><path fill="#4C4C4C" d="M91.714,32.602c-0.934,0-1.653-0.28-2.153-0.835c-0.5-0.555-0.748-1.274-0.748-2.165 c0-0.396,0.055-0.884,0.166-1.467l1.758-10.107h-2.704l0.456-2.477h2.671l1.043-5.806l2.933-1.077l-1.202,6.883h3.911 l-0.423,2.477h-3.911l-1.698,9.487c-0.088,0.648-0.131,1.065-0.131,1.236c0,0.874,0.434,1.307,1.307,1.307 c0.737,0,1.582-0.274,2.544-0.818l-0.719,2.675C93.922,32.371,92.89,32.602,91.714,32.602z"/><path fill="#4C4C4C" d="M104.068,32.602c-1.257,0-2.384-0.269-3.373-0.802c-0.989-0.533-1.752-1.242-2.296-2.137l2.054-1.626 c0.955,1.434,2.214,2.148,3.779,2.148c0.934,0,1.713-0.215,2.334-0.648c0.615-0.434,0.928-1.055,0.928-1.862 c0-0.583-0.253-1.099-0.752-1.544c-0.5-0.445-1.11-0.835-1.823-1.159c-0.72-0.324-1.435-0.687-2.154-1.076 c-0.714-0.39-1.324-0.923-1.824-1.599c-0.5-0.67-0.752-1.467-0.752-2.379c0-1.456,0.544-2.614,1.631-3.472 c1.087-0.856,2.467-1.291,4.142-1.291c2.5,0,4.29,0.862,5.377,2.576l-1.988,1.5c-0.933-1.125-2.12-1.692-3.553-1.692 c-0.869,0-1.582,0.204-2.138,0.615c-0.554,0.417-0.83,0.962-0.83,1.631c0,0.522,0.253,0.983,0.764,1.385 c0.511,0.406,1.126,0.769,1.846,1.093c0.713,0.33,1.439,0.692,2.165,1.093c0.73,0.401,1.351,0.961,1.862,1.681 c0.511,0.713,0.763,1.576,0.763,2.576c0,1.521-0.561,2.73-1.675,3.63C107.437,32.151,105.942,32.602,104.068,32.602z"/><path fill="#4C4C4C" d="M113.622,32.206l2.933-16.655h2.741l-2.934,16.655H113.622z M118.482,12.485 c-0.417,0-0.764-0.143-1.044-0.423c-0.285-0.285-0.423-0.632-0.423-1.043c0-0.566,0.198-1.049,0.599-1.45 c0.406-0.407,0.857-0.604,1.357-0.604c0.456,0,0.819,0.142,1.087,0.423c0.275,0.28,0.413,0.632,0.413,1.043 c0,0.565-0.204,1.049-0.605,1.45C119.466,12.282,119.004,12.485,118.482,12.485z"/><path fill="#4C4C4C" d="M124.349,36.836c1.588-0.088,2.878-0.335,3.879-0.747c1-0.417,1.713-0.9,2.137-1.45 c0.423-0.555,0.719-1.236,0.895-2.038l0.325-1.895c-1.089,1.263-2.511,1.895-4.269,1.895c-1.675,0-2.999-0.638-3.976-1.912 c-0.979-1.269-1.467-2.917-1.467-4.938c0-3.103,0.758-5.646,2.279-7.624c1.522-1.978,3.466-2.972,5.839-2.972 c1.692,0,3.027,0.621,4.01,1.862l0.258-1.466h2.741l-2.972,16.622c-0.235,1.352-0.615,2.483-1.137,3.395 c-0.521,0.912-1.192,1.604-2.005,2.088c-0.818,0.478-1.658,0.813-2.527,1.011c-0.868,0.192-1.911,0.324-3.131,0.39 L124.349,36.836z M128.095,30.025c0.808,0,1.572-0.231,2.302-0.687c0.725-0.456,1.308-1.033,1.741-1.725l1.341-7.663 c-0.243-0.61-0.665-1.138-1.275-1.582c-0.609-0.445-1.323-0.67-2.153-0.67c-1.67,0-2.994,0.752-3.961,2.252 c-0.967,1.499-1.45,3.323-1.45,5.476c0,1.412,0.313,2.532,0.928,3.356C126.188,29.613,127.03,30.025,128.095,30.025z"/><path fill="#4C4C4C" d="M139.313,32.206l2.933-16.655h2.708l-0.297,1.598c1.219-1.329,2.697-1.994,4.432-1.994 c0.917,0,1.714,0.226,2.401,0.67c0.681,0.445,1.175,1.06,1.483,1.841c1.389-1.67,3.114-2.511,5.18-2.511 c1.345,0,2.472,0.423,3.373,1.258c0.906,0.835,1.357,2.005,1.357,3.504c0,0.478-0.045,0.934-0.133,1.368l-1.922,10.92h-2.808 l1.829-10.267c0.066-0.456,0.1-0.89,0.1-1.302c0-0.983-0.23-1.714-0.687-2.203s-1.077-0.736-1.857-0.736 c-0.934,0-1.801,0.379-2.592,1.126c-0.797,0.752-1.302,1.78-1.516,3.082l-1.824,10.3h-2.807l1.795-10.267 c0.083-0.412,0.126-0.846,0.126-1.302c0-0.983-0.225-1.714-0.681-2.203c-0.456-0.489-1.087-0.736-1.895-0.736 c-0.956,0-1.829,0.379-2.62,1.126c-0.797,0.752-1.302,1.78-1.517,3.082l-1.829,10.3H139.313z"/><path fill="#4C4C4C" d="M175.303,32.206l0.225-1.368c-1.302,1.175-2.868,1.763-4.691,1.763c-1.478,0-2.664-0.439-3.554-1.324 c-0.889-0.879-1.334-2.049-1.334-3.505c0-2.065,0.676-3.625,2.038-4.691c1.357-1.066,3-1.598,4.938-1.598 c1.544,0,2.89,0.39,4.043,1.175l0.226-1.274c0.109-0.544,0.164-0.978,0.164-1.301c0-0.896-0.252-1.533-0.752-1.929 c-0.5-0.39-1.126-0.582-1.89-0.582c-1.697,0-3.455,0.582-5.278,1.758l-0.363-2.313c2.044-1.241,4.022-1.862,5.939-1.862 c1.302,0,2.461,0.362,3.471,1.077c1.012,0.72,1.517,1.895,1.517,3.521c0,0.412-0.055,0.967-0.165,1.665l-1.889,10.789H175.303z M171.425,30.185c1.67,0,3.213-0.726,4.625-2.181l0.489-2.9c-1.148-0.829-2.369-1.242-3.648-1.242 c-1.219,0-2.241,0.308-3.064,0.913c-0.83,0.609-1.242,1.521-1.242,2.741c0,0.78,0.247,1.423,0.736,1.923 C169.811,29.937,170.508,30.185,171.425,30.185z"/></g></g></g></svg>