<svg xmlns="http://www.w3.org/2000/svg" xmlns:xlink="http://www.w3.org/1999/xlink" width="160" height="32" version="1.1" viewBox="0 0 160 32"><title>Logo /TravelPerk</title><desc>Created with Sketch.</desc><g id="Symbols" fill="none" fill-rule="evenodd" stroke="none" stroke-width="1"><g id="Logo-/TravelPerk"><g id="logo"><g id="Group" fill="#1396E4"><path id="Shape" d="M17.9991031,24.4912208 C16.1348482,25.3342338 14.1401252,25.7616623 12.0700017,25.7616623 C9.99691305,25.7616623 7.99964843,25.332987 6.13348739,24.4878961 C5.60398988,24.2478961 4.97642943,24.4748052 4.73201338,24.9944935 C4.48738553,25.513974 4.71867004,26.1294545 5.24816755,26.3694545 C7.39390328,27.3410909 9.6891691,27.8337662 12.0700017,27.8337662 C14.4474455,27.8337662 16.7397462,27.3425455 18.8831521,26.3731948 C19.4128614,26.1338182 19.6443577,25.5181299 19.4003653,24.9984416 C19.156161,24.4787532 18.5288124,24.2518442 17.9991031,24.4912208 Z"/><path id="Shape" d="M24.1400034,11.8416623 C24.1400034,5.30181818 18.7361636,0 12.0700017,0 C5.40405162,0 0,5.30161039 0,11.8416623 C0,18.3815065 5.40383982,23.6833247 12.0700017,23.6833247 C18.7359518,23.6833247 24.1400034,18.3817143 24.1400034,11.8416623 Z M12.0700017,21.611013 C6.57064054,21.611013 2.11248328,17.2371948 2.11227148,11.8416623 C2.11227148,6.44633766 6.57042874,2.07251948 12.0700017,2.07231169 C17.5695747,2.07251948 22.0277319,6.44633766 22.0277319,11.8416623 C22.0275202,17.2371948 17.5693629,21.611013 12.0700017,21.611013 Z"/><path id="Shape" d="M16.9110916,29.1563636 C15.3499211,29.6322078 13.7211868,29.8734545 12.0700017,29.8734545 C10.4086503,29.8734545 8.77080861,29.6295065 7.20158978,29.1480519 C6.64455839,28.9776623 6.05236838,29.2816623 5.87848139,29.8277403 C5.70438261,30.374026 6.01445635,30.9552208 6.57127594,31.126026 C8.34466901,31.670026 10.1947333,31.9457662 12.0700017,31.9457662 C13.9340448,31.9457662 15.7735191,31.6731429 17.537593,31.1353766 C18.0946244,30.9656104 18.405969,30.385039 18.2329292,29.8385455 C18.0598894,29.2920519 17.4676994,28.9872208 16.9110916,29.1563636 Z"/><path id="Shape" d="M15.7434437,17.1118961 L15.2058978,11.7695584 L15.206745,11.7691429 L15.1480767,11.1864935 C15.1480767,11.1864935 15.1470177,11.1858701 15.1470177,11.1856623 L15.1472295,11.1854545 C15.1472295,11.1854545 15.0631453,10.3505455 16.0509758,9.38161039 C16.4906706,8.95023377 18.0910238,7.14763636 17.4725707,6.54109091 C16.8541176,5.93433766 15.0169731,7.50441558 14.5772783,7.93579221 C13.5896596,8.90493506 12.7386512,8.82244156 12.7386512,8.82244156 L6.69814354,8.23750649 C6.69814354,8.23750649 6.35651175,8.20446753 6.11357829,8.4425974 C6.06634711,8.48893506 5.70374721,8.84467532 5.65545704,8.89205195 C5.41273538,9.13018182 5.7272569,9.26524675 5.7272569,9.26524675 L10.6198139,11.3629091 C10.6204493,11.3631169 10.9267107,11.4863377 10.5838081,11.8537143 C10.1441134,12.3686234 9.52502487,13.1283117 8.60009861,14.2668052 C8.46115846,14.3860779 8.25147745,14.5271688 7.99032927,14.5778701 C7.48052907,14.5099221 6.6011396,14.3954286 6.36201852,14.3833766 C6.33533185,14.3819221 6.30758618,14.3844156 6.27962871,14.3885714 C5.96913137,14.4187013 5.69442806,14.6846753 5.69442806,14.6846753 L5.54468616,14.8315844 C5.54468616,14.8315844 5.35173727,15.0208831 5.65333905,15.1815065 C5.73424627,15.2245195 6.72970159,15.7548052 7.24500857,16.0363636 C7.52437146,16.2017662 7.79462699,16.5755844 7.79462699,16.5755844 L7.79462699,16.5753766 C8.03734865,17.0042597 8.44103756,17.7309091 8.6657563,18.1367273 C8.82968873,18.4328312 9.02009604,18.246026 9.02009604,18.246026 L9.16983794,18.0991169 C9.16983794,18.0991169 9.44284685,17.8275325 9.47398131,17.5227013 C9.47821729,17.4950649 9.48075887,17.4678442 9.47927628,17.4416623 C9.4758875,17.376 9.3469019,16.3792208 9.27573744,15.8321039 C9.32085063,15.5941818 9.46974533,15.3878442 9.59364774,15.2509091 C10.7517647,14.3357922 11.5246193,13.7452468 12.0577174,13.2997403 C12.432178,12.9633247 12.5560804,13.2652468 12.556504,13.2658701 C13.0364406,14.342026 14.5800317,17.8040519 14.6960976,18.0644156 C14.8337669,18.372987 15.0764886,18.1348571 15.0764886,18.1348571 C15.0764886,18.1348571 15.4744589,17.7444156 15.5346098,17.6854026 C15.7773315,17.4472727 15.7434437,17.1118961 15.7434437,17.1118961 Z"/></g><g id="Group" fill="#454B56" transform="translate(37.520334, 7.962182)"><polygon id="Shape" points="0 2.818 5.721 2.818 5.721 17.289 8.425 17.289 8.425 2.818 14.122 2.818 14.122 .474 0 .474"/><polygon id="Shape" points="43.654 15.086 40.057 4.902 37.097 4.902 41.925 17.289 45.216 17.289 50.044 4.902 47.299 4.902"/><path id="Shape" d="M64.7664414,14.6597403 C64.7664414,15.5596883 65.0235654,16.2547532 65.5388724,16.7438961 C66.0027122,17.1848312 66.6313317,17.4252468 67.4217656,17.4688831 L67.4217656,13.6413506 L67.4217656,6.39937662 L67.4217656,0.473558442 L64.7664414,0.473558442 L64.7664414,14.6597403 Z"/><path id="Shape" d="M62.5336563,8.60883117 C62.4711756,8.44841558 62.4017055,8.29298701 62.3275759,8.14088312 C62.0454596,7.52477922 61.6758703,6.97288312 61.2154193,6.48748052 C60.6549991,5.89755844 59.9791485,5.42462338 59.1870202,5.06888312 C58.394892,4.71335065 57.5106311,4.53527273 56.5344495,4.53527273 C55.5421712,4.53527273 54.6460496,4.70919481 53.8460847,5.05662338 C53.0456963,5.40446753 52.3615855,5.88135065 51.7937524,6.48748052 C51.3201698,6.99283117 50.9370254,7.56654545 50.641354,8.20675325 C50.5695541,8.35324675 50.5013548,8.50223377 50.4395095,8.65620779 C50.1258352,9.43771429 49.9688921,10.2628571 49.9688921,11.131013 C49.9688921,11.9995844 50.1258352,12.8207792 50.4395095,13.5941818 C50.4943655,13.7292468 50.5545164,13.8603636 50.6172089,13.9898182 C50.9158455,14.6439481 51.3074618,15.2276364 51.7937524,15.7394286 C52.3615855,16.3376623 53.0456963,16.8105974 53.8460847,17.158026 C54.6460496,17.5054545 55.5343346,17.6793766 56.5105162,17.6793766 C57.8387078,17.6793766 59.0027551,17.3762078 60.0032936,16.7700779 C61.0029849,16.1637403 61.7195009,15.3838961 62.1515709,14.4297143 L62.1835526,14.352 L59.9145498,13.7124156 C59.7855642,13.9966753 59.6085003,14.2572468 59.3833579,14.4941299 C59.157792,14.7308052 58.900668,14.9321558 58.6109269,15.097974 C58.3211859,15.2637922 58.0032756,15.3903377 57.6574078,15.476987 C57.3111164,15.5638442 56.9610127,15.6070649 56.6073084,15.6070649 C56.1246184,15.6070649 55.6616258,15.5206234 55.2193895,15.3467013 C54.7765177,15.1731948 54.3823598,14.9244675 54.036492,14.6005195 C53.6902007,14.2771948 53.4087198,13.8942338 53.1916258,13.4520519 C52.97432,13.0100779 52.841522,12.5128312 52.7932319,11.9598961 L62.0812536,11.9598961 L62.9076934,11.9598961 C62.9237901,11.8497662 62.9398868,11.7113766 62.9561953,11.5455584 C62.9718685,11.3797403 62.9803404,11.2020779 62.9803404,11.0125714 C62.9803404,10.176 62.8312339,9.37475325 62.5336563,8.60883117 M53.9278391,7.59044156 C54.2658703,7.28249351 54.6557923,7.04207792 55.098664,6.86815584 C55.5411122,6.69444156 56.0117295,6.60758442 56.510728,6.60758442 C57.0095147,6.60758442 57.484368,6.69444156 57.9350763,6.86815584 C58.385361,7.04207792 58.7799425,7.28249351 59.1179738,7.59044156 C59.4557932,7.89838961 59.7334617,8.27345455 59.9505557,8.71542857 C60.1407512,9.10233766 60.2661362,9.51937662 60.3269225,9.96654545 L52.7426119,9.96654545 C52.802551,9.51937662 52.9239119,9.10233766 53.107118,8.71542857 C53.3159518,8.27345455 53.5898079,7.89838961 53.9278391,7.59044156"/><path id="Shape" d="M14.8699846,4.88311688 L17.5221317,4.88311688 L17.5221317,5.88924675 C18.0092694,5.38805195 18.4415512,5.04498701 18.8185534,4.86005195 C19.203604,4.66742857 19.6593955,4.57080519 20.1859278,4.57080519 C20.8852881,4.57080519 21.6159947,4.7945974 22.3782593,5.24155844 L21.1642274,7.62368831 C20.6612048,7.26919481 20.1700429,7.09194805 19.6909535,7.09194805 C18.2450017,7.09194805 17.5221317,8.16353247 17.5221317,10.3067013 L17.5221317,17.2887273 L14.8699846,17.2887273 L14.8699846,4.88311688 L14.8699846,4.88311688 Z"/><path id="Shape" d="M32.4357469,5.04851948 L35.2988458,5.04851948 L35.2988458,17.1538701 L32.4357469,17.1538701 L32.4357469,15.8861299 C31.2619568,16.9633247 29.9992111,17.5019221 28.6481453,17.5019221 C26.9421043,17.5019221 25.5317347,16.897039 24.4168247,15.6872727 C23.3103867,14.4527792 22.7573795,12.9115844 22.7573795,11.0638961 C22.7573795,9.24945455 23.3103867,7.73735065 24.4168247,6.52758442 C25.5232627,5.31781818 26.9082164,4.71293506 28.5721094,4.71293506 C30.0076831,4.71293506 31.2956328,5.29309091 32.4357469,6.45298701 L32.4357469,5.04851948 L32.4357469,5.04851948 Z M25.4726428,11.0603636 C25.4726428,12.2944416 25.8030492,13.2993247 26.4638621,14.0748052 C27.1420425,14.8594286 27.9966515,15.2515325 29.0274773,15.2515325 C30.1288321,15.2515325 31.0185997,14.8727273 31.6969919,14.1144935 C32.3753842,13.3300779 32.7146862,12.3341299 32.7146862,11.1264416 C32.7146862,9.91896104 32.3753842,8.92301299 31.6969919,8.13838961 C31.0185997,7.37163636 30.1375159,6.98805195 29.0539522,6.98805195 C28.0318102,6.98805195 27.177413,7.376 26.4901252,8.15168831 C25.811733,8.9361039 25.4726428,9.90566234 25.4726428,11.0603636 L25.4726428,11.0603636 Z"/><path id="Shape" d="M83.2090516,2.19054545 C82.7420348,1.67771429 82.1830972,1.26337662 81.5311799,0.947324675 C80.8794744,0.631688312 80.1674061,0.473558442 79.3947633,0.473558442 L73.0579489,0.473558442 L72.2012219,0.473558442 L72.2012219,17.2885195 L74.9048362,17.2885195 L74.9048362,11.438961 L79.5396339,11.438961 C80.3120648,11.438961 81.0158729,11.284987 81.6519053,10.977039 C82.2875141,10.6692987 82.8305668,10.2587013 83.2812751,9.74545455 C83.7317716,9.23262338 84.0818753,8.64831169 84.3313745,7.99293506 C84.580662,7.33797403 84.7056234,6.65496104 84.7056234,5.94451948 C84.7056234,5.26566234 84.5728254,4.59844156 84.3072295,3.94306494 C84.0416335,3.2881039 83.675433,2.70379221 83.2090516,2.19054545 M81.7605582,7.19958442 C81.6315726,7.5785974 81.4547205,7.91002597 81.2293663,8.19428571 C81.0040122,8.47854545 80.7346038,8.69984416 80.4207177,8.85735065 C80.1070434,9.01548052 79.7569396,9.09423377 79.37083,9.09423377 L74.9048362,9.09423377 L74.9048362,2.81828571 L79.2259595,2.81828571 C79.5796639,2.81828571 79.9217193,2.8932987 80.2519139,3.04332468 C80.5814732,3.19355844 80.8752384,3.40654545 81.132786,3.6827013 C81.3901218,3.95906494 81.5915426,4.28654545 81.7364131,4.66555844 C81.8812837,5.04436364 81.9537189,5.47075325 81.9537189,5.94451948 C81.9537189,6.40249351 81.8891202,6.82077922 81.7605582,7.19958442"/><path id="Shape" d="M104.634215,4.85984416 C104.257001,5.04477922 103.82472,5.38805195 103.337582,5.88903896 L103.337582,4.88290909 L100.685647,4.88290909 L100.685647,17.2885195 L103.337582,17.2885195 L103.337582,10.3064935 C103.337582,8.16332468 104.060452,7.09174026 105.506404,7.09174026 C105.985705,7.09174026 106.476867,7.26919481 106.979889,7.62368831 L108.193921,5.24155844 C107.431657,4.79438961 106.700738,4.57080519 106.00159,4.57080519 C105.475057,4.57080519 105.019054,4.66722078 104.634215,4.85984416"/><polygon id="Shape" points="121.059 4.926 117.681 4.926 112.369 10.44 112.369 10.255 112.369 0 109.714 0 109.714 17.289 112.369 17.289 112.369 13.523 114.469 11.581 118.5 17.289 121.349 17.289 116.183 10.113"/><path id="Shape" d="M97.9087498,8.14088312 C97.6266335,7.52457143 97.2570442,6.97288312 96.7965932,6.48748052 C96.236173,5.89755844 95.5605342,5.42462338 94.7684059,5.06867532 C93.9760659,4.71335065 93.091805,4.53527273 92.1158352,4.53527273 C91.1233451,4.53527273 90.2274353,4.70919481 89.4274704,5.05662338 C88.627082,5.40446753 87.9429712,5.88114286 87.3749263,6.48748052 C86.9013437,6.99283117 86.5181993,7.56654545 86.2227397,8.20654545 C86.1509398,8.35303896 86.0827405,8.50223377 86.0208952,8.65620779 C85.7070091,9.43771429 85.550066,10.2628571 85.550066,11.131013 C85.550066,11.9995844 85.7070091,12.8205714 86.0208952,13.593974 C86.0757512,13.7292468 86.1359021,13.8603636 86.1985946,13.9898182 C86.4972312,14.6439481 86.8888475,15.2276364 87.3749263,15.7392208 C87.9429712,16.3376623 88.627082,16.8105974 89.4274704,17.158026 C90.2274353,17.5054545 91.1155085,17.6793766 92.0919019,17.6793766 C93.4200935,17.6793766 94.5841408,17.3762078 95.5844675,16.7698701 C96.5843706,16.1637403 97.3006748,15.3838961 97.7327448,14.4297143 L97.7649383,14.352 L95.4957237,13.7124156 C95.3667381,13.9966753 95.189886,14.2572468 94.9647436,14.4939221 C94.7391777,14.7308052 94.4820537,14.9321558 94.1923126,15.097974 C93.9025716,15.2637922 93.5846613,15.3903377 93.2385817,15.4767792 C92.8925021,15.5638442 92.5423984,15.6070649 92.188694,15.6070649 C91.7057923,15.6070649 91.2430115,15.5206234 90.8005634,15.3467013 C90.3576916,15.172987 89.9635337,14.9242597 89.6176659,14.6005195 C89.2715863,14.2771948 88.9901055,13.8942338 88.7727997,13.4520519 C88.5554939,13.0100779 88.4229077,12.5128312 88.3744058,11.9598961 L97.6624275,11.9598961 L98.4890791,11.9598961 C98.504964,11.8495584 98.5210607,11.7111688 98.5373692,11.5455584 C98.5532542,11.3797403 98.5615143,11.2020779 98.5615143,11.0125714 C98.5615143,10.176 98.4126196,9.37475325 98.115042,8.60883117 C98.0525613,8.44841558 97.9828794,8.29298701 97.9087498,8.14088312 L97.9087498,8.14088312 Z M88.3239976,9.96654545 C88.3837249,9.51937662 88.5050857,9.10233766 88.6882919,8.71542857 C88.8973375,8.27345455 89.1711936,7.89818182 89.5092248,7.59044156 C89.8470442,7.28249351 90.237178,7.04187013 90.6798379,6.86794805 C91.1222861,6.69444156 91.5931152,6.60758442 92.0921137,6.60758442 C92.5906886,6.60758442 93.0655419,6.69444156 93.516462,6.86794805 C93.9665349,7.04187013 94.3613282,7.28249351 94.6991477,7.59044156 C95.0371789,7.89818182 95.3146356,8.27345455 95.5319413,8.71542857 C95.7221369,9.10233766 95.8475219,9.51937662 95.9083082,9.96654545 L88.3239976,9.96654545 Z"/></g></g></g></g></svg>