<svg id="svg" version="1.1" xmlns="http://www.w3.org/2000/svg" xmlns:xlink="http://www.w3.org/1999/xlink" width="400" height="133.33333333333334" viewBox="0, 0, 400,133.33333333333334"><g id="svgg"><path id="path0" d="M35.703 43.197 C 35.591 43.309,35.500 43.488,35.500 43.595 C 35.500 43.722,35.023 43.818,34.139 43.869 C 33.003 43.935,32.730 44.007,32.488 44.307 C 32.236 44.618,32.026 44.667,30.932 44.667 C 29.693 44.667,29.667 44.675,29.667 45.083 C 29.667 45.490,29.636 45.500,28.454 45.500 C 27.027 45.500,26.563 45.745,26.407 46.579 C 26.329 46.992,26.201 47.162,25.942 47.199 C 25.608 47.246,25.580 47.358,25.535 48.820 C 25.491 50.242,25.448 50.427,25.077 50.771 C 24.743 51.080,24.667 51.311,24.667 52.015 C 24.667 52.722,24.591 52.948,24.250 53.265 C 23.856 53.629,23.833 53.748,23.833 55.409 L 23.833 57.167 23.412 57.167 L 22.991 57.167 23.037 59.542 C 23.082 61.841,23.095 61.918,23.448 61.969 C 23.675 62.001,23.832 62.158,23.865 62.385 C 23.897 62.612,24.054 62.770,24.281 62.802 C 24.509 62.834,24.666 62.991,24.698 63.219 C 24.730 63.446,24.888 63.603,25.115 63.635 C 25.342 63.668,25.499 63.825,25.531 64.052 C 25.564 64.279,25.721 64.436,25.948 64.469 C 26.175 64.501,26.332 64.658,26.365 64.885 C 26.397 65.112,26.554 65.270,26.781 65.302 C 27.009 65.334,27.166 65.491,27.198 65.719 C 27.230 65.943,27.387 66.103,27.608 66.134 C 27.805 66.162,28.006 66.337,28.054 66.522 C 28.102 66.707,28.291 66.897,28.472 66.944 C 28.654 66.992,28.841 67.179,28.889 67.361 C 28.936 67.543,29.124 67.730,29.306 67.778 C 29.487 67.825,29.675 68.013,29.722 68.194 C 29.770 68.376,29.964 68.565,30.154 68.615 C 30.601 68.732,30.595 68.754,29.987 69.294 C 29.704 69.545,28.564 70.650,27.453 71.750 C 26.342 72.850,25.280 73.827,25.093 73.921 C 24.906 74.015,24.728 74.224,24.696 74.385 C 24.627 74.748,23.893 75.500,23.609 75.500 C 22.827 75.500,22.657 80.005,23.410 80.759 C 23.778 81.127,23.826 81.329,23.869 82.710 C 23.912 84.115,23.949 84.264,24.285 84.412 C 24.602 84.551,24.660 84.723,24.702 85.662 C 24.744 86.606,24.800 86.772,25.125 86.915 C 25.477 87.069,25.500 87.178,25.500 88.714 L 25.500 90.349 26.325 91.175 L 27.151 92.000 28.409 92.000 C 29.639 92.000,29.667 92.009,29.667 92.417 C 29.667 92.805,29.723 92.833,30.492 92.833 C 31.151 92.833,31.403 92.918,31.735 93.250 C 32.124 93.639,32.263 93.667,33.814 93.667 C 35.412 93.667,35.479 93.681,35.530 94.042 C 35.579 94.385,35.683 94.421,36.781 94.465 C 37.872 94.510,37.983 94.547,38.031 94.882 C 38.113 95.459,41.661 95.453,41.915 94.875 C 42.015 94.645,42.225 94.500,42.456 94.500 C 42.747 94.500,42.833 94.405,42.833 94.083 C 42.833 93.750,42.917 93.667,43.250 93.667 C 43.580 93.667,43.667 93.583,43.667 93.262 C 43.667 92.968,43.770 92.842,44.042 92.803 C 44.283 92.769,44.436 92.616,44.470 92.375 C 44.508 92.104,44.635 92.000,44.928 92.000 C 45.244 92.000,45.333 91.912,45.333 91.603 C 45.333 91.341,45.451 91.175,45.679 91.115 C 45.869 91.065,46.065 90.869,46.115 90.679 C 46.175 90.451,46.341 90.333,46.603 90.333 C 46.910 90.333,47.000 90.244,47.000 89.936 C 47.000 89.674,47.118 89.508,47.346 89.448 C 47.536 89.399,47.732 89.203,47.782 89.012 C 47.841 88.785,48.008 88.667,48.269 88.667 C 48.582 88.667,48.667 88.578,48.667 88.250 C 48.667 87.925,48.752 87.833,49.054 87.833 C 49.465 87.833,49.474 87.758,49.237 86.217 C 49.169 85.779,47.661 84.191,40.733 77.265 C 33.638 70.172,32.336 68.799,32.474 68.553 C 32.564 68.392,36.271 64.620,40.712 60.172 C 48.921 51.949,49.167 51.680,49.167 50.928 C 49.167 50.659,49.259 50.500,49.417 50.500 C 49.572 50.500,49.667 50.343,49.667 50.083 C 49.667 49.750,49.750 49.667,50.083 49.667 C 50.417 49.667,50.500 49.583,50.500 49.250 C 50.500 48.917,50.583 48.833,50.917 48.833 C 51.250 48.833,51.333 48.750,51.333 48.417 C 51.333 48.083,51.417 48.000,51.750 48.000 C 52.083 48.000,52.167 47.917,52.167 47.583 C 52.167 47.250,52.250 47.167,52.583 47.167 C 52.917 47.167,53.000 47.083,53.000 46.750 C 53.000 46.166,53.022 46.151,51.183 48.000 C 49.433 49.760,48.752 50.106,48.637 49.293 C 48.607 49.083,48.443 48.893,48.261 48.859 C 47.845 48.779,47.055 47.990,46.975 47.575 C 46.941 47.398,46.768 47.226,46.592 47.192 C 46.218 47.120,45.449 46.387,45.281 45.943 C 45.217 45.773,45.022 45.598,44.848 45.552 C 44.674 45.506,44.492 45.321,44.444 45.139 C 44.397 44.957,44.209 44.770,44.028 44.722 C 43.846 44.675,43.659 44.487,43.611 44.306 C 43.564 44.124,43.373 43.936,43.188 43.887 C 43.003 43.839,42.829 43.638,42.801 43.441 C 42.739 43.009,36.119 42.781,35.703 43.197 M55.833 43.333 L 55.417 43.750 55.806 43.805 C 56.294 43.874,56.374 43.794,56.305 43.306 L 56.250 42.917 55.833 43.333 M65.250 44.113 C 65.282 44.280,65.314 44.468,65.321 44.531 C 65.328 44.594,65.484 44.635,65.669 44.621 C 66.073 44.590,66.024 44.362,65.546 44.044 C 65.228 43.833,65.198 43.840,65.250 44.113 M54.167 45.000 L 53.750 45.417 54.139 45.472 C 54.627 45.541,54.708 45.460,54.638 44.973 L 54.583 44.583 54.167 45.000 M53.367 45.867 C 53.085 46.148,53.117 46.259,53.489 46.287 C 53.712 46.303,53.803 46.212,53.787 45.989 C 53.759 45.617,53.648 45.585,53.367 45.867 M71.260 45.929 C 71.438 46.073,71.490 46.144,71.375 46.086 C 71.260 46.028,71.167 46.055,71.167 46.146 C 71.167 46.238,71.317 46.301,71.500 46.288 C 72.022 46.248,71.727 45.667,71.185 45.667 C 70.996 45.667,71.014 45.730,71.260 45.929 M72.000 47.589 C 72.000 47.918,72.084 48.000,72.423 48.000 C 72.785 48.000,72.821 47.955,72.677 47.686 C 72.400 47.169,72.000 47.111,72.000 47.589 M74.546 55.998 C 74.532 56.182,74.572 56.339,74.635 56.346 C 74.698 56.353,74.887 56.385,75.053 56.416 C 75.327 56.468,75.333 56.439,75.122 56.121 C 74.805 55.642,74.576 55.594,74.546 55.998 M68.667 67.423 C 68.667 67.785,68.712 67.821,68.980 67.677 C 69.498 67.400,69.556 67.000,69.078 67.000 C 68.749 67.000,68.667 67.084,68.667 67.423 M56.500 94.669 C 56.500 94.796,56.871 95.167,56.998 95.167 C 57.052 95.167,57.107 95.022,57.120 94.845 C 57.137 94.622,57.045 94.530,56.822 94.547 C 56.645 94.560,56.500 94.615,56.500 94.669 M60.380 94.845 C 60.408 95.216,60.518 95.248,60.800 94.967 C 61.082 94.685,61.050 94.575,60.678 94.547 C 60.455 94.530,60.363 94.622,60.380 94.845 " stroke="none" fill="#cdcf35" fill-rule="evenodd"></path><path id="path1" d="M244.238 37.911 C 244.090 38.138,243.994 38.390,244.026 38.473 C 244.058 38.555,244.205 38.370,244.354 38.061 C 244.672 37.401,244.618 37.331,244.238 37.911 M64.847 43.875 C 64.885 43.898,65.142 44.104,65.417 44.333 L 65.917 44.750 65.513 44.292 C 65.290 44.040,65.034 43.833,64.943 43.833 C 64.852 43.833,64.809 43.852,64.847 43.875 M101.514 45.542 C 101.552 45.565,101.808 45.771,102.083 46.000 L 102.583 46.417 102.179 45.958 C 101.957 45.706,101.701 45.500,101.610 45.500 C 101.519 45.500,101.476 45.519,101.514 45.542 M135.321 45.958 L 134.917 46.417 135.417 46.000 C 135.692 45.771,135.948 45.565,135.986 45.542 C 136.024 45.519,135.981 45.500,135.890 45.500 C 135.799 45.500,135.543 45.706,135.321 45.958 M178.181 45.542 C 178.219 45.565,178.475 45.771,178.750 46.000 L 179.250 46.417 178.846 45.958 C 178.624 45.706,178.367 45.500,178.277 45.500 C 178.186 45.500,178.142 45.519,178.181 45.542 M189.487 45.958 L 189.083 46.417 189.583 46.000 C 189.858 45.771,190.115 45.565,190.153 45.542 C 190.191 45.519,190.148 45.500,190.057 45.500 C 189.966 45.500,189.710 45.706,189.487 45.958 M291.514 45.542 C 291.552 45.565,291.808 45.771,292.083 46.000 L 292.583 46.417 292.179 45.958 C 291.957 45.706,291.701 45.500,291.610 45.500 C 291.519 45.500,291.476 45.519,291.514 45.542 M315.321 45.958 L 314.917 46.417 315.417 46.000 C 315.692 45.771,315.948 45.565,315.986 45.542 C 316.024 45.519,315.981 45.500,315.890 45.500 C 315.799 45.500,315.543 45.706,315.321 45.958 M338.654 45.958 L 338.250 46.417 338.750 46.000 C 339.025 45.771,339.281 45.565,339.319 45.542 C 339.358 45.519,339.314 45.500,339.223 45.500 C 339.133 45.500,338.876 45.706,338.654 45.958 M134.238 47.911 C 134.090 48.138,133.994 48.390,134.026 48.473 C 134.058 48.555,134.205 48.370,134.354 48.061 C 134.672 47.401,134.618 47.331,134.238 47.911 M366.368 47.751 C 366.433 47.852,366.560 48.118,366.649 48.342 C 366.752 48.600,366.816 48.650,366.823 48.477 C 366.829 48.327,366.702 48.061,366.542 47.886 C 366.381 47.711,366.303 47.650,366.368 47.751 M134.011 52.357 C 134.005 52.507,134.131 52.773,134.292 52.948 C 134.452 53.123,134.530 53.183,134.465 53.082 C 134.400 52.981,134.274 52.715,134.184 52.491 C 134.081 52.233,134.017 52.184,134.011 52.357 M310.677 52.357 C 310.671 52.507,310.798 52.773,310.958 52.948 C 311.119 53.123,311.197 53.183,311.132 53.082 C 311.067 52.981,310.940 52.715,310.851 52.491 C 310.748 52.233,310.684 52.184,310.677 52.357 M366.465 54.464 L 366.180 55.083 366.507 54.690 C 366.686 54.473,366.833 54.192,366.833 54.065 C 366.833 53.722,366.779 53.781,366.465 54.464 M74.848 56.270 C 75.069 56.556,75.284 56.760,75.324 56.723 C 75.365 56.686,75.184 56.453,74.922 56.203 L 74.445 55.750 74.848 56.270 M66.653 69.055 C 66.416 69.162,62.422 73.055,57.778 77.706 C 48.433 87.064,48.713 86.713,49.708 87.808 C 49.915 88.035,49.982 88.162,49.859 88.090 C 49.699 87.998,49.652 88.049,49.694 88.270 C 49.727 88.440,49.893 88.606,50.063 88.639 C 50.285 88.682,50.335 88.635,50.241 88.474 C 50.169 88.351,50.272 88.393,50.471 88.567 C 50.855 88.904,50.956 89.096,50.651 88.907 C 50.537 88.837,50.491 88.911,50.528 89.103 C 50.560 89.274,50.726 89.440,50.897 89.472 C 51.118 89.515,51.169 89.468,51.074 89.308 C 51.002 89.184,51.106 89.226,51.305 89.401 C 51.688 89.737,51.790 89.929,51.484 89.740 C 51.371 89.670,51.324 89.745,51.361 89.937 C 51.394 90.107,51.560 90.273,51.730 90.306 C 51.951 90.348,52.002 90.302,51.908 90.141 C 51.835 90.018,51.939 90.060,52.138 90.234 C 52.522 90.571,52.623 90.762,52.317 90.573 C 52.204 90.503,52.157 90.578,52.194 90.770 C 52.227 90.940,52.393 91.106,52.563 91.139 C 52.785 91.182,52.835 91.135,52.741 90.974 C 52.669 90.851,52.772 90.893,52.971 91.067 C 53.355 91.404,53.456 91.596,53.151 91.407 C 53.037 91.337,52.991 91.411,53.028 91.603 C 53.060 91.774,53.226 91.940,53.397 91.972 C 53.618 92.015,53.669 91.968,53.574 91.808 C 53.502 91.684,53.606 91.726,53.805 91.901 C 54.188 92.237,54.290 92.429,53.984 92.240 C 53.871 92.170,53.824 92.245,53.861 92.437 C 53.894 92.607,54.060 92.773,54.230 92.806 C 54.451 92.848,54.502 92.802,54.408 92.641 C 54.335 92.518,54.439 92.560,54.638 92.734 C 55.022 93.071,55.123 93.262,54.817 93.073 C 54.704 93.003,54.657 93.078,54.694 93.270 C 54.727 93.440,54.893 93.606,55.063 93.639 C 55.285 93.682,55.335 93.635,55.241 93.474 C 55.169 93.351,55.272 93.393,55.471 93.567 C 55.855 93.904,55.956 94.096,55.651 93.907 C 55.537 93.837,55.491 93.911,55.528 94.103 C 55.560 94.274,55.726 94.440,55.897 94.472 C 56.114 94.514,56.167 94.468,56.073 94.317 C 56.000 94.199,56.247 94.323,56.622 94.592 C 56.996 94.861,57.266 95.141,57.221 95.214 C 57.175 95.287,57.861 95.335,58.743 95.320 C 59.626 95.305,60.310 95.255,60.263 95.208 C 60.033 94.977,61.023 94.515,61.847 94.468 C 62.638 94.423,62.757 94.370,62.803 94.042 C 62.855 93.680,62.919 93.667,64.603 93.667 C 66.252 93.667,66.371 93.643,66.735 93.250 C 67.040 92.921,67.284 92.833,67.894 92.833 C 68.607 92.833,68.667 92.801,68.667 92.417 C 68.667 92.007,68.689 92.000,70.000 92.000 C 71.562 92.000,72.000 91.729,72.000 90.760 C 72.000 90.444,72.087 90.133,72.192 90.067 C 72.317 89.990,72.339 90.022,72.256 90.157 C 72.167 90.301,72.223 90.347,72.437 90.306 C 72.607 90.273,72.773 90.107,72.806 89.937 C 72.848 89.717,72.800 89.664,72.641 89.755 C 72.460 89.857,72.457 89.839,72.625 89.658 C 72.740 89.534,72.833 89.040,72.833 88.560 C 72.833 88.079,72.920 87.633,73.026 87.567 C 73.150 87.490,73.173 87.522,73.089 87.657 C 73.001 87.801,73.057 87.847,73.270 87.806 C 73.440 87.773,73.606 87.607,73.639 87.437 C 73.681 87.217,73.634 87.164,73.474 87.255 C 73.294 87.357,73.290 87.339,73.458 87.158 C 73.583 87.023,73.667 86.471,73.667 85.777 C 73.667 84.759,73.716 84.576,74.083 84.235 C 74.425 83.919,74.500 83.693,74.500 82.985 C 74.500 82.278,74.575 82.052,74.917 81.735 C 75.382 81.304,75.564 77.076,75.150 76.302 C 75.011 76.042,75.014 75.989,75.166 76.083 C 75.299 76.165,75.346 76.103,75.306 75.897 C 75.273 75.726,75.107 75.560,74.937 75.528 C 74.723 75.487,74.661 75.538,74.736 75.692 C 74.797 75.816,74.749 75.772,74.631 75.594 C 74.513 75.417,74.257 75.116,74.062 74.927 C 73.867 74.738,73.678 74.434,73.643 74.251 C 73.608 74.069,73.435 73.893,73.259 73.859 C 72.845 73.779,72.054 72.989,71.975 72.575 C 71.941 72.398,71.768 72.226,71.592 72.192 C 71.178 72.112,70.388 71.322,70.308 70.908 C 70.274 70.732,70.097 70.558,69.915 70.523 C 69.733 70.488,69.429 70.300,69.240 70.105 C 69.050 69.910,68.750 69.653,68.573 69.535 C 68.395 69.417,68.351 69.370,68.474 69.430 C 68.629 69.505,68.680 69.443,68.639 69.230 C 68.606 69.060,68.440 68.894,68.270 68.861 C 68.050 68.819,67.997 68.866,68.088 69.026 C 68.191 69.206,68.172 69.210,67.991 69.042 C 67.719 68.789,67.230 68.794,66.653 69.055 M278.205 78.333 C 278.205 78.654,278.240 78.785,278.282 78.625 C 278.323 78.465,278.323 78.202,278.282 78.042 C 278.240 77.881,278.205 78.012,278.205 78.333 " stroke="none" fill="#d37beb" fill-rule="evenodd"></path><path id="path2" d="M56.333 43.406 C 56.333 43.751,56.253 43.833,55.917 43.833 C 55.583 43.833,55.500 43.917,55.500 44.250 C 55.500 44.583,55.417 44.667,55.083 44.667 C 54.750 44.667,54.667 44.750,54.667 45.083 C 54.667 45.417,54.583 45.500,54.250 45.500 C 53.917 45.500,53.833 45.583,53.833 45.917 C 53.833 46.250,53.750 46.333,53.417 46.333 C 53.083 46.333,53.000 46.417,53.000 46.750 C 53.000 47.083,52.917 47.167,52.583 47.167 C 52.250 47.167,52.167 47.250,52.167 47.583 C 52.167 47.917,52.083 48.000,51.750 48.000 C 51.417 48.000,51.333 48.083,51.333 48.417 C 51.333 48.750,51.250 48.833,50.917 48.833 C 50.583 48.833,50.500 48.917,50.500 49.250 C 50.500 49.583,50.417 49.667,50.083 49.667 C 49.750 49.667,49.667 49.750,49.667 50.083 C 49.667 50.343,49.572 50.500,49.417 50.500 C 49.259 50.500,49.167 50.659,49.167 50.928 C 49.167 51.680,48.923 51.947,40.685 60.211 C 36.229 64.681,32.549 68.393,32.507 68.461 C 32.464 68.528,36.102 64.928,40.590 60.461 C 46.829 54.251,48.868 52.317,49.250 52.246 C 49.725 52.157,50.159 52.562,57.915 60.330 C 66.718 69.148,66.590 69.041,67.978 68.715 C 68.558 68.578,68.585 68.539,68.634 67.786 L 68.685 67.000 69.498 67.000 C 70.261 67.000,70.314 66.972,70.364 66.542 C 70.402 66.212,70.510 66.083,70.750 66.083 C 70.972 66.083,71.083 65.972,71.083 65.750 C 71.083 65.510,71.212 65.402,71.542 65.364 C 71.902 65.323,72.000 65.224,72.000 64.906 C 72.000 64.543,72.183 64.424,72.674 64.469 C 72.723 64.473,72.776 64.324,72.790 64.136 C 72.822 63.715,72.880 63.655,73.282 63.625 C 73.467 63.611,73.611 63.467,73.625 63.282 C 73.655 62.883,73.716 62.821,74.115 62.791 C 74.300 62.777,74.444 62.633,74.458 62.448 C 74.488 62.047,74.549 61.988,74.966 61.957 C 75.352 61.928,75.546 57.151,75.171 56.919 C 75.074 56.859,75.034 56.746,75.083 56.667 C 75.132 56.588,75.024 56.477,74.843 56.420 C 74.562 56.331,74.507 56.139,74.465 55.116 C 74.421 54.016,74.385 53.912,74.042 53.863 C 73.681 53.812,73.666 53.740,73.641 52.030 C 73.627 51.051,73.608 50.138,73.599 50.000 C 73.590 49.863,73.433 49.750,73.250 49.750 C 72.965 49.750,72.909 49.622,72.866 48.875 C 72.820 48.071,72.783 48.000,72.408 48.000 C 72.030 48.000,72.000 47.940,72.000 47.167 C 72.000 46.399,71.969 46.333,71.601 46.333 C 71.315 46.333,71.173 46.216,71.098 45.917 C 70.999 45.522,70.932 45.500,69.830 45.500 C 68.700 45.500,68.667 45.488,68.667 45.083 C 68.667 44.667,68.666 44.667,67.011 44.667 C 65.508 44.667,65.346 44.636,65.251 44.337 C 65.193 44.155,65.095 44.017,65.032 44.030 C 64.968 44.043,64.804 44.006,64.667 43.948 C 64.529 43.890,64.042 43.822,63.583 43.797 C 62.877 43.757,62.750 43.699,62.750 43.417 C 62.750 43.097,62.621 43.081,59.542 43.031 L 56.333 42.978 56.333 43.406 " stroke="none" fill="#84d374" fill-rule="evenodd"></path><path id="path3" d="M254.710 26.696 C 254.675 27.169,254.721 27.155,253.191 27.182 C 251.868 27.206,251.333 27.397,251.333 27.845 C 251.333 27.930,251.146 28.000,250.917 28.000 C 250.583 28.000,250.500 28.083,250.500 28.417 C 250.500 28.697,250.405 28.838,250.208 28.847 C 249.037 28.903,248.840 29.063,248.836 29.958 C 248.834 30.464,248.795 30.500,248.262 30.500 C 247.539 30.500,247.167 30.868,247.167 31.584 C 247.167 32.037,247.096 32.154,246.792 32.197 C 246.553 32.231,246.398 32.384,246.364 32.617 C 246.336 32.819,246.171 33.029,245.998 33.084 C 245.668 33.189,245.556 33.453,245.524 34.198 C 245.514 34.444,245.317 34.835,245.086 35.065 C 244.747 35.405,244.667 35.649,244.667 36.341 C 244.667 37.027,244.592 37.257,244.292 37.500 C 243.925 37.796,243.916 37.891,243.866 41.652 L 243.816 45.500 235.163 45.500 C 226.992 45.500,226.517 45.516,226.621 45.792 C 226.726 46.069,226.717 46.069,226.437 45.792 C 226.010 45.368,225.283 45.680,225.579 46.159 C 225.670 46.307,225.230 46.418,224.801 46.356 C 224.737 46.347,224.699 47.969,224.717 49.961 C 224.750 53.579,224.750 53.583,225.125 53.637 C 225.396 53.675,225.500 53.802,225.500 54.095 C 225.500 54.470,225.562 54.500,226.333 54.500 C 227.336 54.500,227.523 55.129,226.750 55.902 C 226.521 56.131,226.333 56.509,226.333 56.742 C 226.333 56.976,226.264 57.167,226.179 57.167 C 225.753 57.167,225.500 57.730,225.500 58.679 C 225.500 59.222,225.425 59.676,225.333 59.688 C 225.242 59.699,225.080 59.718,224.974 59.729 C 224.772 59.751,224.705 60.015,224.641 61.035 C 224.610 61.533,224.558 61.618,224.377 61.467 C 224.019 61.170,223.714 61.570,224.015 61.942 C 224.144 62.101,224.168 62.181,224.067 62.121 C 223.951 62.052,223.879 62.196,223.870 62.512 C 223.861 62.816,223.709 63.130,223.482 63.315 C 223.189 63.552,223.092 63.836,223.035 64.629 C 222.982 65.364,222.903 65.619,222.748 65.559 C 222.515 65.470,222.260 65.770,222.233 66.167 C 222.224 66.304,222.205 66.621,222.191 66.870 C 222.175 67.174,222.093 67.295,221.943 67.237 C 221.714 67.149,221.302 67.520,221.347 67.774 C 221.520 68.737,221.308 69.667,220.917 69.667 C 220.528 69.667,220.500 69.722,220.500 70.500 C 220.500 71.278,220.472 71.333,220.083 71.333 C 219.677 71.333,219.667 71.363,219.667 72.556 C 219.667 73.525,219.616 73.778,219.419 73.778 C 219.228 73.778,219.215 73.726,219.362 73.548 C 219.653 73.198,219.270 72.873,218.914 73.169 C 218.768 73.290,218.661 73.321,218.677 73.237 C 218.781 72.688,218.647 71.992,218.458 72.105 C 218.323 72.187,218.332 72.129,218.485 71.942 C 218.808 71.543,218.472 71.177,218.081 71.502 C 217.934 71.624,217.828 71.654,217.844 71.570 C 218.067 70.398,217.720 68.990,217.162 68.804 C 217.065 68.772,216.973 68.583,216.958 68.384 C 216.943 68.186,216.890 68.027,216.840 68.031 C 216.209 68.089,216.167 68.008,216.167 66.750 C 216.167 65.528,216.157 65.500,215.750 65.500 C 215.356 65.500,215.199 65.114,215.319 64.441 C 215.365 64.187,214.953 63.816,214.723 63.904 C 214.560 63.967,214.496 63.802,214.486 63.286 C 214.456 61.697,214.396 61.523,213.801 61.294 C 213.738 61.270,213.647 61.025,213.598 60.750 C 213.550 60.475,213.362 60.129,213.181 59.981 C 212.947 59.789,212.841 59.474,212.814 58.889 C 212.783 58.208,212.721 58.062,212.453 58.042 C 212.018 58.009,211.995 57.974,211.969 57.272 C 211.945 56.640,211.642 56.226,211.341 56.412 C 211.228 56.482,211.167 56.191,211.167 55.583 C 211.167 54.918,211.111 54.681,210.974 54.766 C 210.855 54.840,210.827 54.812,210.901 54.692 C 210.978 54.567,211.624 54.500,212.760 54.500 L 214.500 54.500 214.500 54.083 C 214.500 53.705,214.706 53.575,215.197 53.643 C 215.259 53.652,215.318 52.011,215.327 49.996 L 215.344 46.333 214.829 46.333 C 214.513 46.333,214.355 46.266,214.421 46.159 C 214.717 45.680,213.990 45.368,213.563 45.792 C 213.283 46.069,213.274 46.069,213.380 45.789 C 213.486 45.508,212.905 45.494,201.565 45.503 L 189.639 45.513 189.236 45.915 C 188.855 46.297,188.833 46.425,188.833 48.326 L 188.833 50.333 189.250 50.333 C 189.616 50.333,189.667 50.405,189.667 50.927 C 189.667 51.357,189.724 51.485,189.875 51.395 C 190.041 51.295,190.041 51.321,189.876 51.525 C 189.608 51.857,189.810 52.059,190.142 51.790 C 190.346 51.625,190.372 51.625,190.272 51.792 C 190.203 51.906,190.226 52.000,190.323 52.000 C 190.421 52.000,190.500 52.229,190.500 52.510 C 190.500 52.873,190.560 52.984,190.708 52.895 C 190.843 52.813,190.834 52.871,190.682 53.058 C 190.359 53.457,190.694 53.823,191.086 53.498 C 191.232 53.376,191.339 53.346,191.323 53.430 C 191.251 53.809,191.347 54.012,191.542 53.895 C 191.708 53.795,191.708 53.821,191.543 54.025 C 191.275 54.357,191.476 54.559,191.808 54.290 C 192.012 54.125,192.039 54.125,191.939 54.292 C 191.841 54.454,192.310 54.500,194.073 54.500 L 196.333 54.500 196.333 55.333 C 196.333 56.111,196.361 56.167,196.750 56.167 C 197.111 56.167,197.169 56.244,197.188 56.750 C 197.221 57.681,197.239 57.749,197.458 57.771 C 197.573 57.782,197.738 57.801,197.824 57.813 C 197.911 57.824,198.005 58.190,198.033 58.625 C 198.076 59.301,198.138 59.424,198.458 59.470 C 198.804 59.519,198.982 60.228,198.853 61.042 C 198.842 61.110,198.890 61.158,198.958 61.147 C 199.561 61.052,199.667 61.180,199.667 62.010 C 199.667 62.640,199.719 62.821,199.875 62.728 C 200.017 62.643,200.010 62.693,199.855 62.885 C 199.583 63.219,199.894 63.743,200.277 63.596 C 200.477 63.519,200.598 63.924,200.514 64.392 C 200.455 64.720,200.706 65.157,201.009 65.253 C 201.235 65.325,201.333 65.507,201.333 65.854 C 201.333 66.209,201.394 66.317,201.542 66.228 C 201.677 66.147,201.668 66.204,201.515 66.392 C 201.214 66.764,201.519 67.164,201.877 66.866 C 202.058 66.716,202.110 66.800,202.141 67.298 C 202.205 68.318,202.272 68.582,202.474 68.604 C 202.580 68.616,202.742 68.634,202.833 68.646 C 202.925 68.657,203.000 69.042,203.000 69.500 C 203.000 70.266,203.032 70.333,203.396 70.333 C 203.757 70.333,203.799 70.417,203.870 71.278 C 203.928 71.967,204.042 72.297,204.293 72.500 C 204.482 72.654,204.662 72.960,204.693 73.181 C 204.731 73.449,204.875 73.601,205.125 73.637 C 205.496 73.689,205.615 74.187,205.506 75.227 C 205.483 75.444,205.539 75.497,205.695 75.403 C 205.864 75.301,205.861 75.338,205.682 75.558 C 205.382 75.928,205.685 76.330,206.041 76.035 C 206.260 75.853,206.297 75.937,206.371 76.782 C 206.381 76.892,206.433 76.977,206.486 76.971 C 207.119 76.903,207.167 76.992,207.167 78.250 C 207.167 79.472,207.176 79.500,207.583 79.500 C 207.899 79.500,208.005 79.591,208.019 79.875 C 208.030 80.081,208.056 80.325,208.077 80.417 C 208.098 80.508,208.127 80.672,208.141 80.780 C 208.155 80.889,208.317 81.025,208.500 81.083 C 208.774 81.170,208.833 81.336,208.833 82.011 C 208.833 82.777,208.862 82.833,209.250 82.833 C 209.658 82.833,209.773 83.097,209.675 83.808 C 209.655 83.953,209.723 83.986,209.864 83.901 C 210.041 83.795,210.044 83.819,209.876 84.025 C 209.608 84.357,209.810 84.559,210.142 84.290 C 210.313 84.151,210.359 84.147,210.281 84.277 C 210.217 84.384,210.236 84.497,210.323 84.527 C 210.411 84.558,210.501 84.958,210.524 85.416 C 210.555 86.025,210.669 86.351,210.950 86.632 C 211.199 86.881,211.333 87.213,211.333 87.579 C 211.333 88.118,211.606 88.563,212.021 88.701 C 212.146 88.743,212.210 89.196,212.202 89.983 C 212.187 91.304,212.176 91.337,211.728 91.403 C 211.499 91.436,211.410 91.627,211.364 92.182 C 211.293 93.034,211.307 93.010,210.864 93.044 C 210.676 93.058,210.527 93.110,210.531 93.160 C 210.657 94.544,210.474 95.500,210.083 95.500 C 209.750 95.500,209.667 95.583,209.667 95.917 C 209.667 96.298,209.451 96.431,208.958 96.353 C 208.890 96.342,208.842 96.390,208.853 96.458 C 208.942 97.020,208.804 98.168,208.659 98.079 C 208.418 97.930,207.966 98.337,208.071 98.610 C 208.118 98.733,208.051 98.833,207.923 98.833 C 207.516 98.833,207.167 99.338,207.167 99.929 C 207.167 100.430,207.114 100.500,206.742 100.500 C 206.509 100.500,206.128 100.690,205.896 100.922 C 205.620 101.199,205.245 101.364,204.814 101.401 C 204.093 101.462,204.123 101.446,203.878 101.902 C 203.713 102.209,203.702 102.208,203.592 101.860 C 203.529 101.662,203.426 101.492,203.364 101.481 C 203.301 101.471,202.811 101.439,202.275 101.410 C 201.207 101.351,201.161 101.332,201.099 100.904 C 201.075 100.743,200.913 100.590,200.739 100.565 C 200.565 100.539,200.396 100.439,200.364 100.341 C 200.331 100.244,200.218 100.217,200.111 100.281 C 199.980 100.359,199.985 100.313,200.124 100.142 C 200.392 99.810,200.190 99.608,199.858 99.876 C 199.654 100.041,199.628 100.041,199.728 99.875 C 199.825 99.714,199.459 99.667,198.104 99.667 L 196.355 99.667 196.303 100.125 C 196.265 100.455,196.156 100.583,195.917 100.583 C 195.697 100.583,195.583 100.695,195.583 100.909 C 195.583 101.118,195.435 101.270,195.172 101.332 C 194.916 101.392,194.726 101.583,194.665 101.839 C 194.603 102.102,194.451 102.249,194.243 102.250 C 194.034 102.250,193.916 102.364,193.916 102.567 C 193.915 102.868,193.383 103.201,193.133 103.057 C 193.068 103.020,193.030 103.866,193.049 104.937 C 193.081 106.738,193.108 106.889,193.414 106.933 C 193.595 106.960,193.770 107.061,193.803 107.159 C 193.835 107.256,193.949 107.283,194.056 107.219 C 194.186 107.141,194.182 107.187,194.043 107.358 C 193.775 107.690,193.976 107.892,194.308 107.624 C 194.512 107.459,194.539 107.459,194.439 107.625 C 194.322 107.820,194.525 107.916,194.903 107.844 C 194.987 107.828,194.957 107.934,194.835 108.081 C 194.510 108.473,194.874 108.805,195.285 108.490 C 195.449 108.364,195.532 108.323,195.468 108.398 C 195.177 108.746,196.141 109.387,197.071 109.464 C 197.916 109.534,198.000 109.577,198.000 109.937 C 198.000 110.266,198.085 110.333,198.500 110.333 C 198.775 110.333,199.000 110.407,199.000 110.496 C 199.000 110.876,199.831 111.221,200.267 111.022 C 200.543 110.897,200.650 110.892,200.579 111.008 C 200.502 111.131,201.641 111.175,204.329 111.152 C 208.191 111.120,208.490 111.076,208.693 110.517 C 208.725 110.432,209.088 110.334,209.500 110.301 C 209.929 110.266,210.259 110.152,210.271 110.036 C 210.282 109.925,210.301 109.758,210.313 109.667 C 210.324 109.575,210.600 109.500,210.927 109.500 C 211.357 109.500,211.485 109.443,211.395 109.292 C 211.295 109.125,211.321 109.125,211.525 109.290 C 211.858 109.559,212.056 109.358,211.796 109.015 C 211.685 108.869,211.657 108.803,211.734 108.867 C 211.810 108.931,211.979 108.878,212.108 108.749 C 212.237 108.620,212.466 108.561,212.617 108.619 C 212.815 108.695,212.864 108.654,212.794 108.472 C 212.652 108.101,212.860 107.865,213.420 107.765 C 214.012 107.660,214.500 107.117,214.500 106.565 C 214.500 106.251,214.588 106.167,214.917 106.167 C 215.313 106.167,215.472 105.769,215.344 105.097 C 215.328 105.013,215.434 105.043,215.581 105.165 C 215.972 105.490,216.308 105.124,215.985 104.725 C 215.832 104.538,215.823 104.480,215.958 104.561 C 216.107 104.650,216.167 104.540,216.167 104.177 C 216.167 103.896,216.236 103.667,216.321 103.667 C 216.657 103.667,217.000 103.114,217.000 102.571 C 217.000 102.257,217.079 102.000,217.177 102.000 C 217.274 102.000,217.297 101.906,217.228 101.792 C 217.128 101.625,217.154 101.625,217.358 101.790 C 217.690 102.059,217.892 101.857,217.624 101.525 C 217.456 101.318,217.459 101.295,217.639 101.403 C 217.794 101.497,217.851 101.444,217.828 101.227 C 217.710 100.112,217.838 99.523,218.208 99.470 C 218.449 99.436,218.602 99.283,218.637 99.042 C 218.666 98.835,218.754 98.667,218.833 98.667 C 219.248 98.667,219.500 98.094,219.500 97.155 C 219.500 96.176,219.567 96.075,220.178 96.137 C 220.256 96.145,220.332 95.486,220.380 94.378 C 220.387 94.222,220.445 94.218,220.618 94.362 C 220.953 94.640,221.298 94.275,221.018 93.939 C 220.881 93.774,220.873 93.662,220.992 93.588 C 221.088 93.529,221.167 93.335,221.167 93.157 C 221.167 92.979,221.236 92.833,221.321 92.833 C 221.661 92.833,222.000 92.278,222.000 91.723 C 222.000 91.324,222.115 91.044,222.359 90.846 C 222.626 90.630,222.738 90.316,222.796 89.620 C 222.862 88.822,222.925 88.677,223.228 88.634 C 223.524 88.592,223.592 88.453,223.634 87.800 C 223.673 87.197,223.759 86.993,224.009 86.914 C 224.187 86.857,224.342 86.760,224.352 86.697 C 224.362 86.635,224.400 86.327,224.436 86.014 C 224.511 85.355,224.532 85.324,224.943 85.263 C 225.286 85.213,225.283 85.221,225.313 83.845 C 225.331 82.954,225.370 82.851,225.708 82.803 C 225.949 82.769,226.102 82.616,226.137 82.375 C 226.166 82.169,226.254 82.000,226.333 82.000 C 226.713 82.000,226.957 81.458,226.978 80.566 C 227.002 79.496,227.004 79.492,227.452 79.458 C 227.713 79.438,227.782 79.291,227.814 78.679 C 227.858 77.812,227.852 77.824,228.303 77.790 C 228.490 77.776,228.640 77.723,228.635 77.674 C 228.563 76.873,228.700 76.023,228.890 76.096 C 229.120 76.184,229.532 75.813,229.486 75.559 C 229.384 74.990,229.524 74.353,229.733 74.433 C 229.861 74.482,230.030 74.424,230.108 74.303 C 230.254 74.076,230.276 73.906,230.312 72.720 C 230.330 72.132,230.392 72.015,230.708 71.970 C 230.951 71.935,231.102 71.783,231.137 71.537 C 231.167 71.328,231.358 70.990,231.562 70.786 C 231.830 70.519,231.945 70.183,231.976 69.582 C 231.999 69.125,232.089 68.725,232.177 68.694 C 232.264 68.663,232.283 68.551,232.219 68.444 C 232.141 68.314,232.187 68.318,232.358 68.457 C 232.690 68.725,232.892 68.524,232.624 68.192 C 232.459 67.988,232.459 67.961,232.625 68.061 C 232.776 68.152,232.833 68.025,232.833 67.601 C 232.833 67.198,232.964 66.885,233.250 66.598 C 233.479 66.369,233.667 65.996,233.667 65.769 C 233.667 65.506,233.785 65.318,233.991 65.253 C 234.395 65.125,234.479 64.856,234.521 63.544 C 234.549 62.682,234.594 62.537,234.784 62.695 C 235.147 62.996,235.456 62.600,235.151 62.225 C 234.999 62.038,234.990 61.980,235.125 62.061 C 235.274 62.150,235.333 62.040,235.333 61.677 C 235.333 61.244,235.396 61.167,235.750 61.167 C 236.138 61.167,236.167 61.111,236.167 60.341 C 236.167 59.682,236.251 59.431,236.583 59.098 C 236.943 58.739,237.113 58.138,237.010 57.597 C 236.994 57.513,237.101 57.543,237.248 57.665 C 237.639 57.990,237.975 57.624,237.651 57.225 C 237.522 57.066,237.501 56.986,237.603 57.048 C 237.730 57.124,237.796 56.887,237.809 56.304 C 237.831 55.353,237.842 55.327,238.276 55.263 C 238.445 55.238,238.593 55.132,238.604 55.026 C 238.616 54.920,238.634 54.758,238.646 54.667 C 238.659 54.565,239.545 54.500,240.927 54.500 C 242.454 54.500,243.151 54.556,243.079 54.674 C 242.930 54.915,243.337 55.367,243.610 55.263 C 243.796 55.192,243.833 57.531,243.833 69.089 C 243.833 84.026,243.878 83.139,243.125 83.020 C 243.056 83.009,243.009 83.056,243.020 83.125 C 243.161 84.022,242.976 84.667,242.576 84.667 C 242.030 84.667,241.333 85.363,241.333 85.909 C 241.333 86.298,241.121 86.431,240.625 86.353 C 240.556 86.342,240.509 86.390,240.520 86.458 C 240.587 86.884,240.475 87.338,240.326 87.245 C 239.847 86.949,239.699 87.521,239.676 89.758 L 239.654 92.002 250.369 91.960 L 261.083 91.917 261.137 91.542 C 261.175 91.270,261.302 91.167,261.595 91.167 L 262.000 91.167 262.000 87.762 C 262.000 83.993,261.903 83.638,260.930 83.823 C 260.846 83.839,260.876 83.732,260.998 83.586 C 261.323 83.194,260.957 82.859,260.558 83.182 C 260.371 83.334,260.313 83.343,260.395 83.208 C 260.492 83.046,260.040 83.000,258.343 83.000 L 256.167 83.000 256.167 69.167 C 256.167 60.069,256.224 55.326,256.333 55.313 C 256.425 55.301,256.594 55.282,256.708 55.271 C 256.823 55.259,256.926 55.156,256.938 55.042 C 256.949 54.927,256.968 54.758,256.979 54.667 C 256.992 54.562,258.232 54.500,260.322 54.500 L 263.645 54.500 263.697 54.042 C 263.735 53.712,263.844 53.583,264.083 53.583 C 264.306 53.583,264.417 53.472,264.417 53.250 C 264.417 53.010,264.545 52.902,264.875 52.864 C 265.235 52.823,265.333 52.724,265.333 52.406 C 265.333 52.183,265.403 52.000,265.488 52.000 C 265.824 52.000,266.167 51.447,266.167 50.905 C 266.167 50.404,266.219 50.333,266.591 50.333 L 267.015 50.333 266.991 48.125 C 266.963 45.571,266.772 45.089,266.063 45.792 C 265.783 46.069,265.774 46.069,265.879 45.792 C 265.983 45.518,265.687 45.500,261.078 45.500 L 256.167 45.500 256.167 41.667 L 256.167 37.833 256.583 37.833 C 256.915 37.833,257.000 37.749,257.000 37.424 C 257.000 37.199,257.188 36.828,257.417 36.598 C 257.646 36.369,257.833 35.996,257.833 35.769 C 257.833 35.468,257.935 35.342,258.208 35.303 C 258.449 35.269,258.602 35.116,258.637 34.875 C 258.688 34.512,258.749 34.500,260.506 34.500 C 261.956 34.500,262.306 34.545,262.237 34.723 C 262.133 34.996,262.585 35.404,262.826 35.255 C 262.933 35.189,263.000 35.347,263.000 35.664 C 263.000 35.993,263.151 36.333,263.414 36.596 C 263.758 36.940,263.834 37.191,263.867 38.098 C 263.905 39.160,264.134 39.643,264.493 39.421 C 264.602 39.354,264.674 39.567,264.688 39.990 C 264.699 40.362,264.718 40.760,264.729 40.875 C 264.745 41.036,265.700 41.083,268.890 41.083 L 273.029 41.083 273.356 40.680 C 273.759 40.182,273.776 33.936,273.375 33.896 C 273.260 33.884,273.092 33.866,273.000 33.854 C 272.908 33.843,272.833 33.458,272.833 33.000 C 272.833 32.222,272.806 32.167,272.417 32.167 C 272.056 32.167,271.997 32.089,271.979 31.583 C 271.946 30.654,271.933 30.617,271.610 30.570 C 271.216 30.512,271.154 30.444,271.123 30.030 C 271.109 29.843,271.057 29.693,271.007 29.698 C 270.512 29.743,270.333 29.624,270.333 29.250 C 270.333 28.861,270.278 28.833,269.500 28.833 C 268.722 28.833,268.667 28.806,268.667 28.417 C 268.667 28.020,268.269 27.862,267.597 27.990 C 267.513 28.006,267.543 27.899,267.665 27.752 C 267.990 27.361,267.624 27.025,267.225 27.349 C 267.066 27.478,266.987 27.499,267.048 27.396 C 267.127 27.264,266.780 27.200,265.882 27.183 C 264.476 27.156,264.494 27.162,264.430 26.724 C 264.355 26.216,254.749 26.189,254.710 26.696 M252.048 27.852 C 251.767 28.133,251.432 27.866,251.685 27.561 C 251.824 27.393,251.939 27.372,252.060 27.493 C 252.180 27.613,252.177 27.723,252.048 27.852 M316.333 29.242 C 316.333 29.624,316.158 29.743,315.660 29.698 C 315.610 29.693,315.558 29.843,315.544 30.030 C 315.511 30.459,315.508 30.462,314.924 30.568 C 314.200 30.699,313.954 31.051,313.869 32.075 C 313.799 32.921,313.758 33.000,313.390 33.000 L 312.987 33.000 313.008 35.829 C 313.019 37.384,313.078 38.650,313.139 38.642 C 313.734 38.562,313.833 38.684,313.833 39.500 C 313.833 40.271,313.863 40.333,314.238 40.333 C 314.532 40.333,314.658 40.437,314.697 40.708 C 314.731 40.949,314.884 41.102,315.125 41.137 C 315.331 41.166,315.509 41.260,315.521 41.345 C 315.532 41.430,315.551 41.594,315.563 41.708 C 315.574 41.823,315.677 41.926,315.792 41.938 C 315.906 41.949,316.117 41.968,316.260 41.979 C 316.403 41.991,316.471 42.078,316.412 42.174 C 315.920 42.971,323.306 43.210,324.093 42.422 C 324.311 42.204,324.638 41.979,324.819 41.921 C 325.001 41.863,325.196 41.670,325.253 41.491 C 325.340 41.216,325.598 41.095,326.011 41.137 C 326.063 41.142,326.124 40.797,326.146 40.369 C 326.192 39.482,326.187 39.490,326.615 39.458 C 326.807 39.444,326.944 39.299,326.960 39.094 C 326.974 38.908,327.065 38.728,327.162 38.696 C 328.157 38.364,328.150 33.000,327.155 33.000 C 327.070 33.000,327.000 32.813,327.000 32.583 C 327.000 32.250,326.917 32.167,326.583 32.167 C 326.194 32.167,326.167 32.111,326.167 31.333 C 326.167 30.520,326.155 30.500,325.672 30.500 C 325.327 30.500,325.203 30.432,325.263 30.277 C 325.365 30.010,324.961 29.636,324.643 29.702 C 324.518 29.729,324.438 29.648,324.464 29.524 C 324.590 28.928,324.239 28.871,320.245 28.844 L 316.333 28.818 316.333 29.242 M249.548 29.519 C 249.267 29.800,248.932 29.532,249.185 29.228 C 249.324 29.060,249.439 29.039,249.560 29.160 C 249.680 29.280,249.677 29.390,249.548 29.519 M247.881 31.185 C 247.600 31.467,247.266 31.199,247.518 30.895 C 247.658 30.727,247.772 30.706,247.893 30.826 C 248.013 30.947,248.010 31.057,247.881 31.185 M246.215 33.685 C 245.933 33.967,245.599 33.699,245.852 33.395 C 245.991 33.227,246.106 33.206,246.226 33.326 C 246.347 33.447,246.343 33.557,246.215 33.685 M327.600 33.746 C 327.629 33.942,327.568 33.959,327.318 33.825 C 326.987 33.648,326.920 33.469,327.114 33.275 C 327.257 33.131,327.552 33.417,327.600 33.746 M244.367 38.021 C 244.152 38.416,244.133 38.560,244.292 38.618 C 244.524 38.703,244.583 39.667,244.355 39.667 C 244.077 39.667,244.005 38.271,244.263 37.875 C 244.624 37.321,244.695 37.420,244.367 38.021 M327.476 38.279 C 327.231 38.574,326.950 38.323,327.097 37.940 C 327.182 37.720,327.256 37.700,327.438 37.851 C 327.618 38.000,327.626 38.098,327.476 38.279 M325.072 41.314 C 325.122 41.396,325.058 41.549,324.930 41.656 C 324.670 41.871,324.404 41.624,324.583 41.333 C 324.711 41.127,324.950 41.118,325.072 41.314 M81.412 45.674 C 81.353 45.770,81.399 45.961,81.514 46.100 C 81.629 46.239,81.654 46.339,81.570 46.323 C 81.486 46.307,81.342 46.311,81.250 46.333 C 81.158 46.354,80.971 46.382,80.833 46.394 C 80.621 46.413,80.576 46.965,80.534 50.042 L 80.485 53.667 80.902 54.083 C 81.290 54.472,81.429 54.500,82.985 54.500 C 84.827 54.500,85.500 54.837,85.500 55.758 C 85.500 56.083,85.585 56.167,85.917 56.167 C 86.298 56.167,86.558 58.076,86.353 59.375 C 86.342 59.444,86.390 59.491,86.458 59.480 C 87.025 59.391,87.150 59.528,87.199 60.292 C 87.243 60.967,87.305 61.091,87.625 61.137 C 87.966 61.185,88.171 62.802,88.031 64.340 C 88.027 64.390,88.176 64.442,88.364 64.456 C 88.835 64.492,88.824 64.462,88.861 65.841 C 88.889 66.871,88.956 67.138,89.267 67.449 C 89.521 67.703,89.658 68.070,89.697 68.604 C 89.741 69.209,89.823 69.396,90.059 69.430 C 90.499 69.495,90.510 69.523,90.537 70.636 C 90.553 71.303,90.622 71.612,90.739 71.542 C 90.837 71.484,90.816 71.560,90.694 71.711 C 90.502 71.947,90.531 72.046,90.902 72.417 C 91.202 72.717,91.333 73.026,91.333 73.434 C 91.333 73.858,91.391 73.985,91.542 73.895 C 91.708 73.795,91.708 73.821,91.543 74.025 C 91.275 74.357,91.476 74.559,91.808 74.290 C 91.980 74.151,92.026 74.147,91.948 74.277 C 91.884 74.384,91.910 74.498,92.007 74.530 C 92.108 74.564,92.184 75.107,92.186 75.814 C 92.190 76.886,92.241 77.089,92.595 77.444 C 92.818 77.666,93.000 77.991,93.000 78.164 C 93.000 78.338,93.079 78.529,93.175 78.588 C 93.294 78.662,93.285 78.774,93.148 78.939 C 92.849 79.299,93.222 79.633,93.586 79.331 C 93.732 79.210,93.839 79.179,93.823 79.263 C 93.630 80.277,93.869 82.051,94.250 82.432 C 94.530 82.712,94.667 83.033,94.667 83.412 C 94.667 83.948,95.011 84.500,95.345 84.500 C 95.430 84.500,95.500 85.063,95.500 85.750 C 95.500 86.972,95.509 87.000,95.917 87.000 C 96.306 87.000,96.333 87.056,96.333 87.833 C 96.333 88.607,96.363 88.667,96.743 88.667 C 97.135 88.667,97.154 88.716,97.201 89.875 C 97.246 90.984,97.281 91.088,97.625 91.137 C 97.897 91.175,98.000 91.302,98.000 91.598 L 98.000 92.006 102.042 91.961 L 106.083 91.917 106.137 91.542 C 106.175 91.270,106.302 91.167,106.595 91.167 C 106.979 91.167,107.137 90.761,107.010 90.097 C 106.994 90.013,107.101 90.043,107.248 90.165 C 107.639 90.490,107.975 90.124,107.651 89.725 C 107.499 89.538,107.490 89.480,107.625 89.561 C 107.809 89.672,107.967 88.248,107.844 87.597 C 107.828 87.513,107.934 87.543,108.081 87.665 C 108.433 87.956,108.852 87.618,108.533 87.300 C 108.423 87.190,108.334 87.021,108.336 86.925 C 108.337 86.829,108.411 86.862,108.500 87.000 C 108.623 87.190,108.662 87.123,108.664 86.720 C 108.666 86.345,108.760 86.159,108.985 86.088 C 109.406 85.954,109.557 85.521,109.295 85.197 C 109.129 84.993,109.129 84.963,109.292 85.061 C 109.447 85.155,109.500 84.971,109.500 84.333 C 109.500 83.783,109.562 83.519,109.674 83.588 C 109.987 83.781,110.278 83.351,110.305 82.655 C 110.324 82.178,110.441 81.883,110.691 81.680 C 111.061 81.381,111.281 80.253,110.931 80.448 C 110.832 80.504,110.844 80.448,110.958 80.324 C 111.073 80.201,111.167 79.965,111.167 79.800 C 111.167 79.635,111.236 79.500,111.321 79.500 C 111.746 79.500,112.000 78.937,112.000 77.996 C 112.000 77.172,112.067 76.948,112.417 76.598 C 112.646 76.369,112.833 75.994,112.833 75.765 C 112.833 75.536,113.021 75.161,113.250 74.932 C 113.621 74.561,113.667 74.377,113.667 73.258 C 113.667 72.015,113.713 71.917,114.271 71.983 C 114.374 71.995,114.458 71.817,114.458 71.588 C 114.458 71.352,114.627 71.034,114.847 70.856 C 115.181 70.585,115.248 70.346,115.326 69.146 C 115.407 67.891,115.450 67.750,115.750 67.750 C 115.978 67.750,116.089 67.633,116.102 67.379 C 116.112 67.174,116.289 66.871,116.496 66.704 C 116.771 66.481,116.904 66.137,116.997 65.408 L 117.123 64.417 117.145 65.708 C 117.166 66.969,117.177 67.000,117.583 67.000 C 117.975 67.000,118.160 67.653,118.020 68.542 C 118.009 68.610,118.056 68.658,118.125 68.647 C 118.782 68.543,118.833 68.645,118.836 70.042 C 118.838 70.991,118.888 71.339,119.000 71.167 C 119.089 71.029,119.163 70.995,119.164 71.092 C 119.166 71.188,119.077 71.357,118.967 71.467 C 118.648 71.785,119.067 72.123,119.419 71.831 C 119.566 71.710,119.672 71.679,119.656 71.763 C 119.552 72.312,119.686 73.008,119.875 72.895 C 120.010 72.813,120.001 72.871,119.849 73.058 C 119.525 73.457,119.861 73.823,120.252 73.498 C 120.399 73.376,120.506 73.346,120.490 73.430 C 120.277 74.549,120.529 76.167,120.917 76.167 C 121.306 76.167,121.333 76.222,121.333 77.008 C 121.333 77.682,121.416 77.931,121.749 78.264 C 122.093 78.609,122.169 78.854,122.188 79.684 C 122.209 80.633,122.446 81.167,122.845 81.167 C 122.930 81.167,123.000 81.509,123.000 81.927 C 123.000 82.490,123.054 82.654,123.208 82.561 C 123.371 82.463,123.371 82.493,123.205 82.697 C 122.943 83.021,123.094 83.454,123.515 83.588 C 123.795 83.677,123.941 84.337,123.865 85.174 C 123.860 85.223,124.010 85.276,124.197 85.290 C 124.672 85.326,124.677 85.337,124.704 86.469 C 124.720 87.136,124.789 87.445,124.906 87.376 C 125.003 87.317,124.983 87.393,124.860 87.544 C 124.669 87.781,124.698 87.880,125.069 88.251 C 125.306 88.488,125.500 88.869,125.500 89.098 C 125.500 89.328,125.688 89.703,125.917 89.932 C 126.146 90.161,126.333 90.536,126.333 90.765 C 126.333 90.994,126.521 91.369,126.750 91.598 L 127.167 92.015 131.765 91.966 L 136.363 91.917 136.682 91.523 C 136.908 91.244,137.000 90.867,137.000 90.222 C 137.000 89.633,137.061 89.352,137.174 89.421 C 137.479 89.609,137.778 89.191,137.803 88.545 C 137.816 88.201,137.904 87.893,137.999 87.861 C 138.354 87.743,138.684 87.280,138.657 86.937 C 138.528 85.283,138.665 84.500,139.083 84.500 C 139.478 84.500,139.500 84.451,139.500 83.573 C 139.500 82.972,139.561 82.685,139.674 82.755 C 140.089 83.011,140.291 82.476,140.319 81.045 C 140.351 79.461,140.342 79.494,140.763 79.432 C 141.064 79.388,141.126 79.200,141.192 78.131 C 141.224 77.633,141.275 77.549,141.456 77.699 C 141.814 77.997,142.120 77.597,141.818 77.225 C 141.666 77.038,141.657 76.980,141.792 77.061 C 141.948 77.155,142.000 76.958,142.000 76.267 C 142.000 75.509,142.073 75.276,142.417 74.932 C 142.762 74.587,142.833 74.355,142.833 73.581 C 142.833 72.975,142.894 72.685,143.007 72.755 C 143.365 72.976,143.607 72.488,143.647 71.463 C 143.708 69.908,143.691 69.979,143.952 70.196 C 144.314 70.496,144.622 70.100,144.318 69.725 C 144.189 69.566,144.169 69.488,144.274 69.551 C 144.408 69.631,144.469 69.389,144.477 68.739 C 144.485 67.996,144.560 67.755,144.853 67.518 C 145.127 67.295,145.237 66.988,145.296 66.278 C 145.339 65.758,145.445 65.333,145.530 65.333 C 145.616 65.333,145.630 65.240,145.561 65.125 C 145.461 64.959,145.488 64.959,145.692 65.124 C 146.024 65.392,146.225 65.190,145.957 64.858 C 145.792 64.654,145.792 64.628,145.958 64.728 C 146.116 64.822,146.167 64.608,146.167 63.851 C 146.167 63.004,146.231 62.784,146.583 62.432 C 146.918 62.097,147.000 61.849,147.000 61.174 C 147.000 60.352,147.090 60.237,147.684 60.306 C 147.740 60.312,147.800 59.758,147.818 59.074 C 147.846 58.002,147.907 57.775,148.259 57.423 C 148.498 57.184,148.667 56.821,148.667 56.548 C 148.667 56.265,148.795 56.000,148.992 55.877 C 149.171 55.766,149.366 55.410,149.427 55.087 L 149.537 54.500 151.352 54.479 C 153.679 54.452,153.540 54.480,153.610 54.026 C 153.643 53.810,153.830 53.504,154.027 53.345 C 154.324 53.104,154.395 52.837,154.450 51.742 C 154.523 50.290,154.511 50.327,154.943 50.264 C 155.216 50.224,155.256 50.017,155.304 48.422 C 155.361 46.504,155.314 46.356,154.627 46.299 C 154.280 46.270,154.224 46.215,154.369 46.041 C 154.504 45.878,154.498 45.766,154.348 45.618 C 154.187 45.460,154.074 45.502,153.822 45.810 C 153.645 46.027,153.500 46.135,153.500 46.052 C 153.500 45.968,153.592 45.808,153.704 45.696 C 153.865 45.535,151.958 45.495,144.688 45.504 L 135.469 45.516 135.068 45.917 C 134.847 46.138,134.667 46.516,134.667 46.757 C 134.667 47.012,134.509 47.324,134.292 47.500 C 133.932 47.792,133.917 47.908,133.917 50.417 C 133.917 52.925,133.932 53.042,134.292 53.333 C 134.506 53.507,134.667 53.822,134.667 54.068 L 134.667 54.500 136.757 54.500 L 138.847 54.500 138.808 55.160 C 138.776 55.693,138.726 55.785,138.544 55.634 C 138.186 55.336,137.880 55.736,138.182 56.108 C 138.334 56.296,138.343 56.353,138.208 56.272 C 138.060 56.183,138.000 56.292,138.000 56.649 C 138.000 56.963,137.843 57.308,137.583 57.568 C 137.213 57.939,137.167 58.123,137.167 59.242 C 137.167 60.016,137.099 60.500,136.990 60.500 C 136.893 60.500,136.870 60.594,136.939 60.708 C 137.039 60.875,137.012 60.875,136.808 60.710 C 136.476 60.441,136.275 60.643,136.543 60.975 C 136.708 61.179,136.708 61.205,136.542 61.105 C 136.391 61.015,136.333 61.142,136.333 61.566 C 136.333 61.968,136.203 62.282,135.917 62.568 C 135.546 62.939,135.500 63.123,135.500 64.242 C 135.500 64.956,135.428 65.509,135.333 65.521 C 135.242 65.532,135.074 65.551,134.961 65.563 C 134.838 65.575,134.732 65.916,134.696 66.417 C 134.661 66.902,134.539 67.305,134.404 67.382 C 133.981 67.622,133.804 68.134,134.011 68.520 C 134.144 68.769,134.145 68.840,134.017 68.760 C 133.892 68.683,133.833 68.942,133.833 69.573 C 133.833 70.451,133.811 70.500,133.417 70.500 C 133.029 70.500,132.998 70.561,132.971 71.375 C 132.943 72.217,132.939 72.223,132.878 71.538 C 132.833 71.043,132.753 70.862,132.615 70.945 C 132.492 71.019,132.502 70.959,132.640 70.789 C 132.831 70.553,132.804 70.455,132.445 70.096 C 132.142 69.793,132.011 69.459,131.969 68.881 C 131.934 68.407,131.827 68.075,131.705 68.063 C 131.592 68.051,131.425 68.032,131.333 68.021 C 131.242 68.009,131.167 67.546,131.167 66.990 C 131.167 66.227,131.116 66.011,130.958 66.105 C 130.792 66.205,130.792 66.179,130.957 65.975 C 131.225 65.643,131.024 65.441,130.692 65.710 C 130.488 65.875,130.461 65.875,130.561 65.708 C 130.630 65.594,130.616 65.500,130.530 65.500 C 130.445 65.500,130.339 65.075,130.296 64.556 C 130.238 63.851,130.127 63.537,129.859 63.321 C 129.563 63.081,129.500 62.853,129.500 62.027 C 129.500 61.063,129.250 60.500,128.821 60.500 C 128.736 60.500,128.666 60.256,128.664 59.958 C 128.662 59.547,128.623 59.477,128.500 59.667 C 128.411 59.804,128.337 59.838,128.336 59.742 C 128.334 59.645,128.423 59.477,128.533 59.367 C 128.852 59.048,128.433 58.710,128.081 59.002 C 127.934 59.124,127.828 59.154,127.844 59.070 C 128.057 57.951,127.804 56.333,127.417 56.333 C 127.028 56.333,127.000 56.278,127.000 55.500 C 127.000 54.722,126.972 54.667,126.583 54.667 C 126.176 54.667,126.167 54.639,126.167 53.409 C 126.167 52.290,126.121 52.106,125.750 51.735 C 125.521 51.506,125.333 51.134,125.333 50.909 C 125.333 50.584,125.248 50.500,124.917 50.500 L 124.500 50.500 124.500 48.833 L 124.500 47.167 124.083 47.167 C 123.782 47.167,123.667 47.077,123.667 46.843 C 123.667 46.461,123.512 46.344,122.941 46.297 C 122.610 46.270,122.558 46.214,122.702 46.041 C 122.837 45.878,122.832 45.766,122.681 45.618 C 122.521 45.460,122.407 45.502,122.155 45.810 C 121.978 46.027,121.833 46.135,121.833 46.052 C 121.833 45.968,121.923 45.810,122.033 45.700 C 122.189 45.544,121.520 45.500,119.023 45.500 C 116.500 45.500,115.840 45.545,115.939 45.708 C 116.028 45.856,115.984 45.852,115.789 45.694 C 115.266 45.270,113.907 46.865,113.857 47.961 C 113.826 48.633,113.722 48.929,113.408 49.243 C 113.038 49.614,112.833 50.748,112.990 51.570 C 113.006 51.654,112.899 51.624,112.752 51.502 C 112.401 51.210,111.982 51.548,112.300 51.867 C 112.410 51.977,112.499 52.145,112.497 52.242 C 112.496 52.338,112.422 52.304,112.333 52.167 C 112.219 51.989,112.171 52.191,112.169 52.863 C 112.167 53.717,112.130 53.815,111.792 53.863 C 111.470 53.909,111.409 54.032,111.365 54.731 C 111.328 55.315,111.214 55.626,110.964 55.829 C 110.708 56.037,110.595 56.361,110.537 57.056 C 110.466 57.917,110.424 58.000,110.063 58.000 C 109.681 58.000,109.667 58.045,109.667 59.250 C 109.667 60.472,109.657 60.500,109.250 60.500 C 108.861 60.500,108.833 60.556,108.833 61.333 C 108.833 62.153,108.726 62.281,108.125 62.186 C 108.056 62.176,108.009 62.223,108.020 62.292 C 108.198 63.424,107.970 64.667,107.583 64.667 C 107.194 64.667,107.167 64.722,107.167 65.500 C 107.167 65.975,107.091 66.333,106.990 66.333 C 106.893 66.333,106.870 66.427,106.939 66.542 C 107.039 66.708,107.012 66.708,106.808 66.543 C 106.476 66.275,106.275 66.476,106.543 66.808 C 106.657 66.949,106.668 67.015,106.567 66.955 C 106.444 66.881,106.374 67.158,106.354 67.798 C 106.337 68.321,106.250 68.775,106.161 68.806 C 106.071 68.837,106.050 68.949,106.114 69.056 C 106.192 69.186,106.147 69.182,105.975 69.043 C 105.643 68.775,105.441 68.976,105.710 69.308 C 105.875 69.512,105.875 69.539,105.708 69.439 C 105.521 69.326,105.380 70.161,105.490 70.737 C 105.506 70.821,105.399 70.790,105.252 70.669 C 104.861 70.344,104.525 70.710,104.849 71.108 C 105.051 71.357,105.050 71.378,104.847 71.255 C 104.678 71.153,104.636 71.180,104.699 71.348 C 104.747 71.477,104.728 71.733,104.655 71.917 C 104.546 72.192,104.394 70.340,104.480 69.792 C 104.491 69.723,104.444 69.676,104.375 69.686 C 103.808 69.776,103.683 69.639,103.634 68.875 C 103.591 68.199,103.528 68.076,103.208 68.030 C 102.870 67.982,102.626 65.981,102.814 64.792 C 102.824 64.723,102.777 64.676,102.708 64.686 C 102.142 64.776,102.016 64.639,101.967 63.875 C 101.924 63.199,101.862 63.076,101.542 63.030 C 101.189 62.980,101.165 62.895,101.146 61.572 C 101.119 59.751,101.119 59.754,100.875 59.729 C 100.760 59.718,100.592 59.699,100.500 59.688 C 100.408 59.676,100.333 59.222,100.333 58.679 C 100.333 57.730,100.081 57.167,99.655 57.167 C 99.570 57.167,99.500 56.834,99.500 56.427 C 99.500 56.019,99.421 55.638,99.325 55.578 C 99.206 55.505,99.215 55.393,99.352 55.228 C 99.631 54.891,99.286 54.526,98.952 54.804 C 98.774 54.951,98.722 54.938,98.722 54.747 C 98.722 54.542,99.072 54.500,100.778 54.500 L 102.833 54.500 102.833 50.409 L 102.833 46.318 102.432 45.917 L 102.030 45.515 91.978 45.504 C 84.060 45.495,81.969 45.536,82.130 45.696 C 82.242 45.808,82.333 45.977,82.333 46.070 C 82.333 46.164,82.217 46.074,82.074 45.870 C 81.791 45.466,81.579 45.404,81.412 45.674 M165.892 45.926 C 165.570 46.248,165.312 46.333,164.659 46.333 C 163.889 46.333,163.833 46.362,163.833 46.750 C 163.833 47.142,162.903 47.353,161.941 47.181 C 161.692 47.136,161.315 47.545,161.400 47.767 C 161.451 47.901,161.316 47.999,161.033 48.031 C 160.714 48.068,160.568 48.192,160.530 48.458 C 160.481 48.804,160.052 48.957,159.441 48.847 C 159.187 48.802,158.816 49.214,158.904 49.443 C 158.951 49.566,158.912 49.667,158.818 49.667 C 158.724 49.667,158.703 49.760,158.772 49.875 C 158.853 50.010,158.796 50.001,158.608 49.849 C 158.197 49.515,157.849 49.864,158.182 50.275 C 158.334 50.462,158.343 50.520,158.208 50.439 C 158.091 50.368,158.000 50.395,158.000 50.500 C 158.000 50.602,157.922 50.638,157.826 50.579 C 157.523 50.392,157.222 50.807,157.198 51.444 C 157.174 52.071,156.941 52.364,156.578 52.225 C 156.451 52.176,156.375 52.307,156.375 52.572 C 156.375 52.812,156.211 53.129,155.995 53.304 C 155.704 53.539,155.597 53.833,155.537 54.556 C 155.494 55.075,155.393 55.509,155.313 55.521 C 155.232 55.532,155.073 55.551,154.958 55.563 C 154.802 55.578,154.741 56.283,154.714 58.366 L 154.679 61.149 159.714 61.157 C 165.787 61.168,165.287 61.371,165.320 58.875 C 165.333 57.879,165.351 57.833,165.750 57.833 C 166.139 57.833,166.167 57.778,166.167 57.000 C 166.167 56.218,166.193 56.167,166.591 56.167 C 166.832 56.167,167.210 55.970,167.466 55.711 C 167.714 55.460,167.981 55.276,168.059 55.300 C 168.300 55.376,168.687 54.960,168.596 54.723 C 168.434 54.301,172.958 54.412,173.307 54.838 C 173.550 55.135,174.149 55.355,174.789 55.381 C 174.945 55.387,174.948 55.445,174.804 55.618 C 174.504 55.980,174.900 56.289,175.275 55.985 C 175.462 55.832,175.520 55.823,175.439 55.958 C 175.350 56.107,175.460 56.167,175.823 56.167 L 176.333 56.167 176.333 57.571 C 176.333 58.943,176.529 59.500,177.012 59.500 C 177.099 59.500,177.167 60.444,177.167 61.667 L 177.167 63.833 173.262 63.833 C 169.294 63.833,168.833 63.903,168.833 64.501 C 168.833 64.581,167.477 64.669,165.818 64.698 C 162.924 64.748,162.791 64.765,162.500 65.125 C 162.289 65.385,162.017 65.500,161.610 65.500 C 161.062 65.500,160.500 65.839,160.500 66.169 C 160.500 66.250,160.144 66.338,159.708 66.366 C 159.033 66.409,158.909 66.472,158.863 66.792 C 158.822 67.085,158.702 67.167,158.312 67.167 C 157.958 67.167,157.850 67.227,157.939 67.375 C 158.020 67.510,157.962 67.501,157.775 67.349 C 157.406 67.049,157.003 67.352,157.298 67.707 C 157.442 67.881,157.390 67.936,157.059 67.964 C 156.488 68.011,156.333 68.128,156.333 68.510 C 156.333 68.744,156.218 68.833,155.917 68.833 C 155.583 68.833,155.500 68.917,155.500 69.250 C 155.500 69.583,155.417 69.667,155.083 69.667 C 154.695 69.667,154.667 69.723,154.667 70.488 C 154.667 71.214,154.623 71.316,154.292 71.363 C 154.053 71.397,153.898 71.551,153.864 71.784 C 153.836 71.986,153.671 72.196,153.498 72.251 C 153.204 72.344,152.956 72.784,153.014 73.108 C 153.232 74.322,152.963 77.149,152.625 77.197 C 152.259 77.249,152.249 77.305,152.204 79.625 L 152.158 82.000 152.579 82.000 L 153.000 82.000 153.000 83.821 C 153.000 85.621,153.158 86.167,153.679 86.167 C 153.764 86.167,153.833 86.354,153.833 86.583 C 153.833 86.917,153.917 87.000,154.250 87.000 C 154.604 87.000,154.667 87.077,154.667 87.510 C 154.667 87.873,154.726 87.984,154.875 87.895 C 155.010 87.813,155.001 87.871,154.849 88.058 C 154.525 88.457,154.861 88.823,155.252 88.498 C 155.399 88.376,155.500 88.346,155.476 88.430 C 155.388 88.748,155.696 89.320,156.009 89.419 C 156.187 89.476,156.333 89.597,156.333 89.688 C 156.333 89.779,156.427 89.797,156.542 89.728 C 156.708 89.628,156.708 89.654,156.543 89.858 C 156.275 90.190,156.476 90.392,156.808 90.124 C 156.949 90.009,157.015 89.999,156.954 90.100 C 156.885 90.216,157.032 90.288,157.356 90.297 C 157.941 90.314,158.078 90.410,158.081 90.803 C 158.082 90.957,158.209 91.084,158.363 91.085 C 158.712 91.088,158.846 91.218,158.903 91.610 C 158.955 91.964,158.897 91.952,160.738 91.979 C 162.061 91.999,162.147 92.022,162.197 92.375 L 162.250 92.750 166.292 92.795 L 170.333 92.839 170.333 92.420 C 170.333 92.006,170.353 92.000,171.750 91.979 C 173.583 91.952,173.580 91.953,173.604 91.708 C 173.616 91.594,173.634 91.425,173.646 91.333 C 173.657 91.242,173.854 91.167,174.083 91.167 C 174.417 91.167,174.500 91.083,174.500 90.750 C 174.500 90.352,174.545 90.333,175.488 90.333 C 176.145 90.333,176.550 90.251,176.696 90.089 C 177.084 89.659,177.312 89.422,177.534 89.216 C 177.653 89.106,177.844 88.902,177.960 88.764 C 178.079 88.619,178.288 88.557,178.447 88.618 C 178.648 88.695,178.698 88.655,178.628 88.472 C 178.574 88.333,178.598 88.114,178.680 87.985 C 178.788 87.814,178.835 87.807,178.852 87.958 C 178.864 88.073,178.884 88.253,178.896 88.359 C 178.907 88.465,179.059 88.572,179.233 88.598 C 179.617 88.654,179.835 88.969,179.712 89.289 C 179.658 89.429,179.716 89.512,179.852 89.493 C 180.355 89.423,180.500 89.517,180.500 89.917 C 180.500 90.247,180.584 90.333,180.905 90.333 C 181.198 90.333,181.325 90.437,181.363 90.708 C 181.402 90.977,181.547 91.098,181.878 91.136 C 182.131 91.165,182.294 91.263,182.238 91.352 C 181.907 91.888,182.494 91.978,186.431 91.994 L 190.339 92.010 190.753 91.596 C 190.980 91.368,191.167 90.991,191.167 90.758 C 191.167 90.395,191.241 90.333,191.677 90.333 C 192.040 90.333,192.150 90.274,192.061 90.125 C 191.980 89.990,192.038 89.999,192.225 90.151 C 192.636 90.485,192.985 90.136,192.651 89.725 C 192.499 89.538,192.490 89.480,192.625 89.561 C 192.774 89.650,192.833 89.540,192.833 89.177 C 192.833 88.744,192.896 88.667,193.250 88.667 C 193.583 88.667,193.667 88.583,193.667 88.250 C 193.667 87.913,193.749 87.833,194.097 87.833 L 194.527 87.833 194.472 85.735 C 194.403 83.103,194.322 83.000,192.320 83.000 C 191.294 83.000,191.029 82.952,191.096 82.777 C 191.201 82.504,190.749 82.096,190.507 82.245 C 190.338 82.350,190.259 81.923,190.328 81.273 C 190.351 81.056,190.294 81.003,190.139 81.097 C 189.959 81.205,189.956 81.182,190.124 80.975 C 190.392 80.643,190.190 80.441,189.858 80.710 C 189.654 80.875,189.628 80.875,189.728 80.708 C 189.797 80.594,189.774 80.500,189.677 80.500 C 189.554 80.500,189.500 76.563,189.500 67.583 L 189.500 54.667 189.083 54.667 C 188.715 54.667,188.665 54.594,188.654 54.042 C 188.634 53.078,188.544 52.772,188.197 52.491 C 188.021 52.348,187.825 52.071,187.763 51.874 C 187.701 51.678,187.503 51.471,187.325 51.414 C 187.120 51.349,187.000 51.161,187.000 50.905 C 187.000 50.584,186.914 50.500,186.583 50.500 C 186.250 50.500,186.167 50.417,186.167 50.083 C 186.167 49.750,186.083 49.667,185.750 49.667 C 185.369 49.667,185.236 49.451,185.314 48.958 C 185.324 48.890,185.277 48.842,185.208 48.853 C 184.797 48.918,184.510 48.793,184.419 48.509 C 184.363 48.330,184.168 48.137,183.986 48.079 C 183.805 48.021,183.474 47.792,183.252 47.570 C 182.932 47.250,182.675 47.167,182.008 47.167 C 181.545 47.167,181.157 47.092,181.146 47.000 C 181.134 46.908,181.116 46.741,181.104 46.628 C 181.092 46.506,180.760 46.399,180.286 46.365 C 179.723 46.324,179.373 46.191,179.096 45.914 L 178.703 45.521 172.501 45.520 L 166.299 45.519 165.892 45.926 M279.224 45.928 C 278.903 46.248,278.645 46.333,277.992 46.333 C 277.223 46.333,277.167 46.362,277.167 46.750 C 277.167 47.117,277.092 47.169,276.542 47.185 C 275.325 47.221,275.081 47.252,274.864 47.392 C 274.743 47.470,274.682 47.634,274.729 47.757 C 274.786 47.903,274.660 47.998,274.366 48.031 C 274.047 48.068,273.901 48.192,273.863 48.458 C 273.822 48.752,273.702 48.833,273.312 48.833 C 272.958 48.833,272.850 48.894,272.939 49.042 C 273.020 49.177,272.962 49.168,272.775 49.015 C 272.376 48.692,272.010 49.028,272.335 49.419 C 272.457 49.566,272.487 49.666,272.403 49.643 C 272.085 49.555,271.513 49.863,271.414 50.175 C 271.357 50.354,271.236 50.500,271.146 50.500 C 271.055 50.500,271.037 50.594,271.105 50.708 C 271.205 50.875,271.179 50.875,270.975 50.710 C 270.643 50.441,270.441 50.643,270.710 50.975 C 270.824 51.116,270.835 51.182,270.734 51.121 C 270.617 51.051,270.545 51.201,270.536 51.531 C 270.520 52.088,270.259 52.358,269.878 52.212 C 269.738 52.158,269.655 52.216,269.674 52.352 C 269.743 52.845,269.659 53.182,269.493 53.079 C 269.128 52.853,268.883 53.349,268.853 54.375 C 268.836 54.948,268.749 55.442,268.660 55.473 C 268.571 55.503,268.550 55.616,268.614 55.723 C 268.692 55.853,268.647 55.849,268.475 55.710 C 268.143 55.441,267.941 55.643,268.210 55.975 C 268.348 56.145,268.352 56.192,268.223 56.115 C 268.080 56.029,268.024 56.670,268.009 58.583 L 267.988 61.167 272.911 61.167 L 277.833 61.167 277.833 60.750 C 277.833 60.369,278.049 60.236,278.542 60.314 C 278.610 60.324,278.658 60.277,278.647 60.208 C 278.468 59.076,278.697 57.833,279.083 57.833 C 279.472 57.833,279.500 57.778,279.500 57.000 C 279.500 56.218,279.526 56.167,279.924 56.167 C 280.165 56.167,280.543 55.970,280.799 55.711 C 281.047 55.460,281.314 55.276,281.393 55.300 C 281.633 55.376,282.020 54.960,281.929 54.723 C 281.768 54.301,286.291 54.412,286.640 54.838 C 286.792 55.024,287.142 55.216,287.417 55.265 C 287.692 55.313,287.942 55.424,287.973 55.511 C 288.003 55.598,288.116 55.616,288.223 55.552 C 288.353 55.474,288.349 55.520,288.210 55.692 C 287.941 56.024,288.143 56.225,288.475 55.957 C 288.679 55.792,288.705 55.792,288.605 55.958 C 288.537 56.073,288.555 56.167,288.646 56.167 C 288.736 56.167,288.857 56.313,288.914 56.491 C 288.971 56.670,289.163 56.863,289.342 56.919 C 289.615 57.006,289.667 57.177,289.667 57.999 C 289.667 58.937,289.921 59.500,290.345 59.500 C 290.433 59.500,290.500 60.444,290.500 61.667 L 290.500 63.833 286.875 63.853 C 284.881 63.864,283.186 63.861,283.108 63.847 C 282.784 63.789,282.344 64.038,282.251 64.331 C 282.159 64.622,281.919 64.650,279.144 64.698 C 276.256 64.748,276.124 64.765,275.833 65.126 C 275.616 65.393,275.332 65.509,274.845 65.528 C 274.156 65.555,273.718 65.846,273.907 66.151 C 273.968 66.249,273.657 66.336,273.129 66.366 C 272.363 66.410,272.243 66.465,272.197 66.792 C 272.154 67.092,272.030 67.171,271.572 67.188 C 270.655 67.221,270.617 67.235,270.570 67.557 C 270.513 67.949,270.379 68.079,270.030 68.081 C 269.876 68.082,269.749 68.209,269.748 68.363 C 269.745 68.719,269.553 68.912,269.197 68.915 C 269.028 68.916,268.917 69.050,268.917 69.250 C 268.917 69.490,268.788 69.598,268.458 69.636 C 268.098 69.677,268.000 69.776,268.000 70.094 C 268.000 70.317,267.930 70.500,267.845 70.500 C 267.491 70.500,267.167 71.061,267.167 71.673 C 267.167 72.148,267.106 72.300,266.943 72.237 C 266.561 72.090,266.250 72.614,266.521 72.949 C 266.666 73.127,266.675 73.186,266.547 73.109 C 266.392 73.016,266.332 73.495,266.297 75.118 C 266.253 77.123,266.230 77.250,265.917 77.250 C 265.601 77.250,265.581 77.374,265.546 79.625 L 265.509 82.000 265.921 82.000 L 266.333 82.000 266.333 83.821 C 266.333 85.621,266.491 86.167,267.012 86.167 C 267.097 86.167,267.167 86.358,267.167 86.591 C 267.167 86.824,267.354 87.203,267.583 87.432 C 267.813 87.661,268.000 87.925,268.000 88.017 C 268.000 88.110,268.094 88.130,268.208 88.061 C 268.375 87.961,268.375 87.988,268.210 88.192 C 267.941 88.524,268.143 88.725,268.475 88.457 C 268.679 88.292,268.705 88.292,268.605 88.458 C 268.488 88.653,268.691 88.749,269.070 88.677 C 269.154 88.661,269.124 88.768,269.002 88.914 C 268.707 89.270,269.032 89.653,269.382 89.362 C 269.555 89.218,269.615 89.222,269.629 89.378 C 269.697 90.151,269.784 90.242,270.515 90.303 C 271.368 90.373,271.343 90.359,271.377 90.803 C 271.391 90.990,271.443 91.140,271.493 91.135 C 271.988 91.090,272.167 91.209,272.167 91.583 L 272.167 92.000 273.833 92.000 C 275.542 92.000,275.621 92.033,275.522 92.702 C 275.512 92.768,277.340 92.821,279.583 92.821 C 281.827 92.821,283.655 92.768,283.645 92.702 C 283.547 92.046,283.642 92.000,285.093 92.000 C 286.190 92.000,286.491 91.952,286.395 91.792 C 286.295 91.625,286.321 91.625,286.525 91.790 C 286.857 92.059,287.059 91.857,286.790 91.525 C 286.625 91.321,286.625 91.295,286.792 91.395 C 286.906 91.463,287.000 91.440,287.000 91.343 C 287.000 91.246,287.188 91.167,287.417 91.167 C 287.750 91.167,287.833 91.083,287.833 90.750 C 287.833 90.352,287.879 90.333,288.821 90.333 C 289.764 90.333,290.333 90.081,290.333 89.662 C 290.333 89.393,291.152 88.692,291.530 88.637 C 291.761 88.604,291.947 88.425,292.018 88.167 L 292.133 87.750 292.150 88.208 C 292.164 88.582,292.244 88.667,292.583 88.667 C 292.917 88.667,293.000 88.750,293.000 89.083 C 293.000 89.417,293.083 89.500,293.417 89.500 C 293.750 89.500,293.833 89.583,293.833 89.917 C 293.833 90.250,293.917 90.333,294.250 90.333 C 294.551 90.333,294.667 90.423,294.667 90.657 C 294.667 91.039,294.822 91.156,295.393 91.203 C 295.723 91.230,295.775 91.286,295.631 91.459 C 295.336 91.815,295.739 92.118,296.108 91.818 C 296.267 91.689,296.344 91.672,296.279 91.781 C 296.190 91.930,297.043 91.980,299.789 91.989 C 303.901 92.002,304.158 91.944,304.404 90.954 C 304.556 90.344,304.789 90.220,305.603 90.316 C 305.816 90.341,306.191 89.939,306.153 89.726 C 306.032 89.053,306.189 88.667,306.583 88.667 C 306.917 88.667,307.000 88.583,307.000 88.250 C 307.000 87.872,307.207 87.741,307.697 87.810 C 308.065 87.861,307.802 83.787,307.413 83.398 C 307.051 83.036,305.247 82.803,304.263 82.990 C 304.179 83.006,304.210 82.899,304.331 82.752 C 304.622 82.402,304.303 82.013,303.959 82.299 C 303.722 82.495,303.688 82.383,303.617 81.183 C 303.593 80.774,303.497 80.602,303.276 80.570 C 303.108 80.545,302.940 80.495,302.903 80.459 C 302.867 80.423,302.835 74.620,302.831 67.565 L 302.825 54.737 302.477 54.711 C 302.015 54.676,301.995 54.646,301.969 53.938 C 301.945 53.306,301.642 52.892,301.341 53.079 C 301.190 53.172,301.066 52.423,301.153 51.941 C 301.198 51.687,300.786 51.316,300.557 51.404 C 300.434 51.451,300.324 51.379,300.313 51.245 C 300.301 51.110,300.282 50.913,300.271 50.808 C 300.259 50.702,300.112 50.595,299.943 50.570 C 299.552 50.513,299.488 50.443,299.458 50.052 C 299.444 49.867,299.300 49.723,299.115 49.709 C 298.716 49.679,298.655 49.617,298.625 49.218 C 298.611 49.030,298.466 48.889,298.274 48.875 C 297.973 48.852,297.753 48.648,297.619 48.266 C 297.571 48.128,297.210 48.050,296.458 48.014 C 296.262 48.005,296.167 47.864,296.167 47.583 C 296.167 47.194,296.111 47.167,295.333 47.167 C 294.858 47.167,294.500 47.091,294.500 46.990 C 294.500 46.893,294.406 46.870,294.292 46.939 C 294.125 47.039,294.125 47.012,294.290 46.808 C 294.559 46.476,294.357 46.275,294.025 46.543 C 293.821 46.708,293.795 46.708,293.895 46.542 C 293.985 46.391,293.858 46.333,293.434 46.333 C 293.034 46.333,292.718 46.203,292.437 45.922 L 292.026 45.510 285.827 45.516 L 279.629 45.522 279.224 45.928 M315.020 45.969 C 314.780 46.212,314.495 46.391,314.388 46.367 C 314.113 46.307,313.931 46.653,313.887 47.319 C 313.846 47.924,313.596 48.193,313.211 48.045 C 313.071 47.992,312.988 48.049,313.007 48.186 C 313.077 48.689,312.983 48.833,312.583 48.833 C 312.187 48.833,312.028 49.231,312.156 49.903 C 312.172 49.987,312.066 49.957,311.919 49.835 C 311.528 49.510,311.192 49.876,311.515 50.275 C 311.668 50.462,311.677 50.520,311.542 50.439 C 311.394 50.350,311.333 50.458,311.333 50.812 C 311.333 51.160,311.235 51.342,311.009 51.414 C 310.375 51.615,310.378 52.945,311.013 53.390 C 311.189 53.513,311.348 53.801,311.367 54.029 C 311.398 54.403,311.480 54.447,312.201 54.480 C 312.801 54.507,313.106 54.621,313.417 54.933 L 313.833 55.348 313.833 69.167 L 313.833 82.985 313.417 83.402 C 313.188 83.631,313.000 84.009,313.000 84.242 C 313.000 84.584,312.919 84.667,312.583 84.667 C 312.250 84.667,312.167 84.750,312.167 85.083 C 312.167 85.313,312.087 85.500,311.990 85.500 C 311.893 85.500,311.870 85.594,311.939 85.708 C 312.039 85.875,312.012 85.875,311.808 85.710 C 311.476 85.441,311.275 85.643,311.543 85.975 C 311.708 86.179,311.708 86.205,311.542 86.105 C 311.427 86.037,311.333 86.056,311.333 86.149 C 311.333 86.242,311.146 86.506,310.917 86.735 C 310.688 86.964,310.500 87.342,310.500 87.576 C 310.500 87.920,310.419 88.000,310.072 88.000 L 309.644 88.000 309.697 89.958 L 309.750 91.917 318.791 91.957 C 323.764 91.979,327.824 91.941,327.813 91.873 C 327.737 91.381,327.869 91.167,328.250 91.167 C 328.646 91.167,328.805 90.769,328.677 90.097 C 328.661 90.013,328.768 90.043,328.914 90.165 C 329.306 90.490,329.641 90.124,329.318 89.725 C 329.166 89.538,329.157 89.480,329.292 89.561 C 329.440 89.650,329.500 89.540,329.500 89.177 C 329.500 88.887,329.590 88.661,329.708 88.654 C 330.792 88.588,331.380 87.831,331.177 86.763 C 331.161 86.679,331.268 86.710,331.414 86.831 C 331.806 87.156,332.141 86.790,331.818 86.392 C 331.689 86.233,331.667 86.153,331.770 86.214 C 331.898 86.291,331.964 86.019,331.979 85.342 C 332.002 84.328,331.756 83.833,331.228 83.833 C 331.092 83.833,331.029 83.755,331.088 83.659 C 331.369 83.204,330.814 83.041,328.955 83.034 L 327.083 83.027 327.041 64.921 C 327.007 50.524,326.956 46.840,326.791 46.939 C 326.625 47.039,326.625 47.012,326.790 46.808 C 327.059 46.476,326.857 46.275,326.525 46.543 C 326.321 46.708,326.295 46.708,326.395 46.542 C 326.474 46.409,326.421 46.333,326.250 46.333 C 326.102 46.333,326.029 46.255,326.088 46.159 C 326.384 45.680,325.657 45.368,325.230 45.792 C 324.949 46.069,324.941 46.069,325.048 45.785 C 325.155 45.503,324.906 45.488,320.309 45.508 L 315.457 45.528 315.020 45.969 M338.387 45.931 C 338.166 46.152,337.919 46.333,337.838 46.333 C 337.511 46.333,337.167 46.890,337.167 47.417 C 337.167 47.871,337.096 47.987,336.792 48.030 C 336.551 48.064,336.398 48.217,336.363 48.458 C 336.317 48.786,336.062 48.922,335.625 48.853 C 335.556 48.842,335.509 48.890,335.520 48.958 C 335.594 49.428,335.474 49.813,335.277 49.737 C 335.040 49.646,334.624 50.033,334.700 50.274 C 334.724 50.353,334.553 50.606,334.319 50.837 C 333.675 51.474,333.765 53.857,334.423 53.604 C 334.569 53.548,334.664 53.673,334.698 53.967 C 334.749 54.404,334.784 54.418,335.958 54.466 L 337.167 54.515 337.167 69.162 L 337.167 83.810 336.792 83.863 C 336.551 83.898,336.398 84.051,336.363 84.292 C 336.325 84.563,336.198 84.667,335.905 84.667 C 335.584 84.667,335.500 84.753,335.500 85.083 C 335.500 85.313,335.430 85.500,335.345 85.500 C 335.069 85.500,334.645 86.037,334.735 86.271 C 334.784 86.399,334.718 86.500,334.588 86.500 C 334.275 86.500,333.833 87.149,333.833 87.609 C 333.833 87.864,333.718 87.993,333.458 88.030 C 333.101 88.081,333.081 88.163,333.036 89.805 C 332.998 91.173,333.032 91.501,333.202 91.398 C 333.374 91.295,333.376 91.320,333.210 91.525 C 332.941 91.857,333.143 92.059,333.475 91.790 C 333.674 91.629,333.703 91.629,333.608 91.788 C 333.511 91.949,335.710 91.985,343.951 91.955 L 354.417 91.917 354.470 91.542 C 354.509 91.268,354.635 91.167,354.936 91.167 L 355.349 91.167 355.300 87.557 C 355.252 84.106,355.236 83.946,354.920 83.900 C 354.738 83.873,354.563 83.772,354.530 83.675 C 354.498 83.577,354.384 83.550,354.277 83.614 C 354.147 83.692,354.151 83.647,354.290 83.475 C 354.559 83.143,354.357 82.941,354.025 83.210 C 353.821 83.375,353.795 83.375,353.895 83.208 C 353.992 83.047,353.607 83.000,352.177 83.000 L 350.333 83.000 350.333 72.485 C 350.333 62.121,350.338 61.966,350.672 61.693 C 350.858 61.541,351.050 61.193,351.098 60.920 C 351.202 60.337,351.214 60.321,351.596 60.265 C 351.757 60.242,351.908 60.090,351.932 59.929 C 351.988 59.550,352.058 59.487,352.470 59.456 C 352.657 59.442,352.807 59.390,352.802 59.340 C 352.757 58.845,352.876 58.667,353.250 58.667 C 353.583 58.667,353.667 58.583,353.667 58.250 C 353.667 57.856,354.053 57.699,354.726 57.819 C 354.980 57.865,355.351 57.453,355.263 57.223 C 355.216 57.100,355.287 56.991,355.422 56.979 C 355.557 56.968,355.760 56.949,355.875 56.938 C 355.990 56.926,356.093 56.823,356.104 56.708 C 356.116 56.594,356.134 56.425,356.146 56.333 C 356.159 56.226,357.958 56.167,361.167 56.167 L 366.167 56.167 366.167 55.735 C 366.167 55.489,366.327 55.173,366.542 55.000 C 366.909 54.703,366.917 54.623,366.917 51.250 C 366.917 47.877,366.909 47.797,366.542 47.500 C 366.324 47.324,366.167 47.012,366.167 46.757 C 366.167 45.608,365.828 45.523,361.172 45.506 C 357.803 45.493,357.000 45.532,357.102 45.703 C 357.191 45.851,357.142 45.844,356.942 45.682 C 356.543 45.359,356.177 45.694,356.502 46.086 C 356.624 46.232,356.654 46.339,356.570 46.323 C 355.645 46.147,354.667 46.357,354.667 46.732 C 354.667 47.139,354.016 47.466,353.652 47.241 C 353.423 47.100,352.966 47.505,353.065 47.761 C 353.110 47.879,352.973 48.012,352.750 48.068 C 352.383 48.161,352.046 48.718,352.143 49.070 C 352.166 49.154,352.066 49.124,351.919 49.002 C 351.528 48.677,351.192 49.043,351.515 49.442 C 351.668 49.629,351.677 49.687,351.542 49.605 C 351.394 49.517,351.333 49.623,351.333 49.971 C 351.333 50.389,351.259 50.473,350.833 50.536 L 350.333 50.609 350.314 48.596 C 350.303 47.489,350.303 46.527,350.314 46.458 C 350.324 46.390,350.277 46.342,350.208 46.353 C 349.782 46.420,349.329 46.309,349.421 46.159 C 349.717 45.680,348.990 45.368,348.563 45.792 C 348.283 46.069,348.274 46.069,348.382 45.785 C 348.489 45.503,348.239 45.488,343.642 45.508 L 338.790 45.528 338.387 45.931 M101.741 45.841 C 101.892 45.715,102.036 45.771,102.266 46.042 L 102.583 46.417 102.208 46.099 C 101.863 45.806,101.749 45.847,101.823 46.237 C 101.839 46.321,101.735 46.293,101.593 46.174 C 101.450 46.056,101.339 45.875,101.346 45.771 C 101.354 45.660,101.395 45.671,101.446 45.799 C 101.507 45.951,101.593 45.963,101.741 45.841 M136.054 45.799 C 136.105 45.671,136.146 45.660,136.154 45.771 C 136.161 45.875,136.050 46.056,135.907 46.174 C 135.765 46.293,135.661 46.321,135.677 46.237 C 135.751 45.847,135.637 45.806,135.292 46.099 L 134.917 46.417 135.234 46.042 C 135.464 45.771,135.608 45.715,135.759 45.841 C 135.907 45.963,135.993 45.951,136.054 45.799 M178.408 45.841 C 178.559 45.715,178.703 45.771,178.933 46.042 L 179.250 46.417 178.875 46.099 C 178.529 45.806,178.416 45.847,178.490 46.237 C 178.506 46.321,178.402 46.293,178.259 46.174 C 178.117 46.056,178.006 45.875,178.013 45.771 C 178.021 45.660,178.061 45.671,178.113 45.799 C 178.174 45.951,178.260 45.963,178.408 45.841 M190.221 45.799 C 190.272 45.671,190.312 45.660,190.320 45.771 C 190.327 45.875,190.217 46.056,190.074 46.174 C 189.931 46.293,189.828 46.321,189.844 46.237 C 189.918 45.847,189.804 45.806,189.458 46.099 L 189.083 46.417 189.400 46.042 C 189.630 45.771,189.774 45.715,189.926 45.841 C 190.073 45.963,190.160 45.951,190.221 45.799 M291.741 45.841 C 291.892 45.715,292.036 45.771,292.266 46.042 L 292.583 46.417 292.208 46.099 C 291.863 45.806,291.749 45.847,291.823 46.237 C 291.839 46.321,291.735 46.293,291.593 46.174 C 291.450 46.056,291.339 45.875,291.346 45.771 C 291.354 45.660,291.395 45.671,291.446 45.799 C 291.507 45.951,291.593 45.963,291.741 45.841 M316.054 45.799 C 316.105 45.671,316.146 45.660,316.154 45.771 C 316.161 45.875,316.050 46.056,315.907 46.174 C 315.765 46.293,315.661 46.321,315.677 46.237 C 315.751 45.847,315.637 45.806,315.292 46.099 L 314.917 46.417 315.234 46.042 C 315.464 45.771,315.608 45.715,315.759 45.841 C 315.907 45.963,315.993 45.951,316.054 45.799 M339.387 45.799 C 339.439 45.671,339.479 45.660,339.487 45.771 C 339.494 45.875,339.383 46.056,339.241 46.174 C 339.098 46.293,338.994 46.321,339.010 46.237 C 339.084 45.847,338.971 45.806,338.625 46.099 L 338.250 46.417 338.567 46.042 C 338.797 45.771,338.941 45.715,339.092 45.841 C 339.240 45.963,339.326 45.951,339.387 45.799 M100.558 45.958 C 100.628 46.072,94.063 46.070,85.917 45.954 C 84.175 45.929,86.739 45.892,91.615 45.871 C 96.491 45.850,100.515 45.890,100.558 45.958 M120.133 45.957 C 119.427 45.988,118.227 45.988,117.466 45.957 C 116.706 45.927,117.283 45.901,118.750 45.901 C 120.217 45.901,120.839 45.926,120.133 45.957 M150.250 45.954 C 143.004 46.070,136.872 46.072,136.942 45.958 C 136.985 45.890,140.634 45.850,145.052 45.871 C 149.469 45.891,151.808 45.929,150.250 45.954 M209.167 45.955 C 199.014 46.070,191.039 46.072,191.109 45.958 C 191.152 45.890,196.113 45.851,202.135 45.872 C 208.157 45.893,211.321 45.930,209.167 45.955 M239.113 45.958 C 236.838 45.984,233.163 45.984,230.947 45.958 C 228.730 45.932,230.592 45.910,235.083 45.911 C 239.575 45.911,241.389 45.932,239.113 45.958 M263.365 45.958 C 262.145 45.986,260.195 45.986,259.032 45.958 C 257.868 45.929,258.867 45.906,261.250 45.906 C 263.633 45.906,264.585 45.929,263.365 45.958 M323.417 45.949 C 320.129 46.068,316.871 46.073,316.942 45.958 C 316.985 45.890,318.759 45.849,320.885 45.867 C 323.011 45.886,324.150 45.923,323.417 45.949 M346.750 45.949 C 343.462 46.068,340.204 46.073,340.275 45.958 C 340.318 45.890,342.092 45.849,344.218 45.867 C 346.344 45.886,347.483 45.923,346.750 45.949 M337.881 47.019 C 337.600 47.300,337.266 47.032,337.518 46.728 C 337.658 46.560,337.772 46.539,337.893 46.660 C 338.013 46.780,338.010 46.890,337.881 47.019 M370.680 47.400 C 370.575 47.527,370.510 47.733,370.536 47.857 C 370.562 47.982,370.482 48.062,370.357 48.036 C 369.764 47.911,369.683 48.294,369.683 51.250 C 369.683 54.103,369.779 54.623,370.274 54.467 C 370.353 54.442,370.620 54.627,370.867 54.878 C 371.315 55.331,371.332 55.333,373.617 55.331 C 376.291 55.328,376.676 55.206,376.904 54.288 C 376.989 53.946,377.125 53.667,377.206 53.667 C 377.287 53.667,377.297 53.573,377.228 53.458 C 377.128 53.292,377.154 53.292,377.358 53.457 C 377.690 53.725,377.892 53.524,377.624 53.192 C 377.459 52.988,377.459 52.961,377.625 53.061 C 377.787 53.159,377.833 52.707,377.833 51.010 L 377.833 48.833 377.417 48.833 C 377.188 48.833,376.994 48.740,376.987 48.625 C 376.908 47.326,376.742 47.256,373.597 47.209 C 371.438 47.177,370.833 47.217,370.680 47.400 M134.367 48.021 C 134.152 48.416,134.133 48.560,134.292 48.618 C 134.440 48.672,134.500 49.191,134.500 50.417 C 134.500 51.642,134.440 52.161,134.292 52.215 C 134.135 52.273,134.159 52.431,134.387 52.854 C 134.653 53.346,134.655 53.382,134.409 53.141 C 133.874 52.618,134.044 47.500,134.596 47.500 C 134.626 47.500,134.523 47.734,134.367 48.021 M366.697 51.250 C 366.697 54.099,366.660 54.578,366.420 54.812 C 366.183 55.044,366.187 55.001,366.446 54.521 C 366.675 54.098,366.698 53.940,366.542 53.882 C 366.387 53.825,366.333 53.142,366.333 51.250 C 366.333 49.358,366.387 48.675,366.542 48.618 C 366.698 48.560,366.675 48.402,366.446 47.979 C 366.187 47.499,366.183 47.456,366.420 47.688 C 366.660 47.922,366.697 48.401,366.697 51.250 M184.174 48.726 C 183.951 48.949,183.578 48.612,183.746 48.340 C 183.832 48.200,183.926 48.203,184.105 48.352 C 184.273 48.491,184.294 48.606,184.174 48.726 M297.507 48.726 C 297.285 48.949,296.911 48.612,297.079 48.340 C 297.166 48.200,297.260 48.203,297.439 48.352 C 297.607 48.491,297.628 48.606,297.507 48.726 M352.881 48.685 C 352.600 48.967,352.266 48.699,352.518 48.395 C 352.658 48.227,352.772 48.206,352.893 48.326 C 353.013 48.447,353.010 48.557,352.881 48.685 M272.048 50.352 C 271.767 50.633,271.432 50.366,271.685 50.061 C 271.824 49.893,271.939 49.872,272.060 49.993 C 272.180 50.113,272.177 50.223,272.048 50.352 M265.905 51.314 C 265.955 51.396,265.891 51.549,265.763 51.656 C 265.503 51.871,265.237 51.624,265.417 51.333 C 265.544 51.127,265.783 51.118,265.905 51.314 M187.507 52.060 C 187.285 52.282,186.911 51.945,187.079 51.673 C 187.166 51.533,187.260 51.536,187.439 51.685 C 187.607 51.824,187.628 51.939,187.507 52.060 M311.084 52.101 C 310.762 52.339,310.761 52.363,311.045 52.882 L 311.338 53.417 311.000 53.020 C 310.533 52.472,310.749 51.178,311.227 51.663 C 311.369 51.808,311.333 51.917,311.084 52.101 M48.917 52.330 C 48.733 52.409,44.914 56.149,40.429 60.641 L 32.276 68.809 40.548 77.081 C 48.372 84.904,48.841 85.341,49.202 85.154 C 49.776 84.855,65.824 68.788,65.829 68.506 C 65.835 68.180,49.819 52.166,49.500 52.178 C 49.362 52.183,49.100 52.252,48.917 52.330 M289.583 56.333 C 289.763 56.624,289.497 56.871,289.237 56.656 C 289.109 56.549,289.045 56.396,289.095 56.314 C 289.217 56.118,289.456 56.127,289.583 56.333 M100.119 58.039 L 100.177 58.417 99.818 58.058 C 99.615 57.856,99.513 57.614,99.582 57.502 C 99.745 57.238,100.043 57.535,100.119 58.039 M226.333 57.671 C 226.333 57.754,226.190 57.898,226.015 57.992 C 225.679 58.172,225.623 57.968,225.891 57.539 C 226.029 57.319,226.333 57.409,226.333 57.671 M177.083 58.833 C 177.263 59.124,176.997 59.371,176.737 59.156 C 176.609 59.049,176.545 58.896,176.595 58.814 C 176.717 58.618,176.956 58.627,177.083 58.833 M290.417 58.833 C 290.596 59.124,290.330 59.371,290.070 59.156 C 289.942 59.049,289.878 58.896,289.928 58.814 C 290.050 58.618,290.289 58.627,290.417 58.833 M165.072 60.481 C 165.122 60.562,165.058 60.716,164.930 60.823 C 164.670 61.038,164.404 60.790,164.583 60.500 C 164.711 60.294,164.950 60.284,165.072 60.481 M129.267 61.246 C 129.295 61.442,129.235 61.459,128.985 61.325 C 128.653 61.148,128.587 60.969,128.781 60.775 C 128.924 60.631,129.218 60.917,129.267 61.246 M214.174 62.060 C 213.951 62.282,213.578 61.945,213.746 61.673 C 213.832 61.533,213.926 61.536,214.105 61.685 C 214.273 61.824,214.294 61.939,214.174 62.060 M169.548 64.519 C 169.267 64.800,168.932 64.532,169.185 64.228 C 169.324 64.060,169.439 64.039,169.560 64.160 C 169.680 64.280,169.677 64.390,169.548 64.519 M282.881 64.519 C 282.600 64.800,282.266 64.532,282.518 64.228 C 282.658 64.060,282.772 64.039,282.893 64.160 C 283.013 64.280,283.010 64.390,282.881 64.519 M201.250 64.667 C 201.429 64.957,201.163 65.205,200.904 64.989 C 200.775 64.883,200.711 64.729,200.762 64.648 C 200.883 64.451,201.122 64.460,201.250 64.667 M234.238 64.648 C 234.289 64.729,234.225 64.883,234.096 64.989 C 233.837 65.205,233.571 64.957,233.750 64.667 C 233.878 64.460,234.117 64.451,234.238 64.648 M161.215 66.185 C 160.933 66.467,160.599 66.199,160.852 65.895 C 160.991 65.727,161.106 65.706,161.226 65.826 C 161.347 65.947,161.343 66.057,161.215 66.185 M217.600 69.579 C 217.629 69.775,217.568 69.792,217.318 69.659 C 216.987 69.481,216.920 69.302,217.114 69.108 C 217.257 68.965,217.552 69.250,217.600 69.579 M267.881 71.185 C 267.600 71.467,267.266 71.199,267.518 70.895 C 267.658 70.727,267.772 70.706,267.893 70.826 C 268.013 70.947,268.010 71.057,267.881 71.185 M176.458 71.980 L 177.167 72.000 177.167 76.250 L 177.167 80.500 176.750 80.500 C 176.417 80.500,176.333 80.583,176.333 80.917 C 176.333 81.250,176.250 81.333,175.917 81.333 C 175.583 81.333,175.500 81.417,175.500 81.750 C 175.500 82.083,175.417 82.167,175.083 82.167 C 174.750 82.167,174.667 82.250,174.667 82.583 C 174.667 82.979,174.619 83.000,173.708 83.003 C 173.028 83.004,172.823 83.052,173.000 83.167 C 173.137 83.256,173.171 83.329,173.075 83.331 C 172.979 83.332,172.810 83.243,172.700 83.133 C 172.401 82.834,172.037 83.226,172.309 83.554 C 172.474 83.753,172.276 83.794,171.016 83.820 C 169.649 83.847,169.519 83.822,169.419 83.509 C 169.313 83.175,168.970 83.039,168.201 83.026 C 167.991 83.023,167.691 82.863,167.535 82.672 C 167.378 82.480,167.027 82.284,166.754 82.235 C 166.136 82.125,166.193 82.213,166.146 81.298 C 166.124 80.870,166.063 80.525,166.011 80.530 C 165.341 80.598,165.333 80.574,165.333 78.333 C 165.333 76.920,165.395 76.167,165.510 76.167 C 165.607 76.167,165.630 76.073,165.561 75.958 C 165.461 75.792,165.488 75.792,165.692 75.957 C 166.024 76.225,166.225 76.024,165.957 75.692 C 165.792 75.488,165.792 75.461,165.958 75.561 C 166.109 75.652,166.167 75.523,166.167 75.093 C 166.167 74.572,166.217 74.500,166.583 74.500 C 166.917 74.500,167.000 74.417,167.000 74.083 C 167.000 73.694,167.056 73.667,167.833 73.667 C 168.611 73.667,168.667 73.639,168.667 73.250 C 168.667 72.861,168.722 72.833,169.500 72.833 C 170.275 72.833,170.333 72.805,170.333 72.422 L 170.333 72.010 172.542 71.963 C 173.756 71.938,174.975 71.927,175.250 71.939 C 175.525 71.951,176.069 71.970,176.458 71.980 M290.500 76.263 C 290.500 80.729,290.521 80.594,289.826 80.531 C 289.777 80.527,289.724 80.676,289.710 80.864 C 289.678 81.288,289.622 81.345,289.197 81.377 C 289.010 81.391,288.860 81.443,288.865 81.493 C 288.910 81.988,288.791 82.167,288.417 82.167 C 288.083 82.167,288.000 82.250,288.000 82.583 C 288.000 83.003,287.556 83.124,286.440 83.006 C 286.222 82.983,286.170 83.039,286.264 83.195 C 286.366 83.364,286.329 83.361,286.108 83.182 C 285.730 82.875,285.338 83.188,285.643 83.554 C 285.808 83.753,285.609 83.794,284.349 83.820 C 282.982 83.847,282.852 83.822,282.753 83.509 C 282.648 83.178,282.298 83.037,281.561 83.028 C 281.053 83.022,279.500 81.425,279.500 80.909 C 279.500 80.591,279.413 80.500,279.107 80.500 C 278.730 80.500,278.281 78.156,278.569 77.690 C 278.612 77.620,278.665 77.176,278.687 76.702 C 278.719 75.997,278.767 75.876,278.953 76.030 C 279.314 76.330,279.621 75.932,279.318 75.558 C 279.166 75.371,279.157 75.313,279.292 75.395 C 279.440 75.484,279.500 75.373,279.500 75.010 C 279.500 74.522,279.627 74.420,280.148 74.493 C 280.284 74.512,280.342 74.429,280.288 74.289 C 280.135 73.890,280.385 73.701,281.151 73.637 C 281.706 73.590,281.897 73.501,281.931 73.272 C 281.990 72.866,281.978 72.872,282.833 72.801 C 283.261 72.766,283.592 72.652,283.604 72.536 C 283.616 72.425,283.634 72.261,283.646 72.172 C 283.668 71.999,287.020 71.879,289.208 71.972 L 290.500 72.026 290.500 76.263 M153.715 72.852 C 153.433 73.133,153.099 72.866,153.352 72.561 C 153.491 72.393,153.606 72.372,153.726 72.493 C 153.847 72.613,153.843 72.723,153.715 72.852 M278.285 78.706 C 278.245 78.914,278.211 78.783,278.209 78.417 C 278.207 78.050,278.239 77.880,278.281 78.040 C 278.323 78.199,278.324 78.499,278.285 78.706 M111.738 78.814 C 111.789 78.896,111.725 79.049,111.596 79.156 C 111.337 79.371,111.071 79.124,111.250 78.833 C 111.378 78.627,111.617 78.618,111.738 78.814 M122.917 80.500 C 123.096 80.790,122.830 81.038,122.570 80.823 C 122.442 80.716,122.378 80.562,122.428 80.481 C 122.550 80.284,122.789 80.294,122.917 80.500 M208.750 80.500 C 208.929 80.790,208.663 81.038,208.404 80.823 C 208.275 80.716,208.211 80.562,208.262 80.481 C 208.383 80.284,208.622 80.294,208.750 80.500 M226.738 81.314 C 226.789 81.396,226.725 81.549,226.596 81.656 C 226.337 81.871,226.071 81.624,226.250 81.333 C 226.378 81.127,226.617 81.118,226.738 81.314 M123.750 83.000 C 123.929 83.290,123.663 83.538,123.404 83.323 C 123.275 83.216,123.211 83.062,123.262 82.981 C 123.383 82.784,123.622 82.794,123.750 83.000 M169.128 83.391 C 169.348 83.529,169.257 83.833,168.996 83.833 C 168.913 83.833,168.768 83.690,168.675 83.515 C 168.495 83.179,168.698 83.123,169.128 83.391 M282.461 83.391 C 282.681 83.529,282.591 83.833,282.329 83.833 C 282.246 83.833,282.102 83.690,282.008 83.515 C 281.828 83.179,282.032 83.123,282.461 83.391 M95.500 83.996 C 95.500 84.257,95.196 84.348,95.058 84.128 C 94.790 83.698,94.845 83.495,95.182 83.675 C 95.357 83.768,95.500 83.913,95.500 83.996 M261.674 84.560 C 261.451 84.782,261.078 84.445,261.246 84.173 C 261.332 84.033,261.426 84.036,261.605 84.185 C 261.773 84.324,261.794 84.439,261.674 84.560 M331.767 84.579 C 331.795 84.775,331.735 84.792,331.485 84.659 C 331.153 84.481,331.087 84.302,331.281 84.108 C 331.424 83.965,331.718 84.250,331.767 84.579 M267.167 85.663 C 267.167 85.924,266.862 86.015,266.725 85.794 C 266.456 85.365,266.512 85.161,266.848 85.341 C 267.023 85.435,267.167 85.580,267.167 85.663 M109.238 85.481 C 109.289 85.562,109.225 85.716,109.096 85.823 C 108.837 86.038,108.571 85.790,108.750 85.500 C 108.878 85.294,109.117 85.284,109.238 85.481 M153.750 85.500 C 153.929 85.790,153.663 86.038,153.404 85.823 C 153.275 85.716,153.211 85.562,153.262 85.481 C 153.383 85.284,153.622 85.294,153.750 85.500 M335.381 86.185 C 335.100 86.467,334.766 86.199,335.018 85.895 C 335.158 85.727,335.272 85.706,335.393 85.826 C 335.513 85.947,335.510 86.057,335.381 86.185 M224.238 86.314 C 224.289 86.396,224.225 86.549,224.096 86.656 C 223.837 86.871,223.571 86.624,223.750 86.333 C 223.878 86.127,224.117 86.118,224.238 86.314 M138.439 87.042 C 138.371 87.489,138.138 87.705,137.940 87.503 C 137.798 87.359,137.831 87.251,138.074 87.072 C 138.467 86.782,138.478 86.781,138.439 87.042 M212.054 88.346 C 211.845 88.555,211.627 88.302,211.541 87.750 C 211.492 87.433,211.508 87.435,211.863 87.790 C 212.135 88.061,212.187 88.213,212.054 88.346 M156.250 88.833 C 156.429 89.124,156.163 89.371,155.904 89.156 C 155.775 89.049,155.711 88.896,155.762 88.814 C 155.883 88.618,156.122 88.627,156.250 88.833 M177.572 88.814 C 177.622 88.896,177.558 89.049,177.430 89.156 C 177.170 89.371,176.904 89.124,177.083 88.833 C 177.211 88.627,177.450 88.618,177.572 88.814 M176.738 89.648 C 176.789 89.729,176.725 89.883,176.596 89.989 C 176.337 90.205,176.071 89.957,176.250 89.667 C 176.378 89.460,176.617 89.451,176.738 89.648 M290.072 89.648 C 290.122 89.729,290.058 89.883,289.930 89.989 C 289.670 90.205,289.404 89.957,289.583 89.667 C 289.711 89.460,289.950 89.451,290.072 89.648 M221.738 92.148 C 221.789 92.229,221.725 92.383,221.596 92.489 C 221.337 92.705,221.071 92.457,221.250 92.167 C 221.378 91.960,221.617 91.951,221.738 92.148 M219.272 97.875 C 219.204 98.322,218.971 98.538,218.773 98.337 C 218.631 98.192,218.664 98.084,218.907 97.905 C 219.300 97.615,219.312 97.614,219.272 97.875 M207.881 99.519 C 207.600 99.800,207.266 99.532,207.518 99.228 C 207.658 99.060,207.772 99.039,207.893 99.160 C 208.013 99.280,208.010 99.390,207.881 99.519 M203.347 102.053 C 203.236 102.164,203.092 102.146,202.916 101.999 C 202.710 101.828,202.698 101.750,202.862 101.649 C 203.144 101.474,203.571 101.829,203.347 102.053 M204.612 101.959 C 204.476 102.095,204.279 102.153,204.175 102.088 C 203.897 101.917,204.287 101.493,204.608 101.616 C 204.830 101.701,204.830 101.741,204.612 101.959 M216.738 102.981 C 216.789 103.062,216.725 103.216,216.596 103.323 C 216.337 103.538,216.071 103.290,216.250 103.000 C 216.378 102.794,216.617 102.784,216.738 102.981 M208.387 110.443 C 208.566 110.621,208.163 110.988,207.900 110.887 C 207.714 110.816,207.702 110.741,207.849 110.564 C 208.059 110.311,208.219 110.275,208.387 110.443 " stroke="none" fill="#742c7c" fill-rule="evenodd"></path><path id="path4" d="M244.167 39.167 C 244.167 39.442,244.242 39.667,244.333 39.667 C 244.425 39.667,244.500 39.442,244.500 39.167 C 244.500 38.892,244.425 38.667,244.333 38.667 C 244.242 38.667,244.167 38.892,244.167 39.167 M85.917 45.954 C 94.063 46.070,100.628 46.072,100.558 45.958 C 100.515 45.890,96.491 45.850,91.615 45.871 C 86.739 45.892,84.175 45.929,85.917 45.954 M117.466 45.957 C 118.227 45.988,119.427 45.988,120.133 45.957 C 120.839 45.926,120.217 45.901,118.750 45.901 C 117.283 45.901,116.706 45.927,117.466 45.957 M136.942 45.958 C 136.872 46.072,143.004 46.070,150.250 45.954 C 151.808 45.929,149.469 45.891,145.052 45.871 C 140.634 45.850,136.985 45.890,136.942 45.958 M191.109 45.958 C 191.039 46.072,199.014 46.070,209.167 45.955 C 211.321 45.930,208.157 45.893,202.135 45.872 C 196.113 45.851,191.152 45.890,191.109 45.958 M230.947 45.958 C 233.163 45.984,236.838 45.984,239.113 45.958 C 241.389 45.932,239.575 45.911,235.083 45.911 C 230.592 45.910,228.730 45.932,230.947 45.958 M259.032 45.958 C 260.195 45.986,262.145 45.986,263.365 45.958 C 264.585 45.929,263.633 45.906,261.250 45.906 C 258.867 45.906,257.868 45.929,259.032 45.958 M316.942 45.958 C 316.899 46.027,318.039 46.064,319.474 46.040 C 324.291 45.961,324.778 45.901,320.885 45.867 C 318.759 45.849,316.985 45.890,316.942 45.958 M340.275 45.958 C 340.233 46.027,341.372 46.064,342.807 46.040 C 347.624 45.961,348.111 45.901,344.218 45.867 C 342.092 45.849,340.318 45.890,340.275 45.958 M134.167 50.417 C 134.167 51.472,134.233 52.167,134.333 52.167 C 134.434 52.167,134.500 51.472,134.500 50.417 C 134.500 49.361,134.434 48.667,134.333 48.667 C 134.233 48.667,134.167 49.361,134.167 50.417 M366.333 51.250 C 366.333 52.861,366.396 53.833,366.500 53.833 C 366.604 53.833,366.667 52.861,366.667 51.250 C 366.667 49.639,366.604 48.667,366.500 48.667 C 366.396 48.667,366.333 49.639,366.333 51.250 M99.500 57.642 C 99.500 57.719,99.650 57.917,99.833 58.083 C 100.017 58.249,100.167 58.315,100.167 58.230 C 100.167 58.144,100.017 57.946,99.833 57.789 C 99.650 57.632,99.500 57.566,99.500 57.642 M65.830 68.567 C 65.824 68.826,49.430 85.167,49.175 85.167 C 48.990 85.167,49.049 85.938,49.249 86.138 C 49.279 86.168,53.120 82.372,57.783 77.702 C 62.447 73.032,66.428 69.159,66.631 69.095 C 67.152 68.929,67.090 68.776,66.417 68.566 C 65.993 68.433,65.832 68.433,65.830 68.567 M211.500 87.604 C 211.500 87.689,211.650 87.888,211.833 88.045 C 212.017 88.202,212.167 88.267,212.167 88.191 C 212.167 88.114,212.017 87.916,211.833 87.750 C 211.650 87.584,211.500 87.518,211.500 87.604 " stroke="none" fill="#9444a4" fill-rule="evenodd"></path></g></svg>
