<svg xmlns="http://www.w3.org/2000/svg" xmlns:svg="http://www.w3.org/2000/svg" id="Layer_1" width="285.307" height="60.001" x="0" y="0" enable-background="new 0 0 286 60" version="1.1" viewBox="0 0 285.307 60.001" xml:space="preserve"><g id="g11" transform="translate(-0.665,0)"><path id="path13" fill="#204156" d="m 12.237,41.354 c -0.514,-1.559 -0.769,-3.527 -0.769,-6.173 0,-2.647 0.255,-4.619 0.769,-6.174 1.436,-4.462 5.24,-6.9 10.221,-6.9 3.699,0 6.628,1.505 8.582,3.892 0.151,0.206 0.202,0.517 -0.052,0.724 l -3.235,2.854 c -0.258,0.209 -0.514,0.157 -0.721,-0.102 -1.234,-1.4 -2.518,-2.18 -4.573,-2.18 -2.208,0 -3.902,1.09 -4.623,3.269 -0.408,1.248 -0.513,2.699 -0.513,4.618 0,1.919 0.104,3.423 0.513,4.669 0.72,2.125 2.415,3.215 4.623,3.215 2.055,0 3.339,-0.779 4.573,-2.176 0.207,-0.263 0.463,-0.263 0.721,-0.055 l 3.235,2.854 c 0.254,0.207 0.203,0.467 0.052,0.727 -1.953,2.336 -4.882,3.839 -8.582,3.839 -4.981,-0.002 -8.785,-2.442 -10.221,-6.901"/><path id="path15" fill="#204156" d="m 124.477,41.354 c -0.514,-1.559 -0.769,-3.527 -0.769,-6.173 0,-2.647 0.255,-4.619 0.769,-6.174 1.439,-4.462 5.239,-6.9 10.22,-6.9 3.7,0 6.63,1.505 8.581,3.892 0.153,0.206 0.206,0.517 -0.053,0.724 l -3.236,2.854 c -0.257,0.209 -0.512,0.157 -0.718,-0.102 -1.232,-1.4 -2.517,-2.18 -4.574,-2.18 -2.207,0 -3.903,1.09 -4.621,3.269 -0.412,1.248 -0.512,2.699 -0.512,4.618 0,1.919 0.1,3.423 0.512,4.669 0.718,2.125 2.414,3.215 4.621,3.215 2.057,0 3.342,-0.779 4.574,-2.176 0.206,-0.263 0.462,-0.263 0.718,-0.055 l 3.236,2.854 c 0.259,0.207 0.206,0.467 0.053,0.727 -1.951,2.336 -4.881,3.839 -8.581,3.839 -4.981,-0.002 -8.781,-2.442 -10.22,-6.901"/><path id="path17" fill="#204156" d="m 254.202,47.684 c -0.308,0 -0.513,-0.206 -0.513,-0.52 l 0,-14.421 c 0,-3.217 -1.594,-5.449 -4.677,-5.449 -2.979,0 -4.725,2.231 -4.725,5.449 l 0,14.421 c 0,0.313 -0.207,0.52 -0.513,0.52 l -4.728,0 c -0.308,0 -0.515,-0.206 -0.515,-0.52 l 0,-14.421 c 0,-3.217 -1.592,-5.449 -4.67,-5.449 -2.981,0 -4.729,2.231 -4.729,5.449 l 0,14.421 c 0,0.313 -0.205,0.52 -0.514,0.52 l -4.726,0 c -0.31,0 -0.513,-0.206 -0.513,-0.52 l 0,-23.968 c 0,-0.312 0.203,-0.52 0.513,-0.52 l 4.726,0 c 0.309,0 0.514,0.208 0.514,0.52 l 0,1.816 0.052,0 c 1.08,-1.557 3.236,-2.905 6.523,-2.905 2.929,0 5.292,1.191 6.779,3.319 l 0.053,0 c 1.9,-2.073 4.367,-3.319 7.912,-3.319 5.751,0 8.99,3.942 8.99,9.286 l 0,15.77 c 0,0.314 -0.207,0.521 -0.516,0.521 l -4.723,0 0,0 z"/><path id="path19" fill="#204156" d="m 266.578,57.021 c -0.307,0 -0.512,-0.208 -0.512,-0.521 l 0,-4.149 c 0,-0.31 0.205,-0.521 0.512,-0.521 l 0.926,0 c 1.951,0 2.93,-0.878 3.699,-2.955 l 0.72,-2.127 -9.042,-23.553 c -0.104,-0.312 0.103,-0.52 0.413,-0.52 l 5.084,0 c 0.308,0 0.514,0.208 0.614,0.52 l 5.602,16.342 0.101,0 5.344,-16.342 c 0.103,-0.312 0.309,-0.52 0.614,-0.52 l 4.879,0 c 0.311,0 0.517,0.208 0.412,0.52 l -9.45,26.043 c -2.156,5.915 -4.214,7.781 -8.322,7.781 l -1.594,0.002 0,0 z"/><path id="path21" fill="#204156" d="m 35.766,41.356 c -0.565,-1.767 -0.822,-3.426 -0.822,-6.175 0,-2.745 0.257,-4.406 0.822,-6.166 1.387,-4.358 5.185,-6.901 10.218,-6.901 4.98,0 8.78,2.542 10.167,6.901 0.562,1.76 0.821,3.421 0.821,6.166 0,2.749 -0.259,4.408 -0.821,6.175 -1.388,4.355 -5.187,6.896 -10.167,6.896 -5.033,10e-4 -8.831,-2.54 -10.218,-6.896 M 50.605,39.8 c 0.412,-1.295 0.514,-2.49 0.514,-4.618 0,-2.122 -0.102,-3.265 -0.514,-4.612 -0.718,-2.073 -2.311,-3.269 -4.621,-3.269 -2.309,0 -3.955,1.196 -4.672,3.269 -0.409,1.348 -0.513,2.49 -0.513,4.612 0,2.128 0.104,3.323 0.513,4.618 0.717,2.077 2.364,3.266 4.672,3.266 2.31,-0.001 3.903,-1.19 4.621,-3.266"/><path id="path23" fill="#204156" d="m 157.043,22.107 c -4.059,0 -6.78,0.985 -8.785,2.438 -0.203,0.158 -0.256,0.414 -0.1,0.673 l 1.896,3.426 c 0.159,0.26 0.463,0.312 0.722,0.104 1.182,-0.932 2.875,-1.713 5.651,-1.713 4.047,0 5.421,1.228 5.491,3.927 l 0.001,0 0,0.033 c 0.002,0.063 0.002,0.127 0.002,0.194 l 0,8.094 c 0,2.853 -1.951,4.251 -5.494,4.251 -2.776,0 -4.264,-1.035 -4.264,-3.109 0,-2.336 1.645,-3.376 5.342,-3.376 l 1.124,0.002 c 0.308,0 0.515,-0.208 0.515,-0.517 l 0,-3.326 c 0,-0.31 -0.207,-0.517 -0.515,-0.517 l -0.247,0 -1.801,-0.001 c -6.112,0 -9.917,2.494 -9.917,7.938 0,5.241 3.805,7.626 8.323,7.626 3.49,0 5.803,-1.192 6.985,-2.904 l 0.05,0 0,1.816 c 0,0.312 0.208,0.52 0.515,0.52 l 4.314,0 c 0.309,0 0.515,-0.207 0.515,-0.52 l 0,-16.342 c 10e-4,-6.121 -2.772,-8.717 -10.323,-8.717"/><path id="path25" fill="#204156" d="m 95.672,32.688 c -0.134,0 -0.222,0.089 -0.222,0.223 l 0,0.148 0,0.434 0,2.748 0,0.369 0,0.213 c 0,0.134 0.088,0.224 0.222,0.224 l 0.128,0 12.592,0 c 0.36,0 0.566,-0.206 0.566,-0.515 0,-4.05 -0.259,-5.763 -0.822,-7.525 -1.389,-4.254 -5.086,-6.899 -10.172,-6.899 -4.931,0 -8.731,2.541 -10.12,6.899 -0.511,1.608 -0.822,3.58 -0.822,6.174 0,2.594 0.36,4.512 0.877,6.122 1.386,4.356 5.083,6.95 10.322,6.95 4.57,0 8.066,-1.764 10.17,-4.254 0.204,-0.258 0.204,-0.517 -0.052,-0.727 l -3.028,-2.697 c -0.259,-0.207 -0.515,-0.153 -0.773,0.104 -1.231,1.35 -3.029,2.387 -5.803,2.387 -2.771,0 -4.725,-1.348 -5.547,-3.785 -0.124,-0.341 -0.227,-0.699 -0.292,-1.088 l -0.001,0 c -0.187,-1.056 -0.297,-2.084 -0.297,-3.594 0.04,-1.423 0.122,-2.332 0.324,-3.487 0.002,-0.016 0.005,-0.03 0.008,-0.045 0.002,-0.012 0.004,-0.021 0.006,-0.033 l 0,0.001 c 0.049,-0.272 0.116,-0.528 0.199,-0.783 0.668,-2.023 2.517,-3.216 4.882,-3.216 2.312,0 4.158,1.193 4.826,3.216 0.207,0.626 0.308,1.245 0.308,2.129 0,0.207 -0.102,0.309 -0.308,0.309 l -6.749,0 0.001,-10e-4 -0.423,-10e-4 0,0 z"/><path id="path27" fill="#204156" d="m 82.25,12.408 -4.718,0 c -0.311,0 -0.516,0.207 -0.516,0.515 l 0,12.121 0,0 0,10.024 c 0,0.027 0,0.054 0,0.08 0,0.027 0,0.054 0,0.08 l 0,1.331 -0.026,0 c -0.055,1.43 -0.21,2.37 -0.485,3.251 -0.667,2.07 -2.26,3.209 -4.617,3.209 -2.308,0 -3.897,-1.139 -4.567,-3.209 -0.358,-1.141 -0.51,-2.383 -0.51,-4.662 0,-2.278 0.152,-3.523 0.51,-4.66 0.657,-2.031 2.195,-3.178 4.427,-3.223 l 2.014,0 c 0.098,-0.024 0.162,-0.101 0.162,-0.213 l 0.026,-4.736 c 0,-0.121 -0.076,-0.202 -0.188,-0.216 l -1.608,-0.006 -1.89,0 0,10e-4 c -4.135,0.044 -7.162,2.06 -8.43,6.005 -0.616,1.919 -0.872,3.683 -0.872,7.048 0,3.366 0.256,5.128 0.872,7.043 1.282,3.99 4.36,6.01 8.565,6.01 3.336,0 5.388,-1.241 6.565,-2.953 l 0.05,0 0,1.865 c 0,0.312 0.206,0.519 0.516,0.519 l 4.718,0 c 0.308,0 0.514,-0.206 0.514,-0.519 l 0,-34.19 c 0.002,-0.309 -0.204,-0.515 -0.512,-0.515"/><path id="path29" fill="#204156" d="m 205.935,32.688 c -0.132,0 -0.222,0.089 -0.222,0.223 l 0,0.148 0,0.434 0,2.748 0,0.369 0,0.213 c 0,0.134 0.09,0.224 0.222,0.224 l 0.13,0 12.593,0 c 0.359,0 0.565,-0.206 0.565,-0.515 0,-4.05 -0.258,-5.763 -0.821,-7.525 -1.389,-4.254 -5.087,-6.899 -10.171,-6.899 -4.932,0 -8.732,2.541 -10.121,6.899 -0.512,1.608 -0.822,3.58 -0.822,6.174 0,2.594 0.36,4.512 0.877,6.122 1.385,4.356 5.083,6.95 10.322,6.95 4.57,0 8.066,-1.764 10.171,-4.254 0.204,-0.258 0.204,-0.517 -0.053,-0.727 l -3.028,-2.697 c -0.258,-0.207 -0.514,-0.153 -0.772,0.104 -1.231,1.35 -3.028,2.387 -5.804,2.387 -2.771,0 -4.724,-1.348 -5.547,-3.785 -0.123,-0.341 -0.227,-0.699 -0.29,-1.088 l -10e-4,0 c -0.188,-1.056 -0.298,-2.084 -0.298,-3.594 0.038,-1.423 0.12,-2.332 0.323,-3.487 0.004,-0.016 0.006,-0.03 0.008,-0.045 0.002,-0.012 0.004,-0.021 0.006,-0.033 l 0,0.001 c 0.051,-0.272 0.117,-0.528 0.2,-0.783 0.667,-2.023 2.517,-3.216 4.882,-3.216 2.312,0 4.158,1.193 4.826,3.216 0.206,0.626 0.309,1.245 0.309,2.129 0,0.207 -0.103,0.309 -0.309,0.309 l -6.749,0 0,-10e-4 -0.426,-10e-4 0,0 z"/><path id="path31" fill="#204156" d="m 192.758,12.408 -4.727,0 c -0.309,0 -0.515,0.208 -0.515,0.516 l 0,12.138 0,10.04 0,0.079 0,0.081 0,1.333 -0.025,0 c -0.056,1.432 -0.212,2.373 -0.487,3.255 -0.668,2.074 -2.264,3.216 -4.623,3.216 -2.31,0 -3.902,-1.142 -4.573,-3.216 -0.357,-1.143 -0.513,-2.386 -0.513,-4.669 0,-2.281 0.154,-3.529 0.513,-4.667 0.657,-2.034 2.198,-3.172 4.434,-3.217 l 2.017,10e-4 c 0.309,0 0.515,-0.207 0.515,-0.516 l 0,-4.157 c 0,-0.31 -0.206,-0.517 -0.515,-0.517 l -0.247,0 -3.049,-0.001 c -0.024,0 -0.048,0 -0.071,0 -0.023,0 -0.044,0 -0.066,0 l -0.07,0 0,0.001 c -4.14,0.043 -7.172,2.063 -8.441,6.014 -0.617,1.922 -0.873,3.687 -0.873,7.057 0,3.371 0.256,5.137 0.873,7.055 1.283,3.994 4.367,6.018 8.578,6.018 3.34,0 5.395,-1.242 6.575,-2.957 l 0.05,0 0,1.867 c 0,0.314 0.206,0.52 0.516,0.52 l 4.726,0 c 0.308,0 0.515,-0.205 0.515,-0.52 l 0,-34.238 c -0.004,-0.309 -0.21,-0.516 -0.517,-0.516"/><path id="path33" fill="#204156" d="m 124.091,54.757 0,4.727 c 0,0.311 0.206,0.517 0.515,0.517 l 17.516,0 c 0.313,0 0.52,-0.207 0.52,-0.517 l 0,-4.727 c 0,-0.307 -0.207,-0.514 -0.52,-0.514 l -17.516,0 c -0.309,0 -0.515,0.207 -0.515,0.514"/><path id="path35" fill="#204156" d="M 119.644,0.167 C 119.636,0.159 119.631,0.149 119.624,0.142 119.623,0.141 119.622,0.141 119.622,0.141 119.532,0.052 119.404,0 119.252,0 L 119.246,0 1.181,0 C 1.142,0 1.105,0.004 1.069,0.01 1.059,0.012 1.05,0.016 1.039,0.018 1.016,0.024 0.991,0.029 0.97,0.038 0.966,0.039 0.963,0.041 0.96,0.043 0.777,0.118 0.665,0.289 0.665,0.515 l 0,0.002 0,58.96 0,0.004 c 0,0.18 0.07,0.321 0.188,0.411 0.009,0.009 0.017,0.017 0.029,0.023 l 0,10e-4 c 0.082,0.052 0.182,0.08 0.299,0.08 l 118.064,0 0.006,0 c 0.174,0 0.315,-0.067 0.404,-0.182 0.07,-0.086 0.111,-0.199 0.111,-0.334 l 0,-0.004 0,-58.959 0,-0.002 c 0,-0.141 -0.045,-0.26 -0.122,-0.348 M 6.931,54.241 C 6.894,54.241 6.858,54.238 6.826,54.233 6.816,54.231 6.805,54.226 6.795,54.223 6.771,54.218 6.747,54.213 6.725,54.204 6.721,54.203 6.719,54.2 6.715,54.199 6.533,54.125 6.422,53.955 6.421,53.731 l 0,-42.736 0,-4.725 C 6.421,6.043 6.533,5.874 6.715,5.798 6.72,5.797 6.723,5.794 6.726,5.793 6.747,5.785 6.815,5.768 6.826,5.765 6.86,5.76 6.896,5.757 6.933,5.757 l 106.564,0 c 0.038,0 0.073,0.003 0.107,0.008 0.011,0.003 0.021,0.007 0.03,0.01 0.024,0.005 0.048,0.01 0.07,0.019 0.005,0.001 0.007,0.004 0.011,0.005 0.183,0.075 0.294,0.245 0.294,0.472 l 0,47.461 c -0.001,0.225 -0.113,0.395 -0.293,0.469 -0.004,10e-4 -0.006,0.004 -0.011,0.005 -0.021,0.008 -0.046,0.014 -0.069,0.019 -0.011,0.003 -0.02,0.008 -0.031,0.01 -0.034,0.006 -0.067,0.008 -0.104,0.008 l -106.57,0 0,-0.002 z"/></g></svg>