<svg xmlns="http://www.w3.org/2000/svg" xmlns:svg="http://www.w3.org/2000/svg" id="svg1957" width="209.667" height="88.4" version="1.1" viewBox="0 0 55.474 23.389"><defs id="defs1951"><clipPath id="clipPath507" clipPathUnits="userSpaceOnUse"><path id="path505" d="M 0,0 H 792 V 612 H 0 Z"/></clipPath><clipPath id="clipPath491" clipPathUnits="userSpaceOnUse"><path id="path489" d="M 0,0 H 792 V 612 H 0 Z"/></clipPath><clipPath id="clipPath475" clipPathUnits="userSpaceOnUse"><path id="path473" d="M 0,0 H 792 V 612 H 0 Z"/></clipPath></defs><metadata id="metadata1954"/><g id="layer1" transform="translate(-101.53071,-172.66851)"><path id="path467" fill="#009" fill-opacity="1" fill-rule="nonzero" stroke="none" stroke-width=".353" d="m 101.53071,196.05768 h 55.4743 v -23.38917 h -55.4743 z"/><path id="path479" fill="#fff" fill-opacity="1" fill-rule="nonzero" stroke="none" stroke-width=".353" d="m 117.05069,183.82773 c 0,-1.44992 -1.32891,-3.53448 -3.89678,-3.53448 -2.32622,0 -3.89714,1.9939 -3.89714,4.04812 0,2.44687 1.69192,4.19877 4.59176,4.19877 h 5.49804 c -1.29893,2.02388 -3.56447,3.32316 -6.16268,3.32316 -4.10809,0 -7.43126,-3.35315 -7.43126,-7.4616 0,-4.10845 3.32317,-7.4616 7.43126,-7.4616 4.10845,0 7.46161,3.35315 7.46161,7.4616 0,0.81562 -0.15099,1.6009 -0.36231,2.32622 h -8.30756 v -0.81598 l 2.93017,-0.0903 c 1.48026,-0.0607 2.14489,-0.81562 2.14489,-1.9939"/><path font-family="Helvetica" style="-inkscape-font-specification:Helvetica-Bold" id="path2156" fill="#fff" fill-opacity="1" fill-rule="nonzero" stroke="none" stroke-width=".353" d="m 118.45309,191.87335 v -0.50958 h -0.18199 v -0.10375 h 0.48741 v 0.10375 h -0.18158 v 0.50958 z" font-size="medium" font-stretch="normal" font-variant="normal" font-weight="bold" writing-mode="lr-tb"/><path font-family="Helvetica" style="-inkscape-font-specification:Helvetica-Bold" id="path2158" fill="#fff" fill-opacity="1" fill-rule="nonzero" stroke="none" stroke-width=".353" d="m 118.83686,191.87335 v -0.61333 h 0.18533 l 0.11129,0.41837 0.11003,-0.41837 h 0.18576 v 0.61333 h -0.11505 v -0.4828 l -0.12175,0.4828 h -0.11923 l -0.12133,-0.4828 v 0.4828 z" font-size="medium" font-stretch="normal" font-variant="normal" font-weight="bold" writing-mode="lr-tb"/><path id="path495" fill="#fff" fill-opacity="1" fill-rule="nonzero" stroke="none" stroke-width=".353" d="m 126.94607,180.64346 c 0,-0.4251 -0.38982,-1.03646 -1.143,-1.03646 -0.68192,0 -1.14265,0.58455 -1.14265,1.1871 0,0.71755 0.49601,1.23154 1.34656,1.23154 h 1.61254 c -0.381,0.59338 -1.04563,0.97438 -1.80728,0.97438 -1.20509,0 -2.17946,-0.9832 -2.17946,-2.18829 0,-1.20473 0.97437,-2.18828 2.17946,-2.18828 1.20474,0 2.18828,0.98355 2.18828,2.18828 0,0.23919 -0.0444,0.46955 -0.10654,0.68228 h -2.43628 v -0.23919 l 0.85937,-0.0268 c 0.43427,-0.0176 0.629,-0.23918 0.629,-0.58455"/><path id="path499" fill="#fff" fill-opacity="1" fill-rule="nonzero" stroke="none" stroke-width=".353" d="m 129.8163,179.97903 0.83291,-1.22273 h 1.15146 l -1.41746,1.97591 1.53282,2.13501 h -1.22272 l -0.91229,-1.32891 -0.92145,1.32891 h -1.15182 l 1.50601,-2.08209 -1.46156,-2.02883 h 1.22237 z"/><path id="path511" fill="#fff" fill-opacity="1" fill-rule="nonzero" stroke="none" stroke-width=".353" d="m 133.18273,179.56254 c 0.30127,-0.63782 0.84173,-0.92146 1.391,-0.92146 0.99237,0 1.89583,0.84173 1.89583,2.17065 0,1.32891 -0.90346,2.17064 -1.89583,2.17064 -0.54927,0 -1.08973,-0.28364 -1.391,-0.92146 -0.0176,-0.0353 -0.0441,-0.0265 -0.0441,0.009 v 2.48955 h -1.06327 v -5.80284 h 1.06327 v 0.79728 c 0,0.0353 0.0265,0.0445 0.0441,0.009 m 1.09855,2.54282 c 0.62018,0 1.16064,-0.54045 1.16064,-1.29363 0,-0.75318 -0.54046,-1.29329 -1.16064,-1.29329 -0.61136,0 -1.16064,0.54011 -1.16064,1.29329 0,0.75318 0.54928,1.29363 1.16064,1.29363"/><path id="path515" fill="#fff" fill-opacity="1" fill-rule="nonzero" stroke="none" stroke-width=".353" d="m 140.12818,180.64346 c 0,-0.4251 -0.38982,-1.03646 -1.143,-1.03646 -0.68192,0 -1.14265,0.58455 -1.14265,1.1871 0,0.71755 0.49601,1.23154 1.34656,1.23154 h 1.61254 c -0.381,0.59338 -1.04563,0.97438 -1.80728,0.97438 -1.20509,0 -2.17946,-0.9832 -2.17946,-2.18829 0,-1.20473 0.97437,-2.18828 2.17946,-2.18828 1.20474,0 2.18828,0.98355 2.18828,2.18828 0,0.23919 -0.0444,0.46955 -0.10654,0.68228 h -2.43628 v -0.23919 l 0.85937,-0.0268 c 0.43427,-0.0176 0.629,-0.23918 0.629,-0.58455"/><path id="path519" fill="#fff" fill-opacity="1" fill-rule="nonzero" stroke="none" stroke-width=".353" d="m 144.81444,182.06095 c -0.30127,0.63782 -0.84173,0.92146 -1.391,0.92146 -0.99201,0 -1.89583,-0.84173 -1.89583,-2.17065 0,-1.32891 0.90382,-2.17064 1.89583,-2.17064 0.54927,0 1.08973,0.28364 1.391,0.92146 0.0176,0.0353 0.0445,0.0265 0.0445,-0.009 v -2.5781 h 1.06292 v 5.89139 h -1.06292 v -0.79728 c 0,-0.0353 -0.0268,-0.0441 -0.0445,-0.009 m -1.09855,-2.54282 c -0.62018,0 -1.16064,0.54045 -1.16064,1.29363 0,0.75318 0.54046,1.29364 1.16064,1.29364 0.61136,0 1.16064,-0.54046 1.16064,-1.29364 0,-0.75318 -0.54928,-1.29363 -1.16064,-1.29363"/><path id="path523" fill="#fff" fill-opacity="1" fill-rule="nonzero" stroke="none" stroke-width=".353" d="m 146.59491,177.56035 c 0,-0.33655 0.28363,-0.62018 0.62018,-0.62018 0.33655,0 0.62019,0.28363 0.62019,0.62018 0,0.33655 -0.28364,0.62018 -0.62019,0.62018 -0.33655,0 -0.62018,-0.28363 -0.62018,-0.62018 m 1.15182,5.30684 h -1.06327 v -4.11092 h 1.06327 z"/><path id="path527" fill="#fff" fill-opacity="1" fill-rule="nonzero" stroke="none" stroke-width=".353" d="m 151.56488,182.06095 c -0.30127,0.63782 -0.84173,0.92146 -1.391,0.92146 -0.99201,0 -1.89583,-0.84173 -1.89583,-2.17065 0,-1.32891 0.90382,-2.17064 1.89583,-2.17064 0.54927,0 1.08973,0.28364 1.391,0.92146 0.0176,0.0353 0.0445,0.0265 0.0445,-0.009 v -0.79728 h 1.06292 v 4.11057 h -1.06292 v -0.79728 c 0,-0.0353 -0.0268,-0.0441 -0.0445,-0.009 m -1.09855,-2.54282 c -0.62018,0 -1.16064,0.54045 -1.16064,1.29363 0,0.75318 0.54046,1.29364 1.16064,1.29364 0.61136,0 1.16064,-0.54046 1.16064,-1.29364 0,-0.75318 -0.54928,-1.29363 -1.16064,-1.29363"/><path id="path531" fill="#fff" fill-opacity="1" fill-rule="nonzero" stroke="none" stroke-width=".353" d="m 127.29712,189.34313 c 0,-0.0353 -0.0265,-0.0445 -0.0445,-0.009 -0.30092,0.63782 -0.83256,0.92146 -1.37301,0.92146 -0.98355,0 -1.87819,-0.83291 -1.87819,-2.15301 0,-1.32009 0.89464,-2.15265 1.87819,-2.15265 0.54045,0 1.07209,0.28328 1.37301,0.92111 0.018,0.0356 0.0445,0.0268 0.0445,-0.009 v -0.79728 h 1.06327 v 3.87173 c 0,1.14265 -0.78881,2.02883 -2.153,2.02883 -0.762,0 -1.42628,-0.26599 -1.91347,-0.7179 l 0.63783,-0.69109 c 0.42509,0.3369 0.76164,0.51399 1.258,0.51399 0.77964,0 1.10737,-0.54927 1.10737,-1.23154 z m -1.12501,-2.51601 c -0.61136,0 -1.143,0.53164 -1.143,1.27564 0,0.74436 0.53164,1.27565 1.143,1.27565 0.60219,0 1.14265,-0.53129 1.14265,-1.27565 0,-0.744 -0.54046,-1.27564 -1.14265,-1.27564"/><path id="path535" fill="#fff" fill-opacity="1" fill-rule="nonzero" stroke="none" stroke-width=".353" d="m 130.18503,186.06516 v 0.89464 c 0,0.018 0.0176,0.0268 0.0265,0 0.14181,-0.73518 0.46073,-1.01 1.01,-1.01 h 0.0977 v 1.11654 h -0.47837 c -0.43427,0 -0.65581,0.33655 -0.65581,0.81492 v 2.29482 h -1.06292 v -4.11092 z"/><path id="path539" fill="#fff" fill-opacity="1" fill-rule="nonzero" stroke="none" stroke-width=".353" d="m 133.57812,185.93226 c 1.19592,0 2.17946,0.98354 2.17946,2.18828 0,1.20474 -0.98354,2.18828 -2.17946,2.18828 -1.21356,0 -2.1971,-0.98354 -2.1971,-2.18828 0,-1.20474 0.98354,-2.18828 2.1971,-2.18828 m -0.009,0.96555 c -0.63782,0 -1.16064,0.53164 -1.16064,1.22273 0,0.69109 0.52282,1.22273 1.16064,1.22273 0.63782,0 1.16064,-0.53164 1.16064,-1.22273 0,-0.69109 -0.52282,-1.22273 -1.16064,-1.22273"/><path id="path543" fill="#fff" fill-opacity="1" fill-rule="nonzero" stroke="none" stroke-width=".353" d="m 137.96332,190.30883 c -1.03646,0 -1.70109,-0.629 -1.70109,-1.55046 v -2.6931 h 1.06327 v 2.61337 c 0,0.40746 0.26564,0.67346 0.66428,0.67346 0.36336,0 0.63817,-0.27482 0.63817,-0.66464 v -2.62219 h 1.06292 v 2.6931 c 0,0.92146 -0.71755,1.55046 -1.72755,1.55046"/><path id="path547" fill="#fff" fill-opacity="1" fill-rule="nonzero" stroke="none" stroke-width=".353" d="m 141.53343,186.87136 c 0.30127,-0.63782 0.84173,-0.92146 1.391,-0.92146 0.99201,0 1.89583,0.84173 1.89583,2.17065 0,1.32891 -0.90382,2.17064 -1.89583,2.17064 -0.54927,0 -1.08973,-0.28364 -1.391,-0.92146 -0.0176,-0.0353 -0.0445,-0.0265 -0.0445,0.009 v 2.48955 h -1.06292 v -5.80284 h 1.06292 v 0.79728 c 0,0.0353 0.0268,0.0441 0.0445,0.009 m 1.09855,2.54282 c 0.62018,0 1.16064,-0.54045 1.16064,-1.29363 0,-0.75318 -0.54046,-1.29364 -1.16064,-1.29364 -0.61136,0 -1.16064,0.54046 -1.16064,1.29364 0,0.75318 0.54928,1.29363 1.16064,1.29363"/><path font-family="Helvetica" style="-inkscape-font-specification:Helvetica-Bold" id="path2151" fill="#fff" fill-opacity="1" fill-rule="nonzero" stroke="none" stroke-width=".353" d="m 145.60388,186.6777 v -0.50987 h -0.18209 v -0.10381 h 0.48768 v 0.10381 h -0.18168 v 0.50987 z" font-size="medium" font-stretch="normal" font-variant="normal" font-weight="bold" writing-mode="lr-tb"/><path font-family="Helvetica" style="-inkscape-font-specification:Helvetica-Bold" id="path2153" fill="#fff" fill-opacity="1" fill-rule="nonzero" stroke="none" stroke-width=".353" d="m 145.98787,186.6777 v -0.61368 h 0.18544 l 0.11136,0.41861 0.11009,-0.41861 h 0.18587 v 0.61368 h -0.11512 v -0.48308 l -0.12182,0.48308 h -0.1193 l -0.1214,-0.48308 v 0.48308 z" font-size="medium" font-stretch="normal" font-variant="normal" font-weight="bold" writing-mode="lr-tb"/></g></svg>