<svg xmlns="http://www.w3.org/2000/svg" width="147" height="27"><path fill="#303AB2" d="M3 26.9V12.6H0v-4h3v-.8c0-2.8.7-4.3 2.1-5.4 1-.8 2.6-1.2 4.7-1.2l2 .1V5H10c-1.7 0-2.5.7-2.5 2.5v1.3H11v3.9H7.6V27H3m8.8-10.2a9.8 9.8 0 0 1 10-9.8A9.8 9.8 0 0 1 29 23.8a9.9 9.9 0 0 1-7 2.8 9.8 9.8 0 0 1-10.1-9.8m14 4.1c1.2-1 1.7-2.5 1.7-4.1s-.5-3-1.6-4.1a5.4 5.4 0 0 0-4-1.7c-1.7 0-3 .5-4.2 1.7-1 1-1.6 2.4-1.6 4s.6 3.1 1.6 4.2a5.7 5.7 0 0 0 4.1 1.7c1.6 0 3-.6 4-1.7m9.5-9.1h-2.2v-4h2.2v-7h4.3v7h4v4h-4v8.1c0 2 .6 2.8 2.2 2.8.5 0 1 0 1.5-.2v3.9l-2.2.2c-3.9 0-5.8-2-5.8-6.2v-8.6m10 5a9.8 9.8 0 0 1 10-9.8 9.8 9.8 0 0 1 7.1 16.8 9.8 9.8 0 0 1-7.1 2.8 9.9 9.9 0 0 1-10-9.8m14 4.1c1.1-1 1.7-2.5 1.7-4.1s-.6-3-1.7-4.1a5.4 5.4 0 0 0-4-1.7 5 5 0 0 0-4 1.7c-1.1 1-1.7 2.4-1.7 4s.6 3.1 1.6 4.2a5.5 5.5 0 0 0 4.1 1.7c1.6 0 3-.6 4-1.7m25.2-10.7L82 13a6.2 6.2 0 0 0-4.7-2c-1.6 0-3 .5-4 1.6-1.1 1.1-1.7 2.5-1.7 4.2s.6 3 1.6 4.1a5.5 5.5 0 0 0 4.1 1.7c1.9 0 3.4-.7 4.7-2l2.7 2.8a9.7 9.7 0 0 1-7.4 3.2 10 10 0 0 1-7.1-2.8 9.4 9.4 0 0 1-3-7c0-2.8 1-5.1 3-7a10 10 0 0 1 7-2.8c3 0 5.4 1 7.4 3.2m16-.2V7.4h4.4v12.8c0 1.6.4 2.1 1.4 2.1h1v3.5c-.6.2-1.3.3-2.3.3-1 0-1.9-.2-2.5-.6a3.4 3.4 0 0 1-1.5-2.2c-1.3 2-3.4 2.9-6.4 2.9a9 9 0 0 1-6.6-2.8 9.5 9.5 0 0 1-2.6-6.8c0-2.8.9-5 2.6-6.9C90 8 92.1 7 94.7 7c3 0 5.2 1.3 6 3m-1.4 10.6c1.1-1 1.7-2.4 1.7-4s-.6-3-1.7-4c-1-1.1-2.4-1.7-4-1.7s-2.8.6-3.9 1.7c-1 1-1.5 2.4-1.5 4s.5 3 1.5 4 2.3 1.6 4 1.6a6 6 0 0 0 4-1.6m12-.2a5.5 5.5 0 0 0 4.7 2.4c2.3 0 3.2-1 3.2-2 0-.7-.4-1.2-1-1.5-.4-.3-1.1-.6-1.7-.7s-1.6-.6-2.2-.8c-2.9-1-4.4-2.6-4.4-5.2a5 5 0 0 1 1.8-4.1 7 7 0 0 1 4.5-1.5 7 7 0 0 1 5.9 2.7l-2.4 2.6c-.8-1-2-1.5-3.5-1.5-1.4 0-2.2.6-2.2 1.6 0 .7.3 1 .8 1.3l1.5.7 2.2.8c3.3 1.2 4.8 2.8 4.8 5.5 0 3.4-2.5 6-7.4 6-3.6 0-6.2-1.5-7.4-3.9l2.8-2.4M140.3 10V7.4h4.4v12.8c0 1.6.4 2.1 1.4 2.1h.9v3.5a6 6 0 0 1-2.2.3c-1 0-1.9-.2-2.5-.6a3.4 3.4 0 0 1-1.5-2.2c-1.3 2-3.4 2.9-6.4 2.9a9 9 0 0 1-6.6-2.8 9.5 9.5 0 0 1-2.6-6.8c0-2.8.9-5 2.6-6.9a9 9 0 0 1 6.6-2.7c3 0 5.2 1.3 6 3M139 20.6c1.1-1 1.7-2.4 1.7-4s-.6-3-1.7-4c-1-1.1-2.4-1.7-4-1.7s-2.8.6-4 1.7c-1 1-1.4 2.4-1.4 4s.5 3 1.5 4 2.3 1.6 4 1.6a6 6 0 0 0 4-1.6"/></svg>