<svg xmlns="http://www.w3.org/2000/svg" xmlns:xlink="http://www.w3.org/1999/xlink" id="Layer_1" width="150" height="106" x="0" y="0" version="1.1" viewBox="0 0 150 106" style="enable-background:new 0 0 150 106" xml:space="preserve"><style type="text/css">.st0{fill:#004aff}</style><g><path d="M55.1,58.2l-8-5.2l8-5.2c1.7-1.1,3.1-2.6,4.1-4.4c1-1.8,1.5-3.8,1.5-5.8c0-3.7-1.6-7.1-4.6-9.5 c-2.2-1.7-4.9-2.6-7.6-2.6H33.2c-3.7,0-7.3,0.7-10.7,2.2c-3.3,1.4-6.2,3.4-8.7,5.9C11.3,36.1,9.3,39,8,42.3 c-1.4,3.4-2.2,7-2.2,10.7c0,3.7,0.7,7.3,2.2,10.7c1.4,3.3,3.4,6.2,5.9,8.7c2.5,2.5,5.4,4.5,8.7,5.9c3.4,1.4,7,2.2,10.7,2.2h15.3 c3.2,0,6.3-1.3,8.6-3.5c2.3-2.3,3.5-5.3,3.5-8.6c0-2-0.5-4-1.5-5.8C58.2,60.8,56.8,59.2,55.1,58.2z M48.5,75.4H33.2 c-3,0-5.9-0.6-8.7-1.8c-2.7-1.1-5.1-2.7-7.1-4.8c-2.1-2.1-3.7-4.4-4.8-7.1c-1.2-2.8-1.8-5.7-1.8-8.7c0-3,0.6-5.9,1.8-8.7 c1.1-2.7,2.7-5.1,4.8-7.1c2.1-2.1,4.4-3.7,7.1-4.8c2.8-1.2,5.7-1.8,8.7-1.8h15.3c3,0,6.1,2.3,6.8,5.2c0.8,3.1-0.5,6.1-3,7.7 L42.5,50l-7.1-4.6c-0.1-0.1-0.2-0.1-0.4-0.2l0,0c-2.6-1.2-5.6-0.9-8,0.7c-2.4,1.6-3.8,4.2-3.8,7.1c0,2.9,1.4,5.5,3.8,7.1 s5.4,1.8,8,0.7l0,0c0.1-0.1,0.2-0.1,0.4-0.2l7.1-4.6l9.9,6.4c2.5,1.6,3.8,4.7,3,7.7C54.6,73,51.5,75.4,48.5,75.4z M33.5,55.8 l-0.2,0.1c-0.8,0.5-1.8,0.7-2.7,0.4c-0.4-0.1-0.9-0.4-1.2-0.7c-0.7-0.6-1.1-1.4-1.2-2.3c-0.1-1.3,0.5-2.5,1.5-3.2 c0.6-0.4,1.2-0.6,1.9-0.6h0c0.6,0,1.1,0.2,1.6,0.5l0.3,0.2C35.5,51.5,35.5,54.5,33.5,55.8z" class="st0"/><g><path d="M80.9,38.1c1.3,0,2.4-0.3,3.5-0.9c1-0.6,1.8-1.4,2.4-2.4v-3.6h-5.9v2.2h3.4v1c-0.7,1-1.8,1.5-3.2,1.5 c-1.2,0-2.2-0.4-2.9-1.2c-0.7-0.8-1.1-1.7-1.1-2.9c0-1.2,0.4-2.1,1.1-2.9c0.7-0.8,1.7-1.1,2.8-1.1c1.4,0,2.5,0.6,3.4,1.8l1.8-1.5 c-1.2-1.8-3-2.7-5.2-2.7c-1.8,0-3.4,0.6-4.7,1.8c-1.3,1.2-1.9,2.7-1.9,4.5c0,1.8,0.6,3.3,1.9,4.5C77.5,37.5,79,38.1,80.9,38.1z"/><polygon points="96.7 35.5 91.4 35.5 91.4 25.6 88.9 25.6 88.9 37.8 96.7 37.8"/><path d="M104.1,38.1c1.8,0,3.3-0.6,4.6-1.8s1.9-2.7,1.9-4.5c0-1.8-0.6-3.3-1.9-4.5c-1.3-1.2-2.8-1.8-4.6-1.8 c-1.8,0-3.3,0.6-4.6,1.8c-1.3,1.2-1.9,2.7-1.9,4.5c0,1.8,0.6,3.3,1.9,4.5C100.8,37.5,102.3,38.1,104.1,38.1z M101.3,28.8 c0.7-0.8,1.7-1.1,2.8-1.1l0,0c1.1,0,2.1,0.4,2.8,1.1c0.7,0.8,1.1,1.7,1.1,2.9s-0.4,2.1-1.1,2.9c-0.7,0.8-1.7,1.1-2.8,1.1 c-1.2,0-2.1-0.4-2.8-1.1c-0.7-0.7-1.1-1.7-1.1-2.9C100.2,30.5,100.5,29.6,101.3,28.8z"/><path d="M120.1,31.2L120.1,31.2c0.6-0.6,0.9-1.3,0.9-2.2c0-1-0.4-1.8-1.1-2.4s-1.6-0.9-2.8-0.9h-4.3v12.2h5.5c1.2,0,2.2-0.3,2.9-1 c0.7-0.7,1.1-1.5,1.1-2.6c0-0.7-0.2-1.4-0.6-1.9C121.3,31.8,120.7,31.4,120.1,31.2z M115.1,27.7h1.7c0.5,0,0.9,0.1,1.2,0.4 c0.3,0.2,0.4,0.6,0.4,1s-0.1,0.8-0.4,1c-0.3,0.3-0.7,0.4-1.2,0.4h-1.7V27.7z M119.3,35.3c-0.3,0.3-0.7,0.4-1.3,0.4h-2.9v-3.1h2.9 c0.5,0,1,0.1,1.3,0.4c0.3,0.3,0.5,0.6,0.5,1.1C119.7,34.6,119.6,35,119.3,35.3z"/><path d="M126.3,36.2h5l0.7,1.6h2.7l-5.4-12.5h-0.8l-5.5,12.5h2.7L126.3,36.2z M128.8,30l1.6,4.1h-3.2L128.8,30z"/><polygon points="138.8 35.5 138.8 25.6 136.3 25.6 136.3 37.8 144.2 37.8 144.2 35.5"/><path d="M86.2,56.3L84.4,55c-0.9,1.4-2,2.1-3.5,2.1c-1.2,0-2.1-0.4-2.8-1.1c-0.7-0.7-1.1-1.7-1.1-2.9c0-1.2,0.4-2.2,1.1-2.9 c0.7-0.8,1.7-1.1,2.8-1.1c1.5,0,2.6,0.7,3.5,2.1l1.9-1.3c-0.5-0.9-1.3-1.7-2.2-2.2c-0.9-0.5-2-0.9-3.2-0.9c-1.8,0-3.4,0.6-4.6,1.8 c-1.3,1.2-1.9,2.7-1.9,4.5c0,1.8,0.6,3.3,1.9,4.5c1.3,1.2,2.8,1.8,4.6,1.8c1.2,0,2.2-0.3,3.2-0.8C85,58,85.7,57.3,86.2,56.3z"/><polygon points="87.2 49.1 91.1 49.1 91.1 59.1 93.6 59.1 93.6 49.1 97.6 49.1 97.6 46.9 87.2 46.9"/><path d="M104.7,59.4c1.8,0,3.3-0.6,4.6-1.8c1.3-1.2,1.9-2.7,1.9-4.5c0-1.8-0.6-3.3-1.9-4.5c-1.3-1.2-2.8-1.8-4.6-1.8 c-1.8,0-3.3,0.6-4.6,1.8c-1.3,1.2-1.9,2.7-1.9,4.5c0,1.8,0.6,3.3,1.9,4.5C101.4,58.7,102.9,59.4,104.7,59.4z M101.9,50.1 c0.7-0.8,1.7-1.1,2.8-1.1l0,0c1.1,0,2.1,0.4,2.8,1.1c0.7,0.8,1.1,1.7,1.1,2.9c0,1.2-0.4,2.1-1.1,2.9c-0.7,0.8-1.7,1.1-2.8,1.1 c-1.2,0-2.1-0.4-2.8-1.1c-0.7-0.7-1.1-1.7-1.1-2.9C100.8,51.8,101.2,50.9,101.9,50.1z"/><polygon points="75 80.4 77.5 80.4 77.5 75.7 82.1 75.7 82.1 73.5 77.5 73.5 77.5 70.4 83.1 70.4 83.1 68.2 75 68.2"/><path d="M90.6,67.9c-1.8,0-3.3,0.6-4.6,1.8c-1.3,1.2-1.9,2.7-1.9,4.5c0,1.8,0.6,3.3,1.9,4.5c1.3,1.2,2.8,1.8,4.6,1.8 c1.8,0,3.3-0.6,4.6-1.8c1.3-1.2,1.9-2.7,1.9-4.5c0-1.8-0.6-3.3-1.9-4.5C94,68.5,92.4,67.9,90.6,67.9z M93.5,77.2 c-0.7,0.8-1.7,1.1-2.8,1.1c-1.2,0-2.1-0.4-2.8-1.1c-0.7-0.7-1.1-1.7-1.1-2.9c0-1.2,0.4-2.1,1.1-2.9c0.7-0.8,1.7-1.1,2.8-1.1l0,0 c1.1,0,2.1,0.4,2.8,1.1c0.7,0.8,1.1,1.7,1.1,2.9C94.6,75.4,94.2,76.4,93.5,77.2z"/><path d="M107.7,74.2c0.4-0.6,0.6-1.3,0.6-2.1c0-1.2-0.4-2.1-1.2-2.9c-0.8-0.7-1.9-1.1-3.2-1.1h-4.6v12.2h2.5v-4.3h1.8l3.2,4.3 l2.8,0l-3.5-4.8C106.8,75.2,107.3,74.8,107.7,74.2z M105.3,73.4c-0.3,0.3-0.8,0.5-1.4,0.5h-2.1l0-3.5h2.1c0.6,0,1,0.2,1.4,0.5 c0.3,0.3,0.5,0.7,0.5,1.3C105.8,72.7,105.6,73.1,105.3,73.4z"/><path d="M118.6,75.5c0,0.9-0.2,1.6-0.7,2.1c-0.5,0.5-1.2,0.7-1.9,0.7c-0.8,0-1.4-0.2-1.9-0.7c-0.5-0.5-0.8-1.2-0.8-2.1v-7.4h-2.5 v7.2c0,1.6,0.5,2.9,1.4,3.9c1,1,2.2,1.4,3.7,1.4c1.5,0,2.8-0.5,3.7-1.4c1-1,1.4-2.2,1.4-3.9l0.1-7.2h-2.5L118.6,75.5L118.6,75.5z"/><polygon points="129.7 74.6 124.6 67.9 123.8 67.9 123.8 80.4 126.3 80.4 126.3 73.9 129.3 77.7 130.2 77.7 133.2 73.9 133.2 80.4 135.7 80.4 135.7 67.9 134.9 67.9"/></g></g></svg>