<svg width="147" height="27" enable-background="new 0 0 425.1 110.6" viewBox="0 0 425.1 110.6" xmlns="http://www.w3.org/2000/svg"><g fill="#f60"><path d="m87.9 21.8c-8.1 0-16.1 2.1-20.7 4l3.5 9.5c3.9-1.7 10.4-3.3 15.6-3.3 6.4 0 10.5 2.2 10.5 8v2.9c-16.9.9-32.7 3.9-32.7 19.2 0 11.4 8.4 18 25.2 18 8.4 0 16.8-1.9 20.9-4v-34.4c-.1-14.3-8-19.9-22.3-19.9zm8.9 47.1c-1.4.6-5 1.1-8 1.1-7.4 0-11.5-3-11.5-8.3 0-8.4 9.1-9.3 19.5-9.8z"/><path d="m142.9 22.3c-3.3 0-7.4.7-9.8 1.9v-24.2h-14.1v76.1c4.6 2.2 12 4 19.8 4 17.8 0 28.5-9.7 28.5-30.7 0-17-9.9-27.1-24.4-27.1zm-3.3 46.7c-2.6 0-5.2-.5-6.5-1.1v-33.4c1.8-.8 4.6-1.5 7.1-1.5 8 0 12.8 6.5 12.8 17.5.1 12.4-5.3 18.5-13.4 18.5z"/><path d="m57.5 78.9h-14.2v-28.3c0-11-5.5-17.5-13.4-17.5-2.6 0-5.4.6-7.2 1.5v44.3h-14.1v-78.9h14.1v24.2c2.5-1.1 6.5-1.9 9.8-1.9 14.5 0 24.9 10 24.9 27.1v29.5z"/><path d="m182.7 15.3c-4.4 0-8.1-3.4-8.1-7.7 0-4.2 3.6-7.6 8.1-7.6s8.1 3.3 8.1 7.6-3.7 7.7-8.1 7.7"/><path d="m175.7 23h14.1v55.8h-14.1z"/><path d="m201 23v-16.4h14.1v16.4h10.2v10.6h-10.2v27.6c0 4.6 2.6 6.1 6.2 6.1 1.5 0 3.1-.4 4-.8v11.7c-1.7.8-5.1 1.5-8.5 1.5-10.8 0-15.8-5.9-15.8-17.6z"/><path d="m255.6 21.8c-8.1 0-16 2.1-20.7 4l3.5 9.5c3.9-1.7 10.4-3.3 15.6-3.3 6.4 0 10.5 2.2 10.5 8v2.9c-16.9.9-32.7 3.9-32.7 19.2 0 11.4 8.4 18 25.2 18 8.4 0 16.8-1.9 20.9-4v-34.4c0-14.3-8-19.9-22.3-19.9zm8.9 47.1c-1.4.6-5 1.1-8 1.1-7.4 0-11.5-3-11.5-8.3 0-8.4 9.1-9.3 19.5-9.8z"/><path d="m310.3 80.1c-13.1 0-25-9.3-25-29.2s11.9-29.1 25-29.1c6.6 0 11.3 1.4 14.8 3.8l-4.5 10.2c-2.1-1.6-5.1-2.4-8.3-2.4-7 0-12.4 5.8-12.4 17.4s5.7 17.4 12.4 17.4c3.2 0 6.2-.9 8.3-2.5l4.5 10.6c-3.6 2.4-8.2 3.8-14.8 3.8"/><path d="m331.7 0h14.1v78.9h-14.1z"/><path d="m363.8 15.3c-4.4 0-8.1-3.4-8.1-7.7 0-4.2 3.6-7.6 8.1-7.6s8.1 3.3 8.1 7.6-3.6 7.7-8.1 7.7"/><path d="m356.8 23h14.1v55.8h-14.1z"/><path d="m402.2 21.8c-8.1 0-16.1 2.1-20.7 4l3.5 9.5c3.9-1.7 10.4-3.3 15.6-3.3 6.4 0 10.5 2.2 10.5 8v2.9c-16.9.9-32.7 3.9-32.7 19.2 0 11.4 8.4 18 25.2 18 8.4 0 17.4-1.9 21.5-4v-34.4c0-14.3-8.6-19.9-22.9-19.9zm8.9 47.1c-1.5.6-5 1.1-8 1.1-7.3 0-11.5-3-11.5-8.3 0-8.4 9.1-9.3 19.5-9.8z"/><path d="m31.7 99.7c5.4 0 10.4-.8 15.1-2.4s9-3.9 12.9-6.7l3.7 8.6c-4.2 3.5-9.1 6.3-14.4 8.4-5.4 2-11.1 3.1-17.3 3.1-6.1 0-11.9-1-17.3-3.1s-10.2-4.8-14.4-8.4l3.7-8.6c3.9 2.9 8.2 5.1 12.9 6.7s9.7 2.4 15.1 2.4"/></g></svg>