<svg xmlns="http://www.w3.org/2000/svg" xmlns:xlink="http://www.w3.org/1999/xlink" id="Capa_1" width="147" height="27" x="0" y="0" version="1.1" viewBox="0 0 138 34.942" style="enable-background:new 0 0 138 34.942" xml:space="preserve"><style type="text/css">.st0{fill:#2088c2}</style><g id="Logo_3_"><g id="InfoJobs_3_"><path d="M0,26.798c0,0.299,0.263,0.488,0.563,0.488h4.991c0.339,0,0.639-0.225,0.676-0.562L9.447,0.606V0.531 c0-0.263-0.151-0.451-0.411-0.451H8.922H3.578c-0.34,0.039-0.401,0.192-0.437,0.493L0,26.798z" class="st0"/><path d="M29.557,11.746c0,0.826-0.114,1.615-0.188,2.402l-1.576,12.576c-0.037,0.337-0.3,0.562-0.638,0.562h-4.579 c-0.338,0-0.563-0.189-0.563-0.488v-0.075l1.501-12.199c0.076-0.526,0.15-1.053,0.15-1.539v-0.038 c0-0.601-0.113-1.052-0.375-1.351c-0.376-0.45-0.975-0.638-1.878-0.638c-1.802,0-3.866,0.488-3.866,0.488L15.67,26.723 c-0.039,0.337-0.301,0.562-0.677,0.562h-4.578c-0.337,0-0.564-0.189-0.564-0.488v-0.075l2.028-16.366 c0.188-1.426,1.164-1.877,3.415-2.401c1.952-0.45,4.957-0.863,7.319-0.863c2.704,0,4.693,0.375,5.856,1.5 c0.674,0.714,1.088,1.727,1.088,3.116V11.746z" class="st0"/><path d="M77.098,0.481c0-0.263-0.149-0.45-0.45-0.45h-0.073l-5.253-0.012c-0.337,0.037-0.452,0.184-0.49,0.484 l-3.342,27.42c-0.528,2.819-1.688,2.835-3.64,2.948c-0.788,0.037-1.501,0.037-2.027,0.074c-0.562,0-0.826,0.205-0.9,0.844 l-0.263,2.176v0.187c0,0.526,0.337,0.564,0.674,0.601c0.676,0.076,1.014,0.187,3.606,0.187c4.39,0,8.03-1.35,8.745-7.168 L77.098,0.481z" class="st0"/><path d="M64.066,21.942c-1.239,3.378-3.792,5.668-9.796,5.668c-3.379,0-5.482-0.712-6.758-1.951 c-1.312-1.314-1.727-3.154-1.727-5.33c0-2.402,0.49-5.968,1.39-8.146c1.313-3.151,3.905-5.254,9.647-5.254 c3.415,0,5.555,0.751,6.831,2.028c1.276,1.277,1.652,3.04,1.652,5.217C65.304,16.537,64.89,19.803,64.066,21.942 M58.812,11.62 c-0.489-0.525-1.241-0.787-2.479-0.787c-2.74,0-3.566,1.239-4.054,3.903c-0.339,1.84-0.637,3.902-0.637,5.78 c0,1.164,0.151,1.989,0.712,2.514c0.487,0.45,1.239,0.676,2.403,0.676c2.814,0,3.602-1.313,4.091-4.128 c0.337-1.803,0.601-3.717,0.601-5.518C59.449,12.934,59.297,12.146,58.812,11.62" class="st0"/><path d="M96.366,21.942c-1.24,3.378-3.791,5.67-9.797,5.67c-3.379,0-5.481-0.714-6.757-1.953 c-1.312-1.313-1.725-3.153-1.725-5.33c0-2.402,0.487-5.967,1.388-8.144c1.315-3.152,3.905-5.256,9.65-5.256 c3.413,0,5.553,0.753,6.827,2.026c1.277,1.278,1.653,3.041,1.653,5.218C97.605,16.539,97.192,19.805,96.366,21.942 M91.112,11.62 c-0.488-0.524-1.238-0.787-2.477-0.787c-2.74,0-3.566,1.237-4.053,3.903c-0.34,1.84-0.638,3.903-0.638,5.78 c0,1.164,0.149,1.99,0.711,2.514c0.489,0.452,1.24,0.676,2.403,0.676c2.817,0,3.604-1.314,4.091-4.129 c0.337-1.801,0.601-3.716,0.601-5.517C91.75,12.934,91.6,12.147,91.112,11.62" class="st0"/><path d="M118.405,21.305c-1.279,4.241-3.868,6.305-9.873,6.305c-2.93,0-5.48-0.413-6.906-0.9 c-1.465-0.488-1.838-1.125-1.838-2.141c0-0.487,0.075-1.051,0.187-1.763l2.647-21.905c0.038-0.526,0.262-0.825,0.788-0.901 l4.355,0.012h0.187c0.337,0,0.563,0.152,0.563,0.527V0.65l-0.621,4.777l-0.273,2.197c0,0,2.262-0.696,4.741-0.696 c2.476,0,4.277,0.489,5.441,1.616c1.125,1.087,1.653,2.813,1.653,5.403C119.455,16.312,119.079,19.016,118.405,21.305 M113.112,11.66c-0.489-0.639-1.278-0.79-2.517-0.79c-1.503,0-3.452,0.487-3.452,0.487l-1.465,12.049c0,0,1.277,0.3,2.853,0.3 c2.704,0,3.83-0.751,4.542-4.728c0.3-1.616,0.526-3.342,0.526-4.993C113.6,12.897,113.449,12.147,113.112,11.66" class="st0"/><path d="M137.249,10.983c-0.075,0.263-0.3,0.373-0.562,0.373c-0.039,0-0.076-0.036-0.151-0.036 c-0.376-0.039-2.514-0.527-4.504-0.527c-0.938,0-2.064,0.113-2.777,0.677c-0.489,0.412-0.713,0.975-0.713,1.612v0.04 c0.038,1.575,1.728,1.65,3.453,1.99c1.501,0.225,3.003,0.599,3.978,1.575c0.751,0.713,1.201,1.801,1.201,3.454 c0,1.838-0.563,3.715-1.877,5.103c-1.652,1.728-4.28,2.365-7.206,2.365c-3.229,0-6.157-0.788-6.793-1.089 c-0.113-0.075-0.34-0.111-0.34-0.449c0-0.113,0-0.188,0.038-0.338l0.754-2.403c0.111-0.336,0.26-0.45,0.486-0.45 c0.074,0,0.114,0,0.188,0.037c0.487,0.113,3.078,0.863,5.403,0.863c1.052,0,2.028-0.187,2.666-0.751 c0.563-0.45,0.788-1.088,0.788-1.727c0-0.787-0.263-1.2-0.788-1.462c-0.526-0.263-1.238-0.377-2.101-0.527 c-1.39-0.262-3.303-0.525-4.542-1.726c-0.713-0.751-1.163-1.763-1.163-3.341c0-1.652,0.45-3.415,1.499-4.69 c1.878-2.253,5.069-2.59,7.47-2.59c3.002,0,5.293,0.637,6.007,0.863C137.926,7.905,138,8.092,138,8.318v0.187L137.249,10.983z" class="st0"/><path d="M46.381,0.657c-0.561-0.151-2.251-0.639-4.953-0.639c-4.393,0-6.682,1.99-7.169,5.969l-0.3,2.552 l-0.489,4.129l-1.842,13.159h-0.005L31.59,26.09l-0.105,0.745l-0.005,0.023c0,0.003,0.001,0.006,0.001,0.008l-0.001,0.007h0.003 c0.009,0.288,0.261,0.412,0.556,0.412h4.44c0.337,0,0.684-0.113,0.759-0.549l0.04-0.3l0.005-0.001l1.966-13.769h4.769 c0.338,0,0.6-0.226,0.637-0.562l0.375-3.003V9.026c0-0.299-0.185-0.488-0.526-0.488h-4.765l0.3-2.401 c0.223-1.578,0.9-2.028,2.665-2.028c1.012,0,2.176,0.189,2.626,0.263h0.15c0.3,0,0.414-0.15,0.49-0.488l0.712-2.552 c0.036-0.075,0.036-0.15,0.036-0.189C46.719,0.919,46.645,0.732,46.381,0.657z" class="st0"/></g></g></svg>