<svg width="147" height="27" id="Capa_1" xmlns="http://www.w3.org/2000/svg" viewBox="0 0 240 48"><style>.st1,.st2{fill-rule:evenodd;clip-rule:evenodd}.st1{fill-opacity:.3668}.st2{fill:#b7df9e}.st3{fill-opacity:.3668}.st5{fill-rule:evenodd;clip-rule:evenodd;fill:#fff}</style><path d="M236.8 24.4l-.3-.3c.6-1 .8-2.1.8-3.3v-6.1c0-1-.3-2-.7-2.9-.6-1.2-1.6-2.2-2.8-2.8-.5-.2-.9-.4-1.7-.7-.7-.3-1.4-.5-2.4-.8-.8-.2-1.5-.3-2.5-.5s-2-.2-3-.2c-2 0-3.8.3-5.6.8-1.4.4-2.7 1-3.9 1.8-2.9-1.7-6.3-2.5-10-2.5-2 0-3.8.2-5.5.7-.4-.9-1-1.7-1.7-2.3-1.7-1.6-3.9-2.4-6.4-2.4-2.4 0-4.6.7-6.3 2.3-.7.6-1.2 1.3-1.6 2-1.3-.3-2.8-.4-4.5-.4-3.9 0-7.4 1-10.3 3-2.3-1.9-5.3-2.9-8.7-2.9-2.2 0-4.4.4-6.5 1.2-.4.2-.9.4-1.3.6-.2-.1-.4-.3-.7-.4-.9-.5-1.6-.7-2.7-.7H143c-.3 0-.6 0-.9.1-.3 0-.6-.1-.9-.1h-7.8c-1.7 0-3.1.7-4.3 1.8l-.1.1-.1-.1c-1.1-1.1-2.6-1.8-4.3-1.8h-7.8c-.8 0-1.7.2-2.4.5-1.8-.8-3.8-1.2-6-1.2s-4.4.4-6.5 1.2c-.4.2-.9.4-1.3.6-.2-.1-.4-.3-.7-.4-.9-.5-1.6-.7-2.7-.7h-5.6c-1.1 0-2.1.3-3 .8-.6-.3-1.2-.5-1.9-.7-2.1-.6-4.4-.9-7.1-.9-1.8 0-3.4.2-5 .5-1.1.3-2.4.7-3.6 1.2v-.7c0-1.4-.4-2.6-1.2-3.6-1.1-1.5-2.7-2.4-4.5-2.4h-8C55.8.9 54.1.4 52.3.4c-2.5 0-4.7.8-6.4 2.5-1.2 1.3-2 2.8-2.3 4.6-1.4-.4-2.9-.6-4.6-.6-1.6 0-3.1.2-4.6.6-1.4.4-2.8 1-4 1.7-.3-.2-.7-.5-1.1-.7-1.9-1.1-4-1.6-6.3-1.6s-4.5.4-6.5 1.2c-.5.2-.9.4-1.4.6-.2-.2-.5-.3-.7-.4-.9-.4-1.7-.7-2.8-.7H6c-1.7 0-3.2.7-4.3 1.8C.6 10.6 0 12.1 0 13.7v26.7c0 1.6.5 3.1 1.7 4.3 1.1 1.2 2.6 1.8 4.3 1.8h8c1.6 0 3-.6 4.2-1.7 1.1 1.1 2.6 1.7 4.2 1.7h8c1.6 0 3.1-.6 4.2-1.7 1.1 1.1 2.6 1.7 4.2 1.7h8c.4 0 .7 0 1.1-.1.3.1.7.1 1 .1h7c.3 0 .6 0 1-.1.4.1.7.1 1.1.1h7.2c1.1 0 2-.3 2.9-.8 2 1 4.4 1.5 7.1 1.5 2.1 0 4.2-.3 6.2-1 .7-.2 1.4-.5 2.1-.8 1.7 1.1 3.7 1.7 5.8 1.7h1.8l.6-.6h7.7c1.7 0 3.1-.7 4.3-1.8l.1-.1.1.1c1.1 1.2 2.6 1.9 4.4 1.8h7.7c.8 0 1.6-.2 2.4-.5 1.8.8 3.7 1.2 5.9 1.2 2.3 0 4.5-.4 6.4-1.2.4-.1.7-.3 1.1-.5 1 .7 2.1 1 3.3 1h6c.3 0 .6 0 .9-.1.3 0 .6.1.9.1h7.8c1.7 0 3.1-.7 4.3-1.8l.1-.1.1.1c1.1 1.2 2.6 1.9 4.4 1.8h7.7c1.2 0 2.3-.4 3.3-1 2.3 1.1 5 1.6 7.8 1.6 2 0 4-.3 5.9-.8.3-.1.5-.2.8-.2.7.3 1.5.5 2.3.5h7.3c.9 0 1.8-.2 2.6-.6 2.2.8 4.7 1.3 7.4 1.3 3.1 0 6-.6 8.5-1.8 1.6.6 3.2 1 4.9 1.3 1.9.3 3.9.5 6 .5 4.5 0 8.2-1.2 11-3.6 3-2.6 4.5-6.3 4.4-10.7.2-3.3-.8-6.2-2.7-8.6z" fill="#009333"/><path id="s-shadow" class="st1" d="M233.9 41.8c-1.9 1.7-4.6 2.5-8 2.5-1.9 0-3.6-.2-5.2-.4s-3.1-.7-4.5-1.2c-.2-.1-.4-.2-.6-.5-.2-.2-.3-.5-.3-.8l-.6-6.4c-.1-.6.1-1.1.5-1.5.4-.3.8-.4 1.4-.1.3.1.7.3 1.3.6.6.3 1.3.6 2.2.9 1.7.8 3.4 1.1 5.2 1.1.6 0 1-.1 1.4-.2.3-.1.5-.3.5-.6 0-.4-.4-.9-1.3-1.2-.8-.4-2-.9-3.4-1.5v.1c-1.2-.4-2.6-1.3-4.5-2.6-2-1.5-3.1-3.8-3.1-7.1 0-1.7.3-3.1.8-4.4.5-1.2 1.3-2.3 2.5-3.2 1-.8 2.1-1.4 3.4-1.8 1.3-.4 2.7-.6 4.3-.6.7 0 1.5.1 2.2.2.8.1 1.5.3 2.1.4s1.3.4 1.9.6c.6.2 1.1.4 1.5.6.2.1.4.3.6.6.2.3.2.6.2.9v6.1c0 .7-.2 1.2-.7 1.4-.5.3-.9.2-1.4-.2-.1-.1-.4-.2-.8-.5s-1-.6-1.7-.9c-1.3-.8-2.6-1.1-3.8-1.1-.5 0-.8.1-1.1.3-.3.2-.4.4-.4.6 0 .5.4.9 1.2 1.4.8.5 2.2 1.1 4 1.9 2.2.9 3.9 2.1 5.1 3.6 1.2 1.5 1.8 3.3 1.8 5.6.2 3.4-.8 5.8-2.7 7.4"/><path id="s--green" class="st2" d="M232.2 40.1c-1.9 1.7-4.6 2.5-8 2.5-1.9 0-3.6-.2-5.2-.4-1.6-.3-3.1-.7-4.5-1.2-.2-.1-.4-.2-.6-.5-.2-.2-.3-.5-.3-.8l-.6-6.4c-.1-.6.1-1.1.5-1.5.4-.3.8-.4 1.4-.1.3.1.7.3 1.3.6.6.3 1.3.6 2.2.9 1.7.8 3.4 1.1 5.2 1.1.6 0 1-.1 1.4-.2.3-.1.5-.3.5-.6 0-.4-.4-.9-1.3-1.2-.8-.4-2-.9-3.4-1.5v.1c-1.2-.4-2.6-1.3-4.5-2.6-2-1.5-3.1-3.8-3.1-7.1 0-1.7.3-3.1.8-4.4.5-1.2 1.3-2.3 2.5-3.2 1-.8 2.1-1.4 3.4-1.8 1.3-.4 2.7-.6 4.3-.6.7 0 1.5.1 2.2.2.8.1 1.5.3 2.1.4.7.2 1.3.4 1.9.6.6.2 1.1.4 1.5.6.2.1.4.3.6.6s.2.6.2.9v6.1c0 .7-.2 1.2-.7 1.4-.5.3-.9.2-1.4-.2-.1-.1-.4-.2-.8-.5s-1-.6-1.7-.9c-1.3-.8-2.6-1.1-3.8-1.1-.5 0-.8.1-1.1.3s-.4.4-.4.6c0 .5.4.9 1.2 1.4.8.5 2.2 1.1 4 1.9 2.2.9 3.9 2.1 5.1 3.6s1.8 3.3 1.8 5.6c.2 3.4-.8 5.8-2.7 7.4"/><path id="o-shadow" class="st3" d="M210 24.2c-.9-1.1-2.1-1.6-3.6-1.6s-2.7.5-3.6 1.6c-.9 1.1-1.3 2.6-1.3 4.5s.4 3.4 1.3 4.5 2 1.6 3.6 1.6 2.8-.5 3.6-1.6c.9-1.1 1.3-2.6 1.3-4.5s-.4-3.4-1.3-4.5m7 15.9c-2.6 2.8-6.2 4.2-10.6 4.2-4.4 0-7.9-1.4-10.6-4.2-2.6-2.8-4-6.6-4-11.4 0-4.8 1.3-8.6 4-11.4 2.7-2.8 6.2-4.2 10.6-4.2 4.4 0 7.9 1.4 10.6 4.2 2.6 2.8 4 6.6 4 11.4 0 4.9-1.3 8.6-4 11.4"/><path id="o--green" d="M208.4 22.5c-.9-1.1-2.1-1.6-3.6-1.6s-2.7.5-3.6 1.6c-.9 1.1-1.3 2.6-1.3 4.5s.4 3.4 1.3 4.5 2 1.6 3.6 1.6 2.8-.5 3.6-1.6c.9-1.1 1.3-2.6 1.3-4.5s-.5-3.4-1.3-4.5m6.9 16c-2.6 2.8-6.2 4.2-10.6 4.2s-7.9-1.4-10.6-4.2c-2.6-2.8-4-6.6-4-11.4 0-4.8 1.3-8.6 4-11.4 2.7-2.8 6.2-4.2 10.6-4.2s7.9 1.4 10.6 4.2c2.6 2.8 4 6.6 4 11.4 0 4.8-1.3 8.6-4 11.4" fill="#b7df9e"/><path id="i-2-shadow" class="st1" d="M189.2 43.7c-.3 0-.6-.1-.8-.4-.2-.3-.3-.5-.3-.9V19.9c0-.3.1-.6.3-.9.2-.3.5-.4.8-.4h6.4c.2 0 .4 0 .6.1s.5.2.7.3c.2.1.4.3.6.4.2.2.2.3.2.5v22.5c0 .3-.1.6-.3.9-.2.3-.5.4-.8.4h-7.4zm.5-33.4c.8-.7 1.8-1.1 3.2-1.1 1.4 0 2.4.4 3.2 1.1.8.7 1.1 1.7 1.1 2.9s-.4 2.2-1.1 2.9c-.8.7-1.8 1.1-3.2 1.1-1.3 0-2.4-.4-3.2-1.1-.8-.7-1.2-1.7-1.2-2.9s.4-2.2 1.2-2.9z"/><path id="i-2-green" class="st2" d="M187.5 42c-.3 0-.6-.1-.8-.4-.2-.3-.3-.5-.3-.9V18.2c0-.3.1-.6.3-.9.2-.3.5-.4.8-.4h6.4c.2 0 .4 0 .6.1.2.1.5.2.7.3.2.1.4.3.6.4.2.2.2.3.2.5v22.5c0 .3-.1.6-.3.9-.2.3-.5.4-.8.4h-7.4zm.5-33.4c.8-.7 1.8-1.1 3.2-1.1 1.4 0 2.4.4 3.2 1.1.8.7 1.1 1.7 1.1 2.9s-.4 2.2-1.1 2.9c-.8.7-1.8 1.1-3.2 1.1-1.3 0-2.4-.4-3.2-1.1-.8-.7-1.2-1.7-1.2-2.9s.4-2.2 1.2-2.9z"/><path id="c-shadow" class="st1" d="M188.5 41.3c0 .2-.1.4-.3.6-.2.3-.3.4-.4.5-.4.3-1.4.7-3 1.1-1.6.4-3.1.7-4.7.7-4 0-7.3-1.4-9.8-4.1-2.5-2.8-3.7-6.5-3.7-11.1 0-2.5.3-4.7.9-6.6s1.6-3.6 2.8-5c2.5-2.9 5.9-4.3 10.1-4.3 1.9 0 3.4.2 4.6.6s2.2.8 3 1.3c.2.1.3.2.5.5s.3.5.3.7l.6 6.8c.1.7-.1 1.2-.6 1.5-.5.3-1 .3-1.5-.1-.3-.2-.6-.4-1.1-.7-.5-.2-1-.5-1.7-.8-1.2-.6-2.4-.8-3.6-.8-1.5 0-2.6.6-3.4 1.8-.8 1.2-1.2 2.9-1.2 5 0 1.9.5 3.3 1.3 4.2.9.9 2.3 1.4 4.1 1.4 1 0 2.2-.3 3.4-.8.5-.2.9-.4 1.2-.5.3-.1.6-.2.8-.3h-.1c.2-.1.3-.2.4-.2.1-.1.3-.1.5-.1.4 0 .8.2 1 .5s.4.8.3 1.2l-.7 7z"/><path id="c--green" class="st2" d="M186.8 39.6c0 .2-.1.4-.3.6-.2.3-.3.4-.4.5-.4.3-1.4.7-3 1.1-1.6.4-3.1.7-4.7.7-4 0-7.3-1.4-9.8-4.1-2.5-2.8-3.7-6.5-3.7-11.1 0-2.5.3-4.7.9-6.6.6-1.9 1.6-3.6 2.8-5 2.5-2.9 5.9-4.3 10.1-4.3 1.9 0 3.4.2 4.6.6 1.2.4 2.2.8 3 1.3.2.1.3.2.5.5s.3.5.3.7l.6 6.8c.1.7-.1 1.2-.6 1.5-.5.3-1 .3-1.5-.1-.3-.2-.6-.4-1.1-.7-.5-.2-1-.5-1.7-.8-1.2-.6-2.4-.8-3.6-.8-1.5 0-2.6.6-3.4 1.8-.8 1.2-1.2 2.9-1.2 5 0 1.9.5 3.3 1.3 4.2.9.9 2.3 1.4 4.1 1.4 1 0 2.2-.3 3.4-.8.5-.2.9-.4 1.2-.5.3-.1.6-.2.8-.3h-.1c.2-.1.3-.2.4-.2.1-.1.3-.1.5-.1.4 0 .8.2 1 .5.3.3.4.8.3 1.2l-.7 7z"/><path id="n-2shadow" class="st1" d="M161.2 43.7c-.4 0-.7-.2-1-.4-.3-.3-.4-.7-.4-1.1v-16c0-1-.1-1.8-.4-2.4s-.7-.9-1.2-.9-1 .1-1.5.2-1 .4-1.5.6h.1c-.3.2-.6.3-.9.4-.3.1-.5.3-.6.4v17.8c0 .5-.1.8-.4 1.1-.3.3-.6.4-1 .4h-7.8c-.4 0-.7-.2-.9-.4-.3-.3-.4-.7-.4-1.1V15.4c0-.4.1-.8.4-1.1.3-.3.6-.4.9-.4h5.6c.2 0 .4.1.6.2.3.1.4.3.6.5l1.1 2c1.3-1 2.7-1.8 4.2-2.4 1.5-.6 3.1-.9 4.7-.9 3 0 5.2.9 6.7 2.8s2.2 4.7 2.2 8.3v17.8c0 .5-.1.8-.4 1.1s-.6.4-1 .4h-7.7z"/><path id="n-2-green" class="st2" d="M159.5 42c-.4 0-.7-.2-1-.4-.3-.3-.4-.7-.4-1.1v-16c0-1-.1-1.8-.4-2.4-.3-.6-.7-.9-1.2-.9s-1 .1-1.5.2-1 .4-1.5.6h.1c-.3.2-.6.3-.9.4-.3.1-.5.3-.6.4v17.8c0 .5-.1.8-.4 1.1-.3.3-.6.4-1 .4H143c-.4 0-.7-.2-.9-.4-.3-.3-.4-.7-.4-1.1V13.7c0-.4.1-.8.4-1.1s.6-.4.9-.4h5.6c.2 0 .4.1.6.2.3.1.4.3.6.5l1.1 2c1.3-1 2.7-1.8 4.2-2.4 1.5-.6 3.1-.9 4.7-.9 3 0 5.2.9 6.7 2.8s2.2 4.7 2.2 8.3v17.8c0 .5-.1.8-.4 1.1-.3.3-.6.4-1 .4h-7.8z"/><path id="u-shadow" class="st1" d="M144.2 42.1c0 .5-.1.8-.4 1.1-.3.3-.6.4-.9.4h-6c-.3 0-.5-.1-.8-.3s-.4-.4-.5-.6l-.7-1.7c-1.4 1-2.8 1.8-4.2 2.3-1.4.6-3 .8-4.7.8-2.9 0-5.2-.9-6.6-2.7-1.5-1.8-2.2-4.4-2.2-7.9V15.4c0-.4.1-.8.4-1.1.3-.3.6-.4 1-.4h7.8c.4 0 .7.2 1 .4.3.3.4.6.4 1.1v16c0 2.3.6 3.4 1.7 3.4.3 0 .6-.1.9-.1.4-.1.8-.2 1.3-.4h-.1c.4-.2.8-.4 1.1-.5.4-.2.7-.3 1-.5V15.4c0-.4.1-.8.4-1.1.3-.3.6-.4 1-.4h7.8c.4 0 .7.2.9.4.3.3.4.6.4 1.1v26.7z"/><path id="u-green" class="st2" d="M142.5 40.4c0 .5-.1.8-.4 1.1-.3.3-.6.4-.9.4h-6c-.3 0-.5-.1-.8-.3s-.4-.4-.5-.6l-.7-1.7c-1.4 1-2.8 1.8-4.2 2.3-1.4.6-3 .8-4.7.8-2.9 0-5.2-.9-6.6-2.7-1.5-1.8-2.2-4.4-2.2-7.9V13.7c0-.4.1-.8.4-1.1.3-.3.6-.4 1-.4h7.8c.4 0 .7.2 1 .4.3.3.4.6.4 1.1v16c0 2.3.6 3.4 1.7 3.4.3 0 .6-.1.9-.1s.8-.2 1.3-.4c.4-.2.8-.4 1.1-.5.4-.2.7-.3 1-.5V13.7c0-.4.1-.8.4-1.1s.6-.4 1-.4h7.8c.4 0 .7.2.9.4s.4.6.4 1.1l-.1 26.7z"/><path id="n--shadow" class="st1" d="M109.9 43.7c-.4 0-.7-.2-1-.4-.3-.3-.4-.7-.4-1.1v-16c0-1-.1-1.8-.4-2.4s-.7-.9-1.2-.9-1 .1-1.5.2-1 .4-1.5.6h.1c-.3.2-.6.3-.9.4-.3.1-.5.3-.6.4v17.8c0 .5-.1.8-.4 1.1-.3.3-.6.4-1 .4h-7.8c-.4 0-.7-.2-.9-.4-.3-.3-.4-.7-.4-1.1V15.4c0-.4.1-.8.4-1.1.3-.3.6-.4.9-.4H99c.2 0 .4.1.6.2.3.1.4.3.6.5l1.1 2c1.3-1 2.7-1.8 4.2-2.4 1.5-.6 3.1-.9 4.7-.9 3 0 5.2.9 6.7 2.8s2.2 4.7 2.2 8.3v17.8c0 .5-.1.8-.4 1.1-.3.3-.6.4-1 .4h-7.8z"/><path id="n-green" class="st2" d="M108.2 42c-.4 0-.7-.2-1-.4-.3-.3-.4-.7-.4-1.1v-16c0-1-.1-1.8-.4-2.4-.3-.6-.7-.9-1.2-.9s-1 .1-1.5.2-1 .4-1.5.6h.1c-.3.2-.6.3-.9.4-.3.1-.5.3-.6.4v17.8c0 .5-.1.8-.4 1.1-.3.3-.6.4-1 .4h-7.8c-.4 0-.7-.2-.9-.4-.3-.3-.4-.7-.4-1.1V13.7c0-.4.1-.8.4-1.1.3-.3.6-.4.9-.4h5.6c.2 0 .4.1.6.2.3.1.4.3.6.5l1.1 2c1.3-1 2.7-1.8 4.2-2.4 1.5-.6 3.1-.9 4.7-.9 3 0 5.2.9 6.7 2.8s2.2 4.7 2.2 8.3v17.8c0 .5-.1.8-.4 1.1-.3.3-.6.4-1 .4h-7.7z"/><path id="a-shadow" class="st1" d="M86.5 42.1c-.2-.2-.3-.4-.5-.6-1.4.8-2.8 1.5-4.4 2-1.6.5-3.1.8-4.7.8-3.2 0-5.6-.8-7.2-2.5s-2.5-4-2.5-6.8c0-3.1 1.3-5.6 3.8-7.6 1.3-.9 2.7-1.6 4.2-2.2 1.6-.5 3.3-.7 5.2-.6l3.8.2c0-1.1-.4-1.9-1-2.4s-1.5-.8-2.5-.8c-.8 0-1.6.1-2.3.2-.7.1-1.5.4-2.2.7-.7.3-1.3.6-1.9.9-.6.3-1.1.6-1.6.8-.3.2-.7.2-1.1.1-.4-.2-.7-.4-.8-.8L69.1 19c-.1-.3-.1-.6 0-.9.1-.3.2-.6.4-.8.3-.3.9-.7 1.6-1.2.7-.4 1.7-.9 2.8-1.4 1.2-.5 2.4-.9 3.6-1.1 1.3-.3 2.6-.4 4-.4 2.3 0 4.2.2 5.8.7 1.6.5 3 1.2 4.1 2.2 1.1 1 1.9 2.3 2.4 3.9s.8 3.5.8 5.8v10.6l.3.3.3.3c.3 0 .6.1.9.3.2.2.4.4.5.7.1.3.1.6.1.9-.1.3-.2.6-.5.8l-4.9 4.6c-1.6 0-2.9-.5-4-1.6-.4-.2-.6-.4-.8-.6m-2.8-7c.3-.1.5-.2.7-.3v-2.4h-.1c-4.6 0-7 .8-7 2.5 0 .9.8 1.3 2.3 1.3 1.2 0 2.3-.2 3.3-.7.3-.1.6-.2.8-.4"/><path id="a-green" class="st2" d="M84.8 40.4c-.2-.2-.3-.4-.5-.6-1.4.8-2.8 1.5-4.4 2-1.6.5-3.1.8-4.7.8-3.2 0-5.6-.8-7.2-2.5-1.7-1.7-2.5-4-2.5-6.8 0-3.1 1.3-5.6 3.8-7.6 1.3-.9 2.7-1.6 4.2-2.2 1.6-.5 3.3-.7 5.2-.6l3.8.2c0-1.1-.4-1.9-1-2.4-.5-.5-1.3-.7-2.4-.7-.8 0-1.6.1-2.3.2-.7.1-1.5.4-2.2.7-.7.3-1.3.6-1.9.9-.6.3-1.1.6-1.6.8-.3.2-.7.2-1.1.1-.4-.2-.7-.4-.8-.8l-1.7-4.5c-.1-.3-.1-.6 0-.9.1-.3.2-.6.4-.8.3-.3.9-.7 1.6-1.2.7-.4 1.7-.9 2.8-1.4 1.2-.5 2.4-.9 3.6-1.1 1.3-.3 2.6-.4 4-.4 2.3 0 4.2.2 5.8.7 1.6.5 3 1.2 4.1 2.2 1.1 1 1.9 2.3 2.4 3.9s.8 3.5.8 5.8v10.6l.3.3.3.3c.3 0 .6.1.9.3s.4.4.5.7c.1.3.1.6.1.9-.1.3-.2.6-.5.8l-4.9 4.6c-1.6 0-2.9-.5-4-1.6-.5-.3-.7-.5-.9-.7M82 33.5c.3-.1.5-.2.7-.3v-2.4h-.1c-4.6 0-7 .8-7 2.5 0 .9.8 1.3 2.3 1.3 1.2 0 2.3-.2 3.3-.7.3-.2.6-.3.8-.4"/><path id="l-shadow" class="st1" d="M67 8.1c.3 0 .6.1.8.4s.2.6.2 1v32.8c0 .4-.1.7-.3.9-.2.3-.5.4-.8.4h-7.2c-.3 0-.6-.1-.8-.4-.2-.3-.3-.6-.3-.9V9.5c0-.4.1-.7.3-.9.2-.3.5-.4.8-.4H67z"/><path id="l-white" class="st5" d="M65.3 6.4c.3 0 .6.1.8.4.2.3.3.6.3.9v32.8c0 .4-.1.7-.3.9-.2.3-.5.4-.8.4H58c-.3 0-.6-.1-.8-.4s-.3-.6-.3-.9V7.8c0-.4.1-.7.3-.9.2-.3.5-.4.8-.4h7.3z"/><path id="i-shadow" class="st3" d="M51 7.9c.8-.8 1.8-1.2 3.1-1.2s2.4.4 3.1 1.2c.7.8 1.1 1.8 1.1 3.2s-.4 2.4-1.1 3.2c-.8.8-1.8 1.2-3.1 1.2s-2.3-.4-3.1-1.2c-.8-.8-1.1-1.8-1.1-3.2s.3-2.4 1.1-3.2zm-.5 35.7c-.3 0-.6-.1-.8-.4-.2-.3-.3-.6-.3-.9v-24c0-.4.1-.7.3-.9.2-.3.5-.4.8-.4h6.3c.2 0 .3 0 .6.1.2.1.4.2.7.3.2.1.4.3.5.4.2.2.2.3.2.5v24c0 .4-.1.7-.3.9-.2.3-.5.4-.8.4h-7.2z"/><path id="i-white" d="M49.3 6.2c.8-.8 1.8-1.2 3.1-1.2s2.4.4 3.1 1.2c.7.8 1.1 1.8 1.1 3.2s-.4 2.4-1.1 3.2c-.8.8-1.8 1.2-3.1 1.2s-2.3-.4-3.1-1.2c-.8-.8-1.1-1.8-1.1-3.2s.3-2.4 1.1-3.2zM48.8 42c-.3 0-.6-.1-.8-.4-.2-.3-.3-.6-.3-.9v-24c0-.4.1-.7.3-.9.2-.3.5-.4.8-.4h6.3c.2 0 .3 0 .6.1s.4.2.7.3c.2.1.4.3.5.4.2.2.2.3.2.5v24c0 .4-.1.7-.3.9-.2.3-.5.4-.8.4h-7.2z" fill="#fff"/><path id="m-shadow" class="st1" d="M40.9 43.6c-.4 0-.7-.2-1-.4-.3-.3-.4-.7-.4-1.1v-16c0-1-.1-1.8-.3-2.4-.2-.6-.5-.9-1-.9s-.9.1-1.4.2c-.5.1-.9.4-1.4.6-.3.2-.6.3-.9.4-.3.1-.5.2-.6.3v17.8c0 .5-.1.8-.4 1.1-.3.3-.6.4-1 .4h-8c-.4 0-.7-.2-1-.4-.3-.3-.4-.7-.4-1.1v-16c0-1-.1-1.8-.3-2.4-.2-.6-.5-.9-1-.9-.9 0-1.9.3-2.9.8-.3.2-.6.3-.8.5-.3.1-.4.3-.6.4v17.8c0 .5-.1.8-.4 1.1-.3.3-.6.4-1 .4h-8c-.4 0-.7-.2-1-.4-.3-.3-.4-.7-.4-1.1V15.4c0-.4.1-.8.4-1.1.3-.3.6-.4 1-.4h5.7c.2 0 .4.1.7.2.3.1.5.3.6.5l1.2 2c1.3-1 2.7-1.8 4.2-2.4s3.1-.9 4.8-.9c1.5 0 2.8.3 3.9 1s2 1.5 2.6 2.6c.4-.3.9-.6 1.3-.8.5-.3 1-.6 1.6-.9 1.1-.6 2.1-1 3.2-1.4 1.1-.3 2.2-.5 3.3-.5 6.1 0 9.2 3.7 9.2 11.1v17.8c0 .5-.1.8-.4 1.1-.3.3-.6.4-1 .4h-8.1z"/><path id="m-white" class="st5" d="M39.2 42c-.4 0-.7-.2-1-.4-.3-.3-.4-.7-.4-1.1v-16c0-1-.1-1.8-.3-2.4-.2-.6-.5-.9-1-.9s-.9.1-1.4.2c-.5.1-.9.4-1.4.6-.3.2-.6.3-.9.4-.3.1-.5.2-.6.3v17.8c0 .5-.1.8-.4 1.1-.3.3-.6.4-1 .4h-8c-.4 0-.7-.2-1-.4-.3-.3-.4-.7-.4-1.1v-16c0-1-.1-1.8-.3-2.4-.2-.6-.5-.9-1-.9-.9 0-1.9.3-2.9.8-.3.2-.6.3-.8.5-.3.1-.4.3-.6.4v17.8c0 .5-.1.8-.4 1.1-.3.3-.6.4-1 .4h-8c-.4 0-.7-.2-1-.4-.3-.3-.4-.7-.4-1.1v-27c0-.4.1-.8.4-1.1s.6-.4 1-.4h5.7c.2 0 .4.1.7.2.3.1.5.3.6.5l1.2 2c1.3-1 2.7-1.8 4.2-2.4s3.1-.9 4.8-.9c1.5 0 2.8.3 3.9 1s2 1.5 2.6 2.6c.4-.3.9-.6 1.3-.8.5-.3 1-.6 1.6-.9 1.1-.6 2.1-1 3.2-1.4 1.1-.3 2.2-.5 3.3-.5 6.1 0 9.2 3.7 9.2 11.1v17.8c0 .5-.1.8-.4 1.1-.3.3-.6.4-1 .4h-8.1z"/></svg>