<svg xmlns="http://www.w3.org/2000/svg" xmlns:xlink="http://www.w3.org/1999/xlink" width="240" height="120" version="1.1" viewBox="0 0 240 120"><title>Radity-logo-white-bg-2@1x</title><desc>Created with Sketch.</desc><g id="Radity-logo-white-bg-2" fill="none" fill-rule="evenodd" stroke="none" stroke-width="1"><rect width="240" height="120" x="0" y="0" fill="#FFF"/><rect id="Rectangle" width="240" height="120" x="0" y="0" fill="#02072F" fill-opacity="0"/><g id="radity-logo-white-wod" fill="#02072F" transform="translate(40.000000, 38.000000)"><path id="Shape" d="M82.415662,29.7602588 L77.7108012,29.7602588 L74.0990384,23.6120915 L72.0195758,23.6120915 L72.0195758,29.7614655 L67.6422764,29.7614655 L67.6422764,11.0478683 L75.3025504,11.0478683 C77.1354219,11.0478683 78.667722,11.6632884 79.9534311,12.9182627 C81.2391401,14.1756504 81.8684996,15.6731725 81.8684996,17.4639243 C81.8684996,19.7361517 80.4453865,21.8213398 78.3401607,22.8904813 L82.415662,29.7614655 L82.415662,29.7602588 Z M75.3025504,15.0577525 L72.0195758,15.0577525 L72.0195758,19.8700961 L75.3025504,19.8700961 C76.5072892,19.8700961 77.4912001,18.8275021 77.4912001,17.4639243 C77.4912001,16.1003465 76.5072892,15.0577525 75.3025504,15.0577525 L75.3025504,15.0577525 Z M93.2853013,17.6521704 L93.2853013,16.3947827 L97.3890195,16.3947827 L97.3890195,29.7602588 L93.2853013,29.7602588 L93.2853013,28.5052845 C92.3283804,29.6009736 90.9592475,30.1343376 89.2085731,30.1343376 C87.4026917,30.1343376 85.8716184,29.4670292 84.5846826,28.1034514 C83.2989735,26.7398736 82.6708409,25.0565186 82.6708409,23.0775207 C82.6708409,21.0985229 83.2989735,19.4417155 84.5846826,18.0793444 C85.8703916,16.7157666 87.4026917,16.0207039 89.2085731,16.0207039 C90.9592475,16.0207039 92.3271536,16.5552746 93.2853013,17.6509637 L93.2853013,17.6521704 Z M87.676273,25.457145 C88.2774155,26.0448109 89.0711691,26.3392472 90.0293168,26.3392472 C90.9862376,26.3392472 91.7799912,26.0448109 92.3823606,25.457145 C92.9835031,24.8694792 93.2853013,24.0670197 93.2853013,23.0775207 C93.2853013,22.0880218 92.9835031,21.286769 92.3823606,20.6991032 C91.781218,20.1102306 90.9862376,19.8170011 90.0293168,19.8170011 C89.0723959,19.8170011 88.2786424,20.1102306 87.676273,20.6978965 C87.0751304,21.286769 86.7733323,22.0892285 86.7733323,23.0775207 C86.7733323,24.0670197 87.0751304,24.8694792 87.676273,25.457145 Z M110.035096,17.6509637 L110.035096,11.0478683 L114.138815,11.0478683 L114.138815,29.7614655 L110.035096,29.7614655 L110.035096,28.5052845 C109.078176,29.6009736 107.710269,30.1343376 105.959595,30.1343376 C104.153714,30.1343376 102.62264,29.4670292 101.335705,28.1034514 C100.049995,26.7398736 99.4218628,25.0565186 99.4218628,23.0775207 C99.4218628,21.0985229 100.049995,19.4417155 101.335705,18.0793444 C102.621414,16.7157666 104.153714,16.0207039 105.959595,16.0207039 C107.710269,16.0207039 109.078176,16.5552746 110.035096,17.6509637 Z M104.427295,25.457145 C105.028437,26.0448109 105.822191,26.3392472 106.780339,26.3392472 C107.73726,26.3392472 108.531013,26.0448109 109.132156,25.457145 C109.734525,24.8694792 110.035096,24.0670197 110.035096,23.0775207 C110.035096,22.0880218 109.734525,21.286769 109.132156,20.6991032 C108.531013,20.1102306 107.73726,19.8170011 106.780339,19.8170011 C105.823418,19.8170011 105.029664,20.1102306 104.427295,20.6978965 C103.826152,21.286769 103.524354,22.0892285 103.524354,23.0775207 C103.524354,24.0670197 103.824926,24.8694792 104.427295,25.457145 Z M120.631154,14.5243884 C119.674234,15.4583789 118.140707,15.4583789 117.156796,14.5243884 C116.199875,13.561437 116.199875,12.0627081 117.156796,11.1287176 C118.140707,10.1657662 119.673007,10.1657662 120.631154,11.1287176 C121.615065,12.0639148 121.615065,13.561437 120.631154,14.5231817 L120.631154,14.5243884 Z M120.958716,29.7614655 L116.854998,29.7614655 L116.854998,16.3947827 L120.958716,16.3947827 L120.958716,29.7602588 L120.958716,29.7614655 Z M131.690951,16.3947827 L131.690951,20.244175 L128.872942,20.244175 L128.872942,24.9756693 C128.872942,26.0448109 129.694912,26.2318503 131.690951,26.1256602 L131.690951,29.7614655 C129.092543,30.0281475 127.286662,29.788013 126.274534,29.0398552 C125.262406,28.2639433 124.769224,26.9281197 124.769224,24.9756693 L124.769224,20.244175 L122.580574,20.244175 L122.580574,16.3947827 L124.769224,16.3947827 L124.769224,13.8546665 L128.872942,12.6515806 L128.872942,16.3947827 L131.690951,16.3947827 L131.690951,16.3947827 Z M140.043152,24.5750429 L142.61457,16.393576 L146.99187,16.393576 L142.313999,29.3596323 C140.781699,33.5577626 138.374675,35.2954193 134.516321,35.1083799 L134.516321,31.3651778 C136.4044,31.3651778 137.30734,30.7775119 137.9367,29.1460454 L132.492066,16.3947827 L137.006769,16.3947827 L140.043152,24.5750429 L140.043152,24.5750429 Z"/><path id="Combined-Shape" d="M38.4436855,39.1242638 C39.7368401,39.1242638 40.785149,40.1725727 40.785149,41.4657273 L40.785149,41.8861788 C40.785149,43.1793334 39.7368401,44.2276423 38.4436855,44.2276423 L2.34146351,44.2276423 C1.04830892,44.2276423 -7.29812657e-16,43.1793334 0,41.8861788 L0,41.4657273 C-1.58365763e-16,40.1725727 1.04830892,39.1242638 2.34146351,39.1242638 L38.4436855,39.1242638 Z M33.2811803,31.2996567 C34.5743349,31.2996567 35.6226438,32.3479657 35.6226438,33.6411202 L35.6226438,34.0615717 C35.6226438,35.3547263 34.5743349,36.4030352 33.2811803,36.4030352 L2.34146351,36.4030352 C1.04830892,36.4030352 6.02454972e-16,35.3547263 0,34.0615717 L0,33.6411202 C-1.58365763e-16,32.3479657 1.04830892,31.2996567 2.34146351,31.2996567 L33.2811803,31.2996567 Z M28.1186752,23.4750497 C29.4118298,23.4750497 30.4601387,24.5233586 30.4601387,25.8165132 L30.4601387,26.2369647 C30.4601387,27.5301193 29.4118298,28.5784282 28.1186752,28.5784282 L2.34146351,28.5784282 C1.04830892,28.5784282 6.02454972e-16,27.5301193 0,26.2369647 L0,25.8165132 C-1.58365763e-16,24.5233586 1.04830892,23.4750497 2.34146351,23.4750497 L28.1186752,23.4750497 Z M41.8861788,15.6492141 C43.1793334,15.6492141 44.2276423,16.697523 44.2276423,17.9906776 L44.2276423,18.4111291 C44.2276423,19.7042837 43.1793334,20.7525926 41.8861788,20.7525926 L2.34146351,20.7525926 C1.04830892,20.7525926 2.37881181e-15,19.7042837 0,18.4111291 L0,17.9906776 C-1.58365763e-16,16.697523 1.04830892,15.6492141 2.34146351,15.6492141 L41.8861788,15.6492141 Z M41.8861788,7.82460705 C43.1793334,7.82460705 44.2276423,8.87291597 44.2276423,10.1660706 L44.2276423,10.586522 C44.2276423,11.8796766 43.1793334,12.9279855 41.8861788,12.9279855 L2.34146351,12.9279855 C1.04830892,12.9279855 2.37881181e-15,11.8796766 0,10.586522 L0,10.1660706 C2.85723447e-16,8.87291597 1.04830892,7.82460705 2.34146351,7.82460705 L41.8861788,7.82460705 Z M31.5599337,0 C32.8530883,2.06540566e-16 33.9013972,1.04830892 33.9013972,2.34146351 L33.9013972,2.76191499 C33.9013972,4.05506958 32.8530883,5.1033785 31.5599337,5.1033785 L2.34146351,5.1033785 C1.04830892,5.1033785 6.02454972e-16,4.05506958 0,2.76191499 L0,2.34146351 C-1.58365763e-16,1.04830892 1.04830892,6.81637854e-16 2.34146351,0 L31.5599337,0 Z"/></g></g></svg>