<svg xmlns="http://www.w3.org/2000/svg" width="550" height="450"><g><rect id="canvas_background" width="552" height="452" x="-1" y="-1" fill="none"/></g><g><path id="svg_1" fill="#e30613" d="m169.6,224.799993c0,-58.6 29.6,-110.2 74.6,-140.8l-48.7,-27.7c-4.2,-2.4 -9.3,-2.3 -13.5,0.1l-135.3,79.3c-4.2,2.4 -6.7,6.9 -6.7,11.7l0,156.9c0,4.8 2.6,9.2 6.8,11.6l137.4,77.5c4.2,2.3 9.4,2.3 13.6,-0.2l46.7,-27.4c-45.2,-30.6 -74.9,-82.3 -74.9,-141z"/><path id="svg_2" fill="#009fe3" d="m339.8,54.599993c-35.4,0 -68.3,10.8 -95.6,29.4l87.7,49.8c4.2,2.4 6.8,6.8 6.8,11.6l1.1,156.8c0,4.8 -2.5,9.3 -6.7,11.7l-88.6,51.9c27.2,18.4 60,29.2 95.3,29.2c94,0 170.2,-76.2 170.2,-170.2s-76.2,-170.2 -170.2,-170.2z"/><path id="svg_3" fill="#000411" d="m339.8,302.199993l-1.1,-156.8c0,-4.8 -2.6,-9.2 -6.8,-11.6l-87.7,-49.8c-45,30.6 -74.6,82.3 -74.6,140.8c0,58.7 29.7,110.4 74.9,141l88.6,-51.9c4.2,-2.4 6.7,-6.9 6.7,-11.7z"/></g></svg>