<svg xmlns="http://www.w3.org/2000/svg" xmlns:xlink="http://www.w3.org/1999/xlink" width="160" height="64" version="1.1" viewBox="0 0 3271 725" xml:space="preserve" style="fill-rule:evenodd;clip-rule:evenodd;stroke-linejoin:round;stroke-miterlimit:2"><g><path d="M1054.97,623.192l-0,-367.834c-0,-29.558 -16.421,-43.791 -48.171,-38.316l-153.263,28.462l0,33.938c49.263,-2.188 70.067,9.854 70.067,60.212l0,167.492c0,81.012 -39.412,139.033 -108.383,139.033c-67.871,0 -105.096,-58.021 -105.096,-139.033l-0,-251.788c-0,-29.558 -16.421,-43.791 -48.167,-38.316l-153.267,28.462l0,33.938c49.267,-2.188 70.067,9.854 70.067,60.212l0,192.671c0,153.267 79.917,192.675 160.925,192.675c88.675,0 133.558,-48.167 157.646,-77.725c5.471,-6.571 9.85,-10.95 16.421,-10.95c7.662,0 13.137,6.571 15.325,18.612c5.475,31.746 29.558,70.063 91.958,70.063c33.938,0 70.067,-10.946 84.296,-39.408l0,-19.705c-31.746,9.851 -50.358,-5.475 -50.358,-42.695Z" style="fill:#fbd12b;fill-rule:nonzero"/><path d="M1698.1,623.192l0,-223.329c0,-147.792 -81.012,-187.2 -162.025,-187.2c-86.483,-0 -146.388,52.712 -169.375,80.083l-13.717,-0c0,-0 0.271,-27.863 0.271,-41.767c0,-25.179 -16.421,-39.412 -48.171,-33.937l-153.262,28.462l-0,33.938c49.262,-4.38 70.062,8.758 70.062,59.116l0,275.875c0,50.359 -18.608,65.684 -70.062,70.063l-0,33.937l270.4,0l-0,-33.937c-50.358,-4.379 -68.967,-19.704 -68.967,-70.063l0,-189.391c0,-75.538 39.413,-133.559 108.379,-133.559c67.875,0 105.096,58.021 105.096,133.559l0,198.15c0,70.062 41.6,101.808 98.525,101.808c32.846,0 68.971,-10.946 83.204,-39.408l0,-19.705c-31.75,9.851 -50.358,-5.475 -50.358,-42.695Z" style="fill:#fbd12b;fill-rule:nonzero"/><path d="M2322.05,623.192l-0,-223.329c-0,-147.792 -81.013,-187.2 -162.025,-187.2c-86.483,-0 -146.387,52.712 -169.375,80.083l-13.713,-0c0,-0 0.267,-242.7 0.267,-256.608c0,-25.18 -16.421,-39.413 -48.167,-33.938l-153.266,28.467l-0,33.933c49.262,-4.379 70.062,8.758 70.062,59.117l0,490.716c0,50.359 -18.608,65.684 -70.062,70.063l-0,33.937l270.404,0l0,-33.937c-50.363,-4.379 -68.971,-19.704 -68.971,-70.063l0,-189.391c0,-75.538 39.413,-133.559 108.379,-133.559c67.875,0 105.096,58.021 105.096,133.559l0,198.15c0,70.062 41.6,101.808 98.529,101.808c32.842,0 68.967,-10.946 83.2,-39.408l0,-19.705c-31.75,9.851 -50.358,-5.475 -50.358,-42.695Z" style="fill:#fbd12b;fill-rule:nonzero"/><path d="M2732.57,502.767l-0,28.462c-0,68.971 -49.263,120.425 -116.046,120.425c-53.642,0 -76.629,-33.937 -76.629,-73.35c-0,-42.691 27.366,-97.429 148.883,-108.379c23.35,-2.446 35.938,-6.554 41.362,-8.787c1.555,-0.638 3.242,0.545 3.188,2.225c-0.246,7.691 -0.758,25.62 -0.758,39.404Zm131.366,120.425l0,-209.096c0,-152.171 -58.02,-199.246 -187.2,-199.246c-120.42,0 -239.75,38.317 -239.75,122.612c0,35.034 20.8,62.401 64.592,62.401c113.854,-0 18.608,-145.6 143.412,-145.6c62.401,-0 87.58,40.504 87.58,119.329l-0,17.512c-0,28.463 -8.759,36.125 -39.413,40.504c-213.475,30.655 -287.916,84.296 -287.916,172.971c-0,85.392 68.966,120.421 143.412,120.421c78.821,0 135.746,-40.504 166.4,-78.821c9.854,-12.041 18.612,-9.854 19.704,3.284c4.379,39.412 32.846,75.537 94.15,75.537c33.938,0 65.683,-10.946 79.917,-39.408l-0,-19.705c-31.75,10.946 -44.888,-5.475 -44.888,-42.695Z" style="fill:#fbd12b;fill-rule:nonzero"/><path d="M3268.23,224.704l-138.429,0l-0.604,-29.558l1.096,-71.158c-0,-12.042 -7.663,-19.705 -19.704,-19.705l-15.33,0c-10.946,0 -17.516,3.284 -24.083,14.229c-35.029,59.117 -75.537,97.434 -153.267,119.33l0,30.654l50.363,-0c20.8,-0 29.558,6.566 29.558,40.504l0,267.117c0,99.621 56.925,147.791 146.696,147.791c50.358,0 88.675,-15.329 111.662,-36.129c9.85,-8.758 7.663,-21.892 -6.57,-37.221c-17.517,14.234 -38.313,19.704 -58.021,19.704c-53.642,0 -62.4,-40.504 -62.4,-102.904l-0,-256.171l-0.35,-36.125l139.383,0l0,-50.358Z" style="fill:#fbd12b;fill-rule:nonzero"/><path d="M283.425,407.529c-52.55,-16.425 -94.15,-40.508 -94.15,-89.771c-0,-39.412 30.1,-66.154 82.65,-66.154l13.787,0.771c95.267,10.65 136.088,129.246 136.088,129.246l14.888,-0l-0,-120.788c-37.221,-27.371 -98.53,-45.983 -164.213,-45.983c-37.15,0 -71.654,5.858 -101.267,17.075c-0.387,55.487 -43.237,100.8 -97.679,105.208c-1.621,8.471 -2.487,17.334 -2.487,26.604c-0,95.238 84.295,137.938 172.97,165.305c68.971,20.8 113.855,36.125 113.855,84.296c-0,35.033 -20.8,72.254 -94.15,72.254c-64.588,-0 -110.571,-30.655 -136.842,-109.475c-5.475,-16.421 -15.325,-24.084 -30.654,-24.084c-41.6,0 -38.317,66.775 -10.946,123.705c37.221,28.462 98.525,49.262 170.779,49.262c119.329,0 224.425,-52.546 224.425,-154.358c0,-109.475 -118.233,-139.034 -197.054,-163.113Z" style="fill:#fbd12b;fill-rule:nonzero"/><path d="M60.367,285.25c33.341,-0 60.37,-27.029 60.37,-60.371c0,-33.337 -27.029,-60.366 -60.37,-60.366c-33.342,-0 -60.367,27.029 -60.367,60.366c0,33.342 27.025,60.371 60.367,60.371Z" style="fill:#fbd12b;fill-rule:nonzero"/></g></svg>