<svg xmlns="http://www.w3.org/2000/svg" xmlns:xlink="http://www.w3.org/1999/xlink" width="231" height="31" version="1.1" viewBox="0 0 231 31"><defs><polyline id="path-1" points="0 .198 230.864 .198 230.864 30.972 0 30.972"/></defs><g id="-logo-normal" fill="none" fill-rule="evenodd" stroke="none" stroke-width="1"><rect width="231" height="31" x="0" y="0" fill="#FFF"/><g id="logo"><path id="Fill-1" fill="#17A8E6" d="M110.712854,30.8750746 C108.374683,30.8750746 102.900171,22.103 102.900171,18.3621791 C102.900171,14.1165672 106.406488,10.6616866 110.712854,10.6616866 C115.021098,10.6616866 118.526006,14.1165672 118.526006,18.3621791 C118.526006,22.103 113.049146,30.8750746 110.712854,30.8750746 M110.712854,12.5850746 C113.944037,12.5850746 116.574244,15.1765821 116.574244,18.3621791 C116.574244,21.6065373 112.085707,28.0735075 110.712854,28.9026418 C109.338591,28.0735075 104.852872,21.6065373 104.852872,18.3621791 C104.852872,15.1765821 107.481671,12.5850746 110.712854,12.5850746 Z M103.619463,7.72501493 C103.337287,7.72501493 103.057927,7.60008955 102.874348,7.36134328 L100.732433,4.59031343 C100.419268,4.18546269 100.498146,3.6061791 100.909909,3.29895522 C101.320732,2.99034328 101.907622,3.06807463 102.220787,3.47338806 L104.36364,6.2448806 C104.675866,6.64926866 104.596518,7.22808955 104.185226,7.53623881 C104.016201,7.66301493 103.817598,7.72501493 103.619463,7.72501493 Z M117.340018,7.37661194 C117.141884,7.37661194 116.942811,7.31507463 116.773787,7.18829851 C116.362963,6.87922388 116.283616,6.2999403 116.595841,5.89508955 L118.738226,3.12498507 C119.050921,2.71874627 119.63922,2.64147761 120.050043,2.94916418 C120.459927,3.25823881 120.539744,3.8370597 120.226579,4.24237313 L118.085134,7.0129403 C117.901555,7.25076119 117.621726,7.37661194 117.340018,7.37661194 Z M110.521293,5.52540299 C110.004829,5.52540299 109.585555,5.11222388 109.585555,4.60326866 L109.585555,1.11923881 C109.585555,0.610283582 110.004829,0.197567164 110.521293,0.197567164 C111.038226,0.197567164 111.456561,0.610283582 111.456561,1.11923881 L111.456561,4.60326866 C111.456561,5.11222388 111.038226,5.52540299 110.521293,5.52540299 Z M110.712854,16.4364776 C109.904354,16.4364776 109.248445,17.0828507 109.248445,17.8805224 C109.248445,18.678194 109.904354,19.3250299 110.712854,19.3250299 C111.523701,19.3250299 112.177732,18.678194 112.177732,17.8805224 C112.177732,17.0828507 111.523701,16.4364776 110.712854,16.4364776 Z"/><mask id="mask-2" fill="#fff"><use xlink:href="#path-1"/></mask><path id="Fill-6" fill="#56535C" d="M5.87641463,29.2815821 C4.01620732,29.2815821 2.45038415,28.3492687 1.57990854,26.7233881 L1.37895732,26.3467612 L0,27.102791 L0.194847561,27.4632239 C1.3512561,29.6082388 3.36921951,30.7894776 5.87641463,30.7894776 C9.04092683,30.7894776 11.0856524,29.0673582 11.0856524,26.403209 C11.0856524,23.893597 9.59119512,22.6795075 7.0107561,21.429791 L5.56418902,20.7278955 C3.44715854,19.708597 2.69593902,19.0858209 2.69593902,17.6218806 C2.69593902,16.2120746 3.84389634,15.1886119 5.42662195,15.1886119 C6.94737195,15.1886119 7.96292683,15.7183881 8.71743293,16.9074925 L8.93387805,17.250806 L10.2320793,16.5058806 L10.0029573,16.1417463 C8.93998171,14.4552537 7.52862805,13.7033881 5.42662195,13.7033881 C2.93022561,13.7033881 1.11696951,15.3519403 1.11696951,17.6218806 C1.11696951,19.8432388 2.49029268,20.939806 4.8627378,22.0831045 L6.33325,22.7836119 C8.76532317,23.9352388 9.50715244,24.7805672 9.50715244,26.403209 C9.50715244,28.1780746 8.1159878,29.2815821 5.87641463,29.2815821" mask="url(#mask-2)"/><polyline id="Fill-8" fill="#56535C" points="27.143 13.493 22.399 27.214 18.327 13.89 16.685 13.89 21.966 31 22.675 31 27.492 17.177 32.287 31 32.997 31 38.278 13.89 36.66 13.89 32.587 27.214 27.843 13.493 27.143 13.493" mask="url(#mask-2)"/><polyline id="Fill-10" fill="#56535C" points="55.863 29.118 46.998 29.118 46.998 22.965 54.653 22.965 54.653 21.482 46.998 21.482 46.998 15.375 55.531 15.375 55.531 13.89 45.396 13.89 45.396 30.604 55.863 30.604 55.863 29.118" mask="url(#mask-2)"/><polyline id="Fill-11" fill="#56535C" points="73.972 29.118 65.107 29.118 65.107 22.965 72.763 22.965 72.763 21.482 65.107 21.482 65.107 15.375 73.64 15.375 73.64 13.89 63.505 13.89 63.505 30.604 73.972 30.604 73.972 29.118" mask="url(#mask-2)"/><path id="Fill-12" fill="#56535C" d="M83.21775,23.6668806 L86.469122,23.6668806 C89.7200244,23.6668806 91.820622,21.7527463 91.820622,18.7892388 C91.820622,15.8132388 89.7200244,13.8898507 86.469122,13.8898507 L81.6153049,13.8898507 L81.6153049,30.6039403 L83.21775,30.6039403 L83.21775,23.6668806 L83.21775,23.6668806 Z M83.21775,15.3746119 L86.37475,15.3746119 C88.7457866,15.3746119 90.2181768,16.6830896 90.2181768,18.7892388 C90.2181768,20.8815075 88.7457866,22.181194 86.37475,22.181194 L83.21775,22.181194 L83.21775,15.3746119 L83.21775,15.3746119 Z" mask="url(#mask-2)"/><path id="Fill-13" fill="#56535C" d="M141.407213,25.9132239 C141.407213,23.9916866 140.555049,22.6406418 138.871848,21.8906269 C140.00478,21.1794776 140.578524,19.9746418 140.578524,18.2992537 C140.578524,16.1681194 139.290652,13.8898507 135.676817,13.8898507 L130.088213,13.8898507 L130.088213,30.6039403 L135.960872,30.6039403 C139.320701,30.6039403 141.407213,28.8059403 141.407213,25.9132239 M139.804768,25.9132239 C139.804768,28.5621045 137.650646,29.117791 135.842085,29.117791 L131.690189,29.117791 L131.690189,22.7095821 L135.842085,22.7095821 C138.39764,22.7095821 139.804768,23.8473284 139.804768,25.9132239 M136.080598,21.2234328 L131.690189,21.2234328 L131.690189,15.3746119 L135.605451,15.3746119 C137.779762,15.3746119 138.976549,16.4133433 138.976549,18.2992537 C138.976549,19.6331791 138.474171,21.2234328 136.080598,21.2234328" mask="url(#mask-2)"/><path id="Fill-14" fill="#56535C" d="M150.63078,23.5951642 L154.076061,23.5951642 L158.455201,30.4119254 L158.579152,30.6039403 L160.432317,30.6039403 L155.769122,23.3642836 C157.972543,22.7674179 159.328024,21.0411343 159.328024,18.7892388 C159.328024,15.4046866 156.640067,13.8898507 153.976055,13.8898507 L149.029274,13.8898507 L149.029274,30.6039403 L150.63078,30.6039403 L150.63078,23.5951642 L150.63078,23.5951642 Z M150.63078,15.3746119 L153.882622,15.3746119 C156.25272,15.3746119 157.726049,16.6835522 157.726049,18.7892388 C157.726049,20.8690149 156.288402,22.1108657 153.882622,22.1108657 L150.63078,22.1108657 L150.63078,15.3746119 L150.63078,15.3746119 Z" mask="url(#mask-2)"/><polygon id="Fill-15" fill="#56535C" points="167.373 13.89 168.975 13.89 168.975 30.603 167.373 30.603" mask="url(#mask-2)"/><path id="Fill-16" fill="#56535C" d="M185.216457,30.7899403 C188.017567,30.7899403 190.10361,30.0283582 191.973677,28.3201194 L192.109835,28.1970448 L192.109835,22.6480448 L185.198616,22.6480448 L185.198616,24.1332687 L190.50739,24.1332687 L190.50739,27.5525224 C189.165524,28.7314478 187.481384,29.2815821 185.216457,29.2815821 C181.188512,29.2815821 178.150768,26.257 178.150768,22.2468955 C178.150768,18.236791 181.118085,15.2126716 185.052128,15.2126716 C187.259774,15.2126716 188.898841,15.8946716 190.208311,17.36 L190.492835,17.6783284 L191.663329,16.6238657 L191.386317,16.3189552 C189.815799,14.5834179 187.684213,13.7033881 185.052128,13.7033881 C180.269207,13.7033881 176.523439,17.4567015 176.523439,22.2468955 C176.523439,27.1171343 180.261695,30.7899403 185.216457,30.7899403" mask="url(#mask-2)"/><polyline id="Fill-17" fill="#56535C" points="201.521 22.965 210.299 22.965 210.299 30.603 211.903 30.603 211.903 13.89 210.299 13.89 210.299 21.482 201.521 21.482 201.521 13.89 199.919 13.89 199.919 30.603 201.521 30.603 201.521 22.965" mask="url(#mask-2)"/><polyline id="Fill-18" fill="#56535C" points="218.93 13.89 218.93 15.375 224.095 15.375 224.095 30.603 225.697 30.603 225.697 15.375 230.864 15.375 230.864 13.89 218.93 13.89" mask="url(#mask-2)"/></g></g></svg>