<svg xmlns="http://www.w3.org/2000/svg" xmlns:xlink="http://www.w3.org/1999/xlink" width="1689" height="720" version="1.1" viewBox="0 0 1689 720"><title>tiller logo</title><g id="tiller_logo_dark" fill="none" fill-rule="evenodd" stroke="none" stroke-width="1"><path id="Combined-Shape" fill="#2B333D" d="M359.247146,496.87024 C434.526292,496.87024 495.547549,435.590201 495.547549,359.995505 C495.547549,284.406802 434.526292,223.126764 359.247146,223.126764 C283.970984,223.126764 222.946742,284.406802 222.946742,359.995505 C222.946742,435.590201 283.970984,496.87024 359.247146,496.87024 Z M533.588479,355.069129 C536.289063,355.069129 538.497275,357.286598 538.497275,359.995505 C538.497275,362.710406 536.289063,364.927874 533.588479,364.927874 L509.772613,364.927874 C508.558096,402.98143 493.366193,437.469056 469.162398,463.40145 L485.995539,480.305152 C487.905344,482.219966 487.905344,485.36038 485.995539,487.278191 C484.085734,489.193005 480.964396,489.193005 479.051607,487.278191 L462.22145,470.371493 C436.397304,494.679741 402.050653,509.932327 364.158926,511.157928 L364.158926,535.067631 C364.158926,537.779535 361.947729,540 359.247146,540 C356.546562,540 354.335366,537.779535 354.335366,535.067631 L354.335366,511.157928 C316.443639,509.932327 282.099971,494.679741 256.275826,470.371493 L239.442684,487.278191 C237.532879,489.193005 234.408557,489.193005 232.498752,487.278191 C230.591931,485.36038 230.591931,482.219966 232.498752,480.305152 L249.331894,463.40145 C225.131082,437.469056 209.939179,402.98143 208.721678,364.927874 L184.908796,364.927874 C182.208212,364.927874 180,362.710406 180,359.995505 C180,357.286598 182.208212,355.069129 184.908796,355.069129 L208.721678,355.069129 C209.939179,317.015574 225.131082,282.530944 249.331894,256.592557 L232.498752,239.691852 C230.591931,237.774041 230.591931,234.636623 232.498752,232.721809 C234.408557,230.801002 237.532879,230.801002 239.442684,232.721809 L256.275826,249.622514 C282.099971,225.317263 316.443639,210.06168 354.335366,208.842072 L354.335366,184.926376 C354.335366,182.217468 356.546562,180 359.247146,180 C361.947729,180 364.158926,182.217468 364.158926,184.926376 L364.158926,208.842072 C402.050653,210.06168 436.397304,225.317263 462.22145,249.622514 L479.051607,232.721809 C480.964396,230.801002 484.085734,230.801002 485.995539,232.721809 C487.905344,234.636623 487.905344,237.774041 485.995539,239.691852 L469.162398,256.592557 C493.366193,282.530944 508.558096,317.015574 509.772613,355.069129 L533.588479,355.069129 Z M359.249831,247.770629 C420.873871,247.770629 471.009239,298.113154 471.009239,359.998502 C471.009239,361.7515 470.95851,363.489516 470.874956,365.221539 C470.800354,366.896626 470.024496,368.460841 468.741345,369.527623 C467.461179,370.600398 465.796068,371.08884 464.142893,370.849114 C459.11175,370.165894 454.205938,372.497232 451.571004,376.809309 C447.900597,382.80846 449.771609,390.689463 455.742734,394.375255 C456.596178,394.902653 457.515272,395.319177 458.565665,395.654794 C460.156175,396.161216 461.460213,397.317895 462.158486,398.837161 C462.856758,400.36242 462.886599,402.106428 462.236072,403.65566 C459.180383,410.910377 455.286171,417.931362 450.657878,424.532825 C449.702976,425.896268 448.219893,426.795242 446.572686,427.013992 C444.934431,427.223753 443.260367,426.741304 441.995122,425.668528 C441.514686,425.269983 441.016346,424.880428 440.473246,424.541815 C437.572729,422.755854 434.155968,422.210476 430.861555,423.001573 C427.558189,423.79267 424.75913,425.827347 422.983609,428.734029 C420.127853,433.390712 420.554575,439.350908 424.034001,443.564098 C425.09633,444.852627 425.573782,446.524718 425.344008,448.178829 C425.117219,449.835937 424.213046,451.313251 422.846341,452.269159 C416.76779,456.497332 410.268484,460.132182 403.521501,463.05984 C401.978736,463.728077 400.227087,463.713094 398.690291,463.002905 C397.159463,462.298709 396.004627,460.977218 395.500319,459.362062 C394.58421,456.413428 392.644564,453.905291 390.03947,452.296129 C387.153874,450.516161 383.746066,449.967787 380.430764,450.755887 C377.124413,451.546984 374.328339,453.584658 372.549833,456.488342 L372.546849,456.491339 C370.965292,459.07439 370.356542,462.15787 370.833993,465.175425 C371.096591,466.844519 370.640028,468.546576 369.586651,469.859078 C368.527306,471.168583 366.963653,471.968669 365.283622,472.061563 C363.287279,472.163447 361.276015,472.226375 359.249831,472.226375 C297.622808,472.226375 247.48744,421.883849 247.48744,359.998502 C247.48744,298.113154 297.622808,247.770629 359.249831,247.770629 Z M444.060098,412.972024 C445.844572,410.104298 447.479843,407.161657 448.95099,404.165078 C437.862184,396.892381 434.481232,381.972415 441.455005,370.570432 C442.815741,368.346971 444.504725,366.417174 446.41453,364.778045 L418.382172,364.778045 C416.069517,393.856847 392.984748,417.038381 364.024344,419.357733 L364.024344,447.972065 C367.438121,443.570091 372.191745,440.474625 377.673482,439.162123 C384.059393,437.630871 390.663141,438.685667 396.255289,442.140723 C399.376627,444.067523 401.999625,446.656567 403.969111,449.698095 C406.496619,448.421552 408.979366,447.034136 411.396463,445.54184 C408.108017,438.215204 408.531755,429.573071 412.870594,422.492155 C416.302275,416.876566 421.718363,412.936065 428.104273,411.407809 C433.520361,410.101301 439.076701,410.667654 444.060098,412.972024 Z M259.480419,364.778045 C260.608397,388.834581 270.211136,410.700617 285.358278,427.424524 L314.071004,398.594438 C306.216931,389.335009 301.138043,377.639362 300.117491,364.787035 L262.446585,364.787035 C262.434649,364.787035 262.425696,364.778045 262.41376,364.778045 L259.480419,364.778045 Z M285.36723,292.557497 C270.217104,309.278407 260.611382,331.14744 259.480419,355.203975 L300.114507,355.203975 C301.132075,342.348652 306.20201,330.644015 314.0531,321.384586 L287.429223,294.646112 C287.417287,294.637123 287.414303,294.616147 287.402366,294.60416 L285.36723,292.557497 Z M354.487255,262.900355 L354.487255,259.810883 C330.537105,260.946586 308.762343,270.583584 292.108245,285.791222 L320.800083,314.603328 C330.026829,306.716332 341.67664,301.619151 354.481287,300.597318 L354.481287,262.933318 C354.481287,262.921331 354.487255,262.909345 354.487255,262.900355 Z M397.702563,314.612318 L426.388433,285.803208 C409.740304,270.59557 387.974494,260.949583 364.024344,259.810883 L364.024344,300.597318 C376.82899,301.622148 388.478802,306.722325 397.702563,314.612318 Z M359.249831,404.968161 C383.99076,404.968161 404.052665,384.825158 404.052665,359.977526 C404.052665,335.129893 383.99076,314.989887 359.249831,314.989887 C334.502935,314.989887 314.444013,335.129893 314.444013,359.977526 C314.444013,384.825158 334.502935,404.968161 359.249831,404.968161 Z M320.815003,405.36371 L292.102277,434.196792 C308.753391,449.407427 330.534121,459.044424 354.487255,460.180128 L354.487255,419.36073 C341.688576,418.338896 330.038765,413.247709 320.815003,405.36371 Z M418.385156,355.203975 L459.004323,355.203975 C457.867392,331.153433 448.273606,309.29339 433.132432,292.575476 L404.443579,321.384586 C412.294668,330.644015 417.367588,342.348652 418.385156,355.203975 Z M1108.1993,313.189542 L1108.1993,407.494877 L1182.47281,407.494877 L1182.47281,420.82366 L1094.95898,420.82366 L1094.95898,313.189542 L1108.1993,313.189542 Z M954.39434,313.189542 L954.39434,407.494877 L1028.68576,407.494877 L1028.68576,420.82366 L941.154019,420.82366 L941.154019,313.189542 L954.39434,313.189542 Z M635.518657,313.189542 L734.213804,313.189542 L734.213804,326.515328 L691.508772,326.515328 L691.508772,420.82366 L678.23861,420.82366 L678.23861,326.515328 L635.518657,326.515328 L635.518657,313.189542 Z M1422.46907,374.071635 L1422.17962,374.074631 L1422.17962,420.824259 L1408.90647,420.824259 L1408.90647,313.190141 L1476.31065,313.190141 L1476.31065,313.145193 C1492.90805,313.145193 1506.36323,326.608822 1506.36323,343.29677 C1506.36323,359.945762 1492.90805,373.463329 1476.31065,373.463329 L1472.45822,373.463329 L1508.41328,420.824259 L1491.34142,420.824259 L1455.77726,373.463329 L1422.46907,374.071635 Z M1422.17962,326.515928 L1422.17962,360.335317 L1476.31065,360.149529 C1486.09841,360.149529 1493.93159,351.920924 1493.06919,341.879388 C1492.31124,333.051466 1484.4691,326.515928 1475.64521,326.515928 L1422.17962,326.515928 Z M826.806527,420.824259 L826.806527,313.190141 L840.082657,313.190141 L840.082657,420.824259 L826.806527,420.824259 Z M1248.74514,313.189542 L1336.27091,313.189542 L1336.27091,326.515328 L1262.02425,326.515328 L1262.02425,360.334718 L1309.31282,360.334718 L1309.31282,373.651515 L1262.02425,373.651515 L1262.02425,407.494877 L1336.27091,407.494877 L1336.27091,420.82366 L1248.74514,420.82366 L1248.74514,313.189542 Z"/></g></svg>