<svg xmlns="http://www.w3.org/2000/svg" xmlns:svg="http://www.w3.org/2000/svg" id="svg190" width="600.18" height="140.294" version="1.1" viewBox="0 0 158.798 37.119"><metadata id="metadata187"/><g id="layer1" transform="translate(51.549911,-291.73775)"><g id="g248" transform="translate(0.50000243,-0.49999817)"><path id="svg_2" fill="#2e3133" stroke-width=".265" d="m 43.83238,328.46022 v -3.46604 h 1.719792 v 3.46604 z m 17.594792,-11.93271 c -0.05292,-0.74083 -0.264583,-1.42875 -0.582083,-2.01083 -0.3175,-0.58208 -0.740834,-1.05833 -1.27,-1.45521 -0.529167,-0.39687 -1.11125,-0.68792 -1.825625,-0.87312 -0.687917,-0.18521 -1.42875,-0.29105 -2.196042,-0.29105 -1.058333,0 -2.037292,0.23813 -2.8575,0.635 -0.846667,0.42334 -1.534583,1.00542 -2.06375,1.74625 -0.555625,0.71438 -0.978958,1.56105 -1.27,2.48709 -0.291042,0.92604 -0.423333,1.87854 -0.423333,2.88396 0,1.16416 0.132291,2.2225 0.396875,3.20145 0.264583,0.97896 0.687916,1.85209 1.243541,2.56646 0.555625,0.71438 1.27,1.29646 2.06375,1.69334 0.846667,0.39687 1.825625,0.60854 2.910417,0.60854 0.820208,0 1.561042,-0.13229 2.2225,-0.39688 0.687917,-0.26458 1.296458,-0.635 1.825625,-1.11125 0.529167,-0.47625 0.978958,-1.03187 1.296458,-1.69333 0.3175,-0.66146 0.555625,-1.40229 0.687917,-2.16958 h 1.27 c -0.132292,1.03187 -0.423333,1.93145 -0.846667,2.75166 -0.423333,0.82021 -0.978958,1.48167 -1.613958,2.03729 -0.635,0.55563 -1.349375,0.97896 -2.169583,1.27 -0.820209,0.29105 -1.693334,0.42334 -2.619375,0.42334 -1.42875,0 -2.619375,-0.26459 -3.624792,-0.74084 -1.005417,-0.52916 -1.825625,-1.16416 -2.460625,-2.03729 -0.635,-0.84666 -1.11125,-1.82562 -1.42875,-2.93687 -0.291042,-1.11125 -0.449792,-2.27542 -0.449792,-3.46604 0,-1.19063 0.15875,-2.3548 0.529167,-3.43959 0.343958,-1.05833 0.846667,-2.01083 1.534583,-2.80458 0.687917,-0.79375 1.481667,-1.45521 2.487084,-1.905 0.978958,-0.47625 2.116666,-0.71438 3.413125,-0.71438 0.926041,0 1.825625,0.1323 2.619375,0.34396 0.820208,0.23813 1.561041,0.58209 2.169583,1.05834 0.635,0.47625 1.164167,1.05833 1.561042,1.7727 0.396875,0.71438 0.635,1.56105 0.740833,2.56646 H 61.45363 Z m 3.307292,3.30729 c 0,-1.24354 0.15875,-2.4077 0.529166,-3.46604 0.343959,-1.05833 0.846667,-2.03729 1.534584,-2.88396 0.687916,-0.84666 1.481666,-1.48166 2.487083,-1.98437 0.978958,-0.47625 2.116666,-0.71438 3.413125,-0.71438 1.27,0 2.407708,0.23813 3.413125,0.71438 0.978958,0.47625 1.825625,1.13771 2.487083,1.98437 0.687917,0.84667 1.164167,1.77271 1.534583,2.88396 0.343959,1.11125 0.529167,2.2225 0.529167,3.46604 0,1.24355 -0.15875,2.40771 -0.529167,3.4925 -0.343958,1.11125 -0.846666,2.0373 -1.534583,2.88396 -0.687917,0.82021 -1.481667,1.45521 -2.487083,1.93146 -0.978959,0.47625 -2.116667,0.71438 -3.413125,0.71438 -1.27,0 -2.407709,-0.23813 -3.413125,-0.71438 -0.978959,-0.47625 -1.825625,-1.13771 -2.487083,-1.93146 -0.661459,-0.79375 -1.190625,-1.77271 -1.534584,-2.88396 -0.370416,-1.08479 -0.529166,-2.27541 -0.529166,-3.4925 z m 1.243541,0 c 0,1.03188 0.132292,2.01084 0.423334,2.9898 0.291041,0.92604 0.714375,1.7727 1.269999,2.51354 0.555625,0.74083 1.27,1.32291 2.06375,1.74625 0.846667,0.42333 1.772709,0.635 2.8575,0.635 1.084792,0 2.037292,-0.23813 2.8575,-0.635 0.846667,-0.42334 1.534584,-1.03188 2.06375,-1.74625 0.555625,-0.74084 0.978959,-1.5875 1.27,-2.51354 0.291042,-0.92605 0.423334,-1.93146 0.423334,-2.9898 0,-1.05833 -0.15875,-2.01083 -0.423334,-2.98979 -0.291041,-0.92604 -0.714375,-1.77271 -1.27,-2.51354 -0.555625,-0.74083 -1.27,-1.32292 -2.06375,-1.74625 -0.846666,-0.42333 -1.772708,-0.635 -2.8575,-0.635 -1.084791,0 -2.037291,0.23813 -2.8575,0.635 -0.846666,0.42333 -1.534583,1.03188 -2.06375,1.74625 -0.555624,0.74083 -0.978958,1.5875 -1.269999,2.51354 -0.264584,0.97896 -0.423334,1.95792 -0.423334,2.98979 z m 17.30375,-8.62541 h 1.27 v 3.51896 h 0.05292 c 0.132291,-0.55563 0.343958,-1.03188 0.714375,-1.53459 0.3175,-0.47625 0.740833,-0.89958 1.243541,-1.27 0.47625,-0.34396 1.005417,-0.635 1.613959,-0.84666 0.582083,-0.18521 1.243541,-0.29105 1.878541,-0.29105 0.846667,0 1.561042,0.10584 2.143125,0.3175 0.608542,0.23813 1.137709,0.47625 1.561042,0.84667 0.423333,0.37042 0.767291,0.74083 1.005416,1.16417 0.264584,0.42333 0.423334,0.87312 0.529167,1.32291 h 0.05292 c 0.529166,-1.19062 1.190625,-2.11666 2.06375,-2.7252 0.873125,-0.60855 2.010833,-0.92605 3.413129,-0.92605 0.76729,0 1.53458,0.1323 2.16958,0.34396 0.635,0.23813 1.24354,0.58209 1.71979,1.05834 0.47625,0.47625 0.84667,1.11125 1.13771,1.82562 0.26459,0.74083 0.39688,1.61396 0.39688,2.61938 v 11.7475 h -1.29646 v -11.82688 c 0,-1.11125 -0.15875,-1.93146 -0.52917,-2.59292 -0.3175,-0.60854 -0.74083,-1.11125 -1.19062,-1.42875 -0.44979,-0.3175 -0.89959,-0.52916 -1.40229,-0.60854 -0.4498,-0.0529 -0.82021,-0.13229 -1.05834,-0.13229 -0.76729,0 -1.534584,0.13229 -2.169584,0.39688 -0.635,0.26458 -1.243542,0.68791 -1.719792,1.19062 -0.47625,0.55563 -0.846667,1.19063 -1.137708,2.01083 -0.264584,0.82021 -0.396875,1.7198 -0.396875,2.72521 v 10.26584 h -1.27 v -11.82688 c 0,-1.05833 -0.15875,-1.93146 -0.47625,-2.56646 -0.3175,-0.635 -0.714375,-1.11125 -1.137708,-1.42875 -0.423334,-0.3175 -0.873125,-0.52916 -1.349375,-0.60854 -0.449792,-0.10583 -0.820209,-0.13229 -1.11125,-0.13229 -0.608542,0 -1.243542,0.13229 -1.878542,0.34396 -0.635,0.26458 -1.243542,0.60854 -1.772708,1.13771 -0.529167,0.52916 -0.978959,1.16416 -1.296459,1.98437 -0.3175,0.82021 -0.529166,1.74625 -0.529166,2.8575 v 10.23938 h -1.27 v -17.22438 h 0.02646 z"/><path id="svg_3" fill="#ffcb29" stroke-width=".265" d="m 1.287381,293.42939 c -1.85208331,0.97896 -2.5135416,2.59292 -2.5135416,7.06437 0,0 0.92604162,-0.89958 2.3018749,-1.40229 1.0054167,-0.34396 1.8520833,-0.89958 2.3547917,-1.27 1.5610416,-1.13771 1.7727083,-2.59291 1.7727083,-5.05354 0,0 -2.54,-0.0794 -3.9158333,0.66146 z"/><path id="svg_4" fill="#2e3133" stroke-width=".265" d="m -9.5605355,294.48772 c -1.4816665,1.32292 -1.9314585,3.41313 -1.9314585,3.41313 l -4.974166,19.10291 -4.101042,-15.66333 c -0.396875,-1.64042 -1.137708,-3.73062 -2.275417,-5.10646 -1.42875,-1.74625 -4.365626,-1.85208 -4.683126,-1.85208 -0.3175,0 -3.280833,0.10583 -4.736042,1.87854 -1.137708,1.40229 -1.878541,3.46604 -2.275416,5.10646 l -4.101042,15.66333 -4.92125,-19.12937 c 0,0 -0.423333,-2.11667 -1.931458,-3.41313 -2.434167,-2.14312 -6.058958,-1.69333 -6.058958,-1.69333 l 9.445625,35.82458 c 0,0 3.122083,0.23813 4.683124,-0.58208 2.037292,-1.03188 3.042709,-1.85209 4.28625,-6.74688 1.11125,-4.33916 4.206875,-17.09208 4.497917,-18.01812 0.132292,-0.44979 0.3175,-1.53459 1.11125,-1.53459 0.820208,0 0.978958,1.05834 1.11125,1.53459 0.291042,0.89958 3.36021,13.67896 4.497918,18.01812 1.243542,4.86834 2.2225,5.66209 4.28625,6.74688 1.561042,0.82021 4.683125,0.58208 4.683125,0.58208 l 9.4456247,-35.79812 c 0,0 -3.6247916,-0.44979 -6.0589582,1.66687 z m 14.7637498,4.15396 c 0,0 -0.5820833,0.89958 -1.9314583,1.69333 -0.873125,0.47625 -1.6933333,0.82021 -2.59291666,1.24354 -1.48166665,0.71438 -1.90499994,1.53459 -1.90499994,2.75167 v 24.28875 c 0,0 2.4077083,0.29104 3.9422916,-0.47625 2.0108333,-1.03187 2.460625,-2.01083 2.4870833,-6.48229 z m 23.6008327,12.14437 11.985625,-17.88583 c 0,0 -5.053541,-0.87312 -7.567083,1.42875 -1.613958,1.45521 -3.413125,4.07459 -3.413125,4.07459 l -4.392083,6.40291 c -0.238125,0.3175 -0.47625,0.68792 -0.926042,0.68792 -0.449792,0 -0.740833,-0.34396 -0.926042,-0.68792 l -4.445,-6.37646 c 0,0 -1.772708,-2.61937 -3.413125,-4.07458 -2.487083,-2.30187 -7.5670828,-1.42875 -7.5670828,-1.42875 L 20.152172,310.7596 8.1400892,328.56605 c 0,0 5.2916668,0.68792 7.7787498,-1.61395 1.613958,-1.45521 3.175,-3.86292 3.175,-3.86292 l 4.392083,-6.37646 c 0.238125,-0.3175 0.47625,-0.68792 0.926042,-0.68792 0.449792,0 0.740833,0.34396 0.926042,0.68792 l 4.392083,6.37646 c 0,0 1.640417,2.35479 3.227917,3.86292 2.487083,2.30187 7.699375,1.61395 7.699375,1.61395 z"/></g></g></svg>